%TF.GenerationSoftware,KiCad,Pcbnew,9.0.4*%
%TF.CreationDate,2025-12-18T14:29:10-05:00*%
%TF.ProjectId,TurtleBot_PCB,54757274-6c65-4426-9f74-5f5043422e6b,rev?*%
%TF.SameCoordinates,Original*%
%TF.FileFunction,Legend,Top*%
%TF.FilePolarity,Positive*%
%FSLAX46Y46*%
G04 Gerber Fmt 4.6, Leading zero omitted, Abs format (unit mm)*
G04 Created by KiCad (PCBNEW 9.0.4) date 2025-12-18 14:29:10*
%MOMM*%
%LPD*%
G01*
G04 APERTURE LIST*
%ADD10C,0.500000*%
G04 APERTURE END LIST*
D10*
X31300000Y-28800000D02*
G75*
G02*
X24700000Y-28800000I-3300000J0D01*
G01*
X24700000Y-28800000D02*
G75*
G02*
X31300000Y-28800000I3300000J0D01*
G01*
X91300000Y-60000000D02*
G75*
G02*
X84700000Y-60000000I-3300000J0D01*
G01*
X84700000Y-60000000D02*
G75*
G02*
X91300000Y-60000000I3300000J0D01*
G01*
G36*
X87825478Y-68644975D02*
G01*
X86347076Y-68127669D01*
X87825478Y-67606943D01*
X87825478Y-68644975D01*
G37*
G36*
X89820375Y-77554632D02*
G01*
X84899526Y-77554632D01*
X84899526Y-74394696D01*
X85399902Y-74394696D01*
X85399902Y-76969504D01*
X85410174Y-77024398D01*
X85440690Y-77069644D01*
X85486019Y-77099865D01*
X85542784Y-77110188D01*
X89179316Y-77110188D01*
X89234397Y-77099951D01*
X89279455Y-77069644D01*
X89309781Y-77024418D01*
X89320000Y-76969504D01*
X89320000Y-76263154D01*
X89309677Y-76206389D01*
X89279455Y-76161060D01*
X89234378Y-76130563D01*
X89179316Y-76120272D01*
X87914382Y-76120272D01*
X87914382Y-74506803D01*
X87904059Y-74450039D01*
X87873838Y-74404710D01*
X87828761Y-74374212D01*
X87773698Y-74363921D01*
X87213649Y-74363921D01*
X87156904Y-74374298D01*
X87111556Y-74404710D01*
X87081334Y-74450039D01*
X87071011Y-74506803D01*
X87071011Y-76120272D01*
X86246936Y-76120272D01*
X86246936Y-74394696D01*
X86236614Y-74337931D01*
X86206392Y-74292602D01*
X86161334Y-74262295D01*
X86106252Y-74252058D01*
X85542784Y-74252058D01*
X85486019Y-74262381D01*
X85440690Y-74292602D01*
X85410279Y-74337951D01*
X85399902Y-74394696D01*
X84899526Y-74394696D01*
X84899526Y-72062421D01*
X85343970Y-72062421D01*
X85364708Y-72406690D01*
X85423740Y-72707222D01*
X85517627Y-72970272D01*
X85653097Y-73212021D01*
X85820316Y-73410123D01*
X86021011Y-73569644D01*
X86249407Y-73687034D01*
X86515882Y-73765704D01*
X86827990Y-73802651D01*
X87346029Y-73808269D01*
X87856985Y-73802651D01*
X88177197Y-73765866D01*
X88450922Y-73687715D01*
X88685701Y-73571353D01*
X88892831Y-73412472D01*
X89063686Y-73216329D01*
X89200565Y-72978332D01*
X89294923Y-72718112D01*
X89354750Y-72415290D01*
X89375931Y-72062421D01*
X89354320Y-71709957D01*
X89292694Y-71401296D01*
X89194459Y-71130146D01*
X89053153Y-70880913D01*
X88879359Y-70676483D01*
X88671290Y-70511723D01*
X88434481Y-70391882D01*
X88162132Y-70317487D01*
X87846482Y-70291416D01*
X87206810Y-70291416D01*
X87149835Y-70301749D01*
X87104473Y-70331960D01*
X87074261Y-70377323D01*
X87063928Y-70434298D01*
X87063928Y-71846022D01*
X87074166Y-71901104D01*
X87104473Y-71946161D01*
X87149835Y-71976373D01*
X87206810Y-71986706D01*
X87624710Y-71986706D01*
X87679791Y-71976519D01*
X87725826Y-71946161D01*
X87756896Y-71901026D01*
X87767348Y-71846022D01*
X87767348Y-71316259D01*
X87877990Y-71316259D01*
X88102372Y-71341795D01*
X88270488Y-71411514D01*
X88403690Y-71524142D01*
X88495924Y-71671877D01*
X88548868Y-71844794D01*
X88567487Y-72048499D01*
X88546669Y-72252790D01*
X88488261Y-72418828D01*
X88394563Y-72554815D01*
X88266123Y-72655903D01*
X88083541Y-72726422D01*
X87828897Y-72760223D01*
X87337303Y-72768649D01*
X86856078Y-72760223D01*
X86616331Y-72727544D01*
X86442774Y-72659611D01*
X86319232Y-72561898D01*
X86229325Y-72430580D01*
X86172748Y-72267054D01*
X86152414Y-72062421D01*
X86170347Y-71860972D01*
X86217627Y-71717062D01*
X86291727Y-71596421D01*
X86375896Y-71509455D01*
X86469689Y-71441831D01*
X86551507Y-71398813D01*
X86612079Y-71341905D01*
X86632107Y-71253244D01*
X86632107Y-70433565D01*
X86623416Y-70384963D01*
X86597913Y-70345638D01*
X86559579Y-70319679D01*
X86512916Y-70312421D01*
X86314197Y-70344304D01*
X86104542Y-70433565D01*
X85910373Y-70572204D01*
X85725233Y-70771598D01*
X85572954Y-71012901D01*
X85448262Y-71317725D01*
X85371501Y-71655340D01*
X85343970Y-72062421D01*
X84899526Y-72062421D01*
X84899526Y-67710502D01*
X85399902Y-67710502D01*
X85399902Y-68127669D01*
X85399902Y-68541416D01*
X85413104Y-68628651D01*
X85448995Y-68688939D01*
X85501590Y-68733268D01*
X85557438Y-68759769D01*
X89153426Y-70071598D01*
X89201053Y-70079413D01*
X89245988Y-70070639D01*
X89284829Y-70043998D01*
X89311278Y-70005176D01*
X89320000Y-69960223D01*
X89320000Y-69270725D01*
X89308355Y-69188680D01*
X89278722Y-69140300D01*
X89201053Y-69088032D01*
X88633921Y-68873831D01*
X88633921Y-67378087D01*
X89201053Y-67163886D01*
X89278722Y-67108932D01*
X89308501Y-67060361D01*
X89320000Y-66981193D01*
X89320000Y-66291695D01*
X89311278Y-66246742D01*
X89284829Y-66207920D01*
X89245988Y-66181279D01*
X89201053Y-66172505D01*
X89153426Y-66180321D01*
X85557438Y-67492149D01*
X85501608Y-67518697D01*
X85448995Y-67563224D01*
X85413113Y-67623307D01*
X85399902Y-67710502D01*
X84899526Y-67710502D01*
X84899526Y-65728061D01*
X89820375Y-65728061D01*
X89820375Y-77554632D01*
G37*
X41538470Y-51504761D02*
X42271804Y-53704761D01*
X42271804Y-53704761D02*
X43005137Y-51504761D01*
X45414660Y-53704761D02*
X45414660Y-51504761D01*
X55852756Y-26866666D02*
X57528947Y-26866666D01*
X58576566Y-26866666D02*
X60252757Y-26866666D01*
X59414661Y-27704761D02*
X59414661Y-26028571D01*
X62452757Y-27704761D02*
X61195614Y-27704761D01*
X61824186Y-27704761D02*
X61824186Y-25504761D01*
X61824186Y-25504761D02*
X61614662Y-25819047D01*
X61614662Y-25819047D02*
X61405138Y-26028571D01*
X61405138Y-26028571D02*
X61195614Y-26133333D01*
X63290852Y-25714285D02*
X63395614Y-25609523D01*
X63395614Y-25609523D02*
X63605138Y-25504761D01*
X63605138Y-25504761D02*
X64128947Y-25504761D01*
X64128947Y-25504761D02*
X64338471Y-25609523D01*
X64338471Y-25609523D02*
X64443233Y-25714285D01*
X64443233Y-25714285D02*
X64547995Y-25923809D01*
X64547995Y-25923809D02*
X64547995Y-26133333D01*
X64547995Y-26133333D02*
X64443233Y-26447619D01*
X64443233Y-26447619D02*
X63186090Y-27704761D01*
X63186090Y-27704761D02*
X64547995Y-27704761D01*
X36147243Y-108133333D02*
X34471053Y-108133333D01*
X35309148Y-107295238D02*
X35309148Y-108971428D01*
X31747243Y-108133333D02*
X30071053Y-108133333D01*
X48747994Y-37600000D02*
X49062280Y-37704761D01*
X49062280Y-37704761D02*
X49586089Y-37704761D01*
X49586089Y-37704761D02*
X49795613Y-37600000D01*
X49795613Y-37600000D02*
X49900375Y-37495238D01*
X49900375Y-37495238D02*
X50005137Y-37285714D01*
X50005137Y-37285714D02*
X50005137Y-37076190D01*
X50005137Y-37076190D02*
X49900375Y-36866666D01*
X49900375Y-36866666D02*
X49795613Y-36761904D01*
X49795613Y-36761904D02*
X49586089Y-36657142D01*
X49586089Y-36657142D02*
X49167042Y-36552380D01*
X49167042Y-36552380D02*
X48957518Y-36447619D01*
X48957518Y-36447619D02*
X48852756Y-36342857D01*
X48852756Y-36342857D02*
X48747994Y-36133333D01*
X48747994Y-36133333D02*
X48747994Y-35923809D01*
X48747994Y-35923809D02*
X48852756Y-35714285D01*
X48852756Y-35714285D02*
X48957518Y-35609523D01*
X48957518Y-35609523D02*
X49167042Y-35504761D01*
X49167042Y-35504761D02*
X49690851Y-35504761D01*
X49690851Y-35504761D02*
X50005137Y-35609523D01*
X50947994Y-37704761D02*
X50947994Y-35504761D01*
X50947994Y-35504761D02*
X51471804Y-35504761D01*
X51471804Y-35504761D02*
X51786089Y-35609523D01*
X51786089Y-35609523D02*
X51995613Y-35819047D01*
X51995613Y-35819047D02*
X52100375Y-36028571D01*
X52100375Y-36028571D02*
X52205137Y-36447619D01*
X52205137Y-36447619D02*
X52205137Y-36761904D01*
X52205137Y-36761904D02*
X52100375Y-37180952D01*
X52100375Y-37180952D02*
X51995613Y-37390476D01*
X51995613Y-37390476D02*
X51786089Y-37600000D01*
X51786089Y-37600000D02*
X51471804Y-37704761D01*
X51471804Y-37704761D02*
X50947994Y-37704761D01*
X53043232Y-37076190D02*
X54090851Y-37076190D01*
X52833708Y-37704761D02*
X53567042Y-35504761D01*
X53567042Y-35504761D02*
X54300375Y-37704761D01*
X21866666Y-57647243D02*
X21866666Y-55971053D01*
X22704761Y-56809148D02*
X21028571Y-56809148D01*
X21866666Y-53247243D02*
X21866666Y-51571053D01*
X49147243Y-106633333D02*
X47471053Y-106633333D01*
X48309148Y-105795238D02*
X48309148Y-107471428D01*
X44747243Y-106633333D02*
X43071053Y-106633333D01*
X70852756Y-26866666D02*
X72528947Y-26866666D01*
X73576566Y-26866666D02*
X75252757Y-26866666D01*
X74414661Y-27704761D02*
X74414661Y-26028571D01*
X77452757Y-27704761D02*
X76195614Y-27704761D01*
X76824186Y-27704761D02*
X76824186Y-25504761D01*
X76824186Y-25504761D02*
X76614662Y-25819047D01*
X76614662Y-25819047D02*
X76405138Y-26028571D01*
X76405138Y-26028571D02*
X76195614Y-26133333D01*
X78290852Y-25714285D02*
X78395614Y-25609523D01*
X78395614Y-25609523D02*
X78605138Y-25504761D01*
X78605138Y-25504761D02*
X79128947Y-25504761D01*
X79128947Y-25504761D02*
X79338471Y-25609523D01*
X79338471Y-25609523D02*
X79443233Y-25714285D01*
X79443233Y-25714285D02*
X79547995Y-25923809D01*
X79547995Y-25923809D02*
X79547995Y-26133333D01*
X79547995Y-26133333D02*
X79443233Y-26447619D01*
X79443233Y-26447619D02*
X78186090Y-27704761D01*
X78186090Y-27704761D02*
X79547995Y-27704761D01*
X42747994Y-33100000D02*
X43062280Y-33204761D01*
X43062280Y-33204761D02*
X43586089Y-33204761D01*
X43586089Y-33204761D02*
X43795613Y-33100000D01*
X43795613Y-33100000D02*
X43900375Y-32995238D01*
X43900375Y-32995238D02*
X44005137Y-32785714D01*
X44005137Y-32785714D02*
X44005137Y-32576190D01*
X44005137Y-32576190D02*
X43900375Y-32366666D01*
X43900375Y-32366666D02*
X43795613Y-32261904D01*
X43795613Y-32261904D02*
X43586089Y-32157142D01*
X43586089Y-32157142D02*
X43167042Y-32052380D01*
X43167042Y-32052380D02*
X42957518Y-31947619D01*
X42957518Y-31947619D02*
X42852756Y-31842857D01*
X42852756Y-31842857D02*
X42747994Y-31633333D01*
X42747994Y-31633333D02*
X42747994Y-31423809D01*
X42747994Y-31423809D02*
X42852756Y-31214285D01*
X42852756Y-31214285D02*
X42957518Y-31109523D01*
X42957518Y-31109523D02*
X43167042Y-31004761D01*
X43167042Y-31004761D02*
X43690851Y-31004761D01*
X43690851Y-31004761D02*
X44005137Y-31109523D01*
X46205137Y-32995238D02*
X46100375Y-33100000D01*
X46100375Y-33100000D02*
X45786089Y-33204761D01*
X45786089Y-33204761D02*
X45576565Y-33204761D01*
X45576565Y-33204761D02*
X45262280Y-33100000D01*
X45262280Y-33100000D02*
X45052756Y-32890476D01*
X45052756Y-32890476D02*
X44947994Y-32680952D01*
X44947994Y-32680952D02*
X44843232Y-32261904D01*
X44843232Y-32261904D02*
X44843232Y-31947619D01*
X44843232Y-31947619D02*
X44947994Y-31528571D01*
X44947994Y-31528571D02*
X45052756Y-31319047D01*
X45052756Y-31319047D02*
X45262280Y-31109523D01*
X45262280Y-31109523D02*
X45576565Y-31004761D01*
X45576565Y-31004761D02*
X45786089Y-31004761D01*
X45786089Y-31004761D02*
X46100375Y-31109523D01*
X46100375Y-31109523D02*
X46205137Y-31214285D01*
X48195613Y-33204761D02*
X47147994Y-33204761D01*
X47147994Y-33204761D02*
X47147994Y-31004761D01*
X40147243Y-32133333D02*
X38471053Y-32133333D01*
X39309148Y-31295238D02*
X39309148Y-32971428D01*
X35747243Y-32133333D02*
X34071053Y-32133333D01*
X36004761Y-72832957D02*
X36528571Y-72832957D01*
X36319047Y-73356767D02*
X36528571Y-72832957D01*
X36528571Y-72832957D02*
X36319047Y-72309148D01*
X36947619Y-73147243D02*
X36528571Y-72832957D01*
X36528571Y-72832957D02*
X36947619Y-72518672D01*
X37052380Y-71471053D02*
X37052380Y-70737720D01*
X38204761Y-70423434D02*
X38204761Y-71471053D01*
X38204761Y-71471053D02*
X36004761Y-71471053D01*
X36004761Y-71471053D02*
X36004761Y-70423434D01*
X37052380Y-69480577D02*
X37052380Y-68747244D01*
X38204761Y-68432958D02*
X38204761Y-69480577D01*
X38204761Y-69480577D02*
X36004761Y-69480577D01*
X36004761Y-69480577D02*
X36004761Y-68432958D01*
X38204761Y-67490101D02*
X36004761Y-67490101D01*
X36004761Y-67490101D02*
X36004761Y-66652006D01*
X36004761Y-66652006D02*
X36109523Y-66442482D01*
X36109523Y-66442482D02*
X36214285Y-66337720D01*
X36214285Y-66337720D02*
X36423809Y-66232958D01*
X36423809Y-66232958D02*
X36738095Y-66232958D01*
X36738095Y-66232958D02*
X36947619Y-66337720D01*
X36947619Y-66337720D02*
X37052380Y-66442482D01*
X37052380Y-66442482D02*
X37157142Y-66652006D01*
X37157142Y-66652006D02*
X37157142Y-67490101D01*
X43106857Y-69956767D02*
X40106857Y-69956767D01*
X40106857Y-69956767D02*
X40106857Y-69242481D01*
X40106857Y-69242481D02*
X40249714Y-68813910D01*
X40249714Y-68813910D02*
X40535428Y-68528195D01*
X40535428Y-68528195D02*
X40821142Y-68385338D01*
X40821142Y-68385338D02*
X41392571Y-68242481D01*
X41392571Y-68242481D02*
X41821142Y-68242481D01*
X41821142Y-68242481D02*
X42392571Y-68385338D01*
X42392571Y-68385338D02*
X42678285Y-68528195D01*
X42678285Y-68528195D02*
X42964000Y-68813910D01*
X42964000Y-68813910D02*
X43106857Y-69242481D01*
X43106857Y-69242481D02*
X43106857Y-69956767D01*
X43106857Y-65242481D02*
X41678285Y-66242481D01*
X43106857Y-66956767D02*
X40106857Y-66956767D01*
X40106857Y-66956767D02*
X40106857Y-65813910D01*
X40106857Y-65813910D02*
X40249714Y-65528195D01*
X40249714Y-65528195D02*
X40392571Y-65385338D01*
X40392571Y-65385338D02*
X40678285Y-65242481D01*
X40678285Y-65242481D02*
X41106857Y-65242481D01*
X41106857Y-65242481D02*
X41392571Y-65385338D01*
X41392571Y-65385338D02*
X41535428Y-65528195D01*
X41535428Y-65528195D02*
X41678285Y-65813910D01*
X41678285Y-65813910D02*
X41678285Y-66956767D01*
X40106857Y-64385338D02*
X43106857Y-63385338D01*
X43106857Y-63385338D02*
X40106857Y-62385338D01*
X45392571Y-70528195D02*
X45249714Y-70813910D01*
X45249714Y-70813910D02*
X45106857Y-70956767D01*
X45106857Y-70956767D02*
X44821142Y-71099624D01*
X44821142Y-71099624D02*
X44678285Y-71099624D01*
X44678285Y-71099624D02*
X44392571Y-70956767D01*
X44392571Y-70956767D02*
X44249714Y-70813910D01*
X44249714Y-70813910D02*
X44106857Y-70528195D01*
X44106857Y-70528195D02*
X44106857Y-69956767D01*
X44106857Y-69956767D02*
X44249714Y-69671053D01*
X44249714Y-69671053D02*
X44392571Y-69528195D01*
X44392571Y-69528195D02*
X44678285Y-69385338D01*
X44678285Y-69385338D02*
X44821142Y-69385338D01*
X44821142Y-69385338D02*
X45106857Y-69528195D01*
X45106857Y-69528195D02*
X45249714Y-69671053D01*
X45249714Y-69671053D02*
X45392571Y-69956767D01*
X45392571Y-69956767D02*
X45392571Y-70528195D01*
X45392571Y-70528195D02*
X45535428Y-70813910D01*
X45535428Y-70813910D02*
X45678285Y-70956767D01*
X45678285Y-70956767D02*
X45964000Y-71099624D01*
X45964000Y-71099624D02*
X46535428Y-71099624D01*
X46535428Y-71099624D02*
X46821142Y-70956767D01*
X46821142Y-70956767D02*
X46964000Y-70813910D01*
X46964000Y-70813910D02*
X47106857Y-70528195D01*
X47106857Y-70528195D02*
X47106857Y-69956767D01*
X47106857Y-69956767D02*
X46964000Y-69671053D01*
X46964000Y-69671053D02*
X46821142Y-69528195D01*
X46821142Y-69528195D02*
X46535428Y-69385338D01*
X46535428Y-69385338D02*
X45964000Y-69385338D01*
X45964000Y-69385338D02*
X45678285Y-69528195D01*
X45678285Y-69528195D02*
X45535428Y-69671053D01*
X45535428Y-69671053D02*
X45392571Y-69956767D01*
X45392571Y-67671052D02*
X45249714Y-67956767D01*
X45249714Y-67956767D02*
X45106857Y-68099624D01*
X45106857Y-68099624D02*
X44821142Y-68242481D01*
X44821142Y-68242481D02*
X44678285Y-68242481D01*
X44678285Y-68242481D02*
X44392571Y-68099624D01*
X44392571Y-68099624D02*
X44249714Y-67956767D01*
X44249714Y-67956767D02*
X44106857Y-67671052D01*
X44106857Y-67671052D02*
X44106857Y-67099624D01*
X44106857Y-67099624D02*
X44249714Y-66813910D01*
X44249714Y-66813910D02*
X44392571Y-66671052D01*
X44392571Y-66671052D02*
X44678285Y-66528195D01*
X44678285Y-66528195D02*
X44821142Y-66528195D01*
X44821142Y-66528195D02*
X45106857Y-66671052D01*
X45106857Y-66671052D02*
X45249714Y-66813910D01*
X45249714Y-66813910D02*
X45392571Y-67099624D01*
X45392571Y-67099624D02*
X45392571Y-67671052D01*
X45392571Y-67671052D02*
X45535428Y-67956767D01*
X45535428Y-67956767D02*
X45678285Y-68099624D01*
X45678285Y-68099624D02*
X45964000Y-68242481D01*
X45964000Y-68242481D02*
X46535428Y-68242481D01*
X46535428Y-68242481D02*
X46821142Y-68099624D01*
X46821142Y-68099624D02*
X46964000Y-67956767D01*
X46964000Y-67956767D02*
X47106857Y-67671052D01*
X47106857Y-67671052D02*
X47106857Y-67099624D01*
X47106857Y-67099624D02*
X46964000Y-66813910D01*
X46964000Y-66813910D02*
X46821142Y-66671052D01*
X46821142Y-66671052D02*
X46535428Y-66528195D01*
X46535428Y-66528195D02*
X45964000Y-66528195D01*
X45964000Y-66528195D02*
X45678285Y-66671052D01*
X45678285Y-66671052D02*
X45535428Y-66813910D01*
X45535428Y-66813910D02*
X45392571Y-67099624D01*
X44106857Y-65528195D02*
X44106857Y-63671052D01*
X44106857Y-63671052D02*
X45249714Y-64671052D01*
X45249714Y-64671052D02*
X45249714Y-64242481D01*
X45249714Y-64242481D02*
X45392571Y-63956767D01*
X45392571Y-63956767D02*
X45535428Y-63813909D01*
X45535428Y-63813909D02*
X45821142Y-63671052D01*
X45821142Y-63671052D02*
X46535428Y-63671052D01*
X46535428Y-63671052D02*
X46821142Y-63813909D01*
X46821142Y-63813909D02*
X46964000Y-63956767D01*
X46964000Y-63956767D02*
X47106857Y-64242481D01*
X47106857Y-64242481D02*
X47106857Y-65099624D01*
X47106857Y-65099624D02*
X46964000Y-65385338D01*
X46964000Y-65385338D02*
X46821142Y-65528195D01*
X44106857Y-62671052D02*
X44106857Y-60813909D01*
X44106857Y-60813909D02*
X45249714Y-61813909D01*
X45249714Y-61813909D02*
X45249714Y-61385338D01*
X45249714Y-61385338D02*
X45392571Y-61099624D01*
X45392571Y-61099624D02*
X45535428Y-60956766D01*
X45535428Y-60956766D02*
X45821142Y-60813909D01*
X45821142Y-60813909D02*
X46535428Y-60813909D01*
X46535428Y-60813909D02*
X46821142Y-60956766D01*
X46821142Y-60956766D02*
X46964000Y-61099624D01*
X46964000Y-61099624D02*
X47106857Y-61385338D01*
X47106857Y-61385338D02*
X47106857Y-62242481D01*
X47106857Y-62242481D02*
X46964000Y-62528195D01*
X46964000Y-62528195D02*
X46821142Y-62671052D01*
X43259057Y-92660567D02*
X40259057Y-92660567D01*
X40259057Y-92660567D02*
X40259057Y-91946281D01*
X40259057Y-91946281D02*
X40401914Y-91517710D01*
X40401914Y-91517710D02*
X40687628Y-91231995D01*
X40687628Y-91231995D02*
X40973342Y-91089138D01*
X40973342Y-91089138D02*
X41544771Y-90946281D01*
X41544771Y-90946281D02*
X41973342Y-90946281D01*
X41973342Y-90946281D02*
X42544771Y-91089138D01*
X42544771Y-91089138D02*
X42830485Y-91231995D01*
X42830485Y-91231995D02*
X43116200Y-91517710D01*
X43116200Y-91517710D02*
X43259057Y-91946281D01*
X43259057Y-91946281D02*
X43259057Y-92660567D01*
X43259057Y-87946281D02*
X41830485Y-88946281D01*
X43259057Y-89660567D02*
X40259057Y-89660567D01*
X40259057Y-89660567D02*
X40259057Y-88517710D01*
X40259057Y-88517710D02*
X40401914Y-88231995D01*
X40401914Y-88231995D02*
X40544771Y-88089138D01*
X40544771Y-88089138D02*
X40830485Y-87946281D01*
X40830485Y-87946281D02*
X41259057Y-87946281D01*
X41259057Y-87946281D02*
X41544771Y-88089138D01*
X41544771Y-88089138D02*
X41687628Y-88231995D01*
X41687628Y-88231995D02*
X41830485Y-88517710D01*
X41830485Y-88517710D02*
X41830485Y-89660567D01*
X40259057Y-87089138D02*
X43259057Y-86089138D01*
X43259057Y-86089138D02*
X40259057Y-85089138D01*
X36156961Y-95536757D02*
X36680771Y-95536757D01*
X36471247Y-96060567D02*
X36680771Y-95536757D01*
X36680771Y-95536757D02*
X36471247Y-95012948D01*
X37099819Y-95851043D02*
X36680771Y-95536757D01*
X36680771Y-95536757D02*
X37099819Y-95222472D01*
X37204580Y-94174853D02*
X37204580Y-93441520D01*
X38356961Y-93127234D02*
X38356961Y-94174853D01*
X38356961Y-94174853D02*
X36156961Y-94174853D01*
X36156961Y-94174853D02*
X36156961Y-93127234D01*
X37204580Y-92184377D02*
X37204580Y-91451044D01*
X38356961Y-91136758D02*
X38356961Y-92184377D01*
X38356961Y-92184377D02*
X36156961Y-92184377D01*
X36156961Y-92184377D02*
X36156961Y-91136758D01*
X38356961Y-90193901D02*
X36156961Y-90193901D01*
X36156961Y-90193901D02*
X36156961Y-89355806D01*
X36156961Y-89355806D02*
X36261723Y-89146282D01*
X36261723Y-89146282D02*
X36366485Y-89041520D01*
X36366485Y-89041520D02*
X36576009Y-88936758D01*
X36576009Y-88936758D02*
X36890295Y-88936758D01*
X36890295Y-88936758D02*
X37099819Y-89041520D01*
X37099819Y-89041520D02*
X37204580Y-89146282D01*
X37204580Y-89146282D02*
X37309342Y-89355806D01*
X37309342Y-89355806D02*
X37309342Y-90193901D01*
X45544771Y-93231995D02*
X45401914Y-93517710D01*
X45401914Y-93517710D02*
X45259057Y-93660567D01*
X45259057Y-93660567D02*
X44973342Y-93803424D01*
X44973342Y-93803424D02*
X44830485Y-93803424D01*
X44830485Y-93803424D02*
X44544771Y-93660567D01*
X44544771Y-93660567D02*
X44401914Y-93517710D01*
X44401914Y-93517710D02*
X44259057Y-93231995D01*
X44259057Y-93231995D02*
X44259057Y-92660567D01*
X44259057Y-92660567D02*
X44401914Y-92374853D01*
X44401914Y-92374853D02*
X44544771Y-92231995D01*
X44544771Y-92231995D02*
X44830485Y-92089138D01*
X44830485Y-92089138D02*
X44973342Y-92089138D01*
X44973342Y-92089138D02*
X45259057Y-92231995D01*
X45259057Y-92231995D02*
X45401914Y-92374853D01*
X45401914Y-92374853D02*
X45544771Y-92660567D01*
X45544771Y-92660567D02*
X45544771Y-93231995D01*
X45544771Y-93231995D02*
X45687628Y-93517710D01*
X45687628Y-93517710D02*
X45830485Y-93660567D01*
X45830485Y-93660567D02*
X46116200Y-93803424D01*
X46116200Y-93803424D02*
X46687628Y-93803424D01*
X46687628Y-93803424D02*
X46973342Y-93660567D01*
X46973342Y-93660567D02*
X47116200Y-93517710D01*
X47116200Y-93517710D02*
X47259057Y-93231995D01*
X47259057Y-93231995D02*
X47259057Y-92660567D01*
X47259057Y-92660567D02*
X47116200Y-92374853D01*
X47116200Y-92374853D02*
X46973342Y-92231995D01*
X46973342Y-92231995D02*
X46687628Y-92089138D01*
X46687628Y-92089138D02*
X46116200Y-92089138D01*
X46116200Y-92089138D02*
X45830485Y-92231995D01*
X45830485Y-92231995D02*
X45687628Y-92374853D01*
X45687628Y-92374853D02*
X45544771Y-92660567D01*
X45544771Y-90374852D02*
X45401914Y-90660567D01*
X45401914Y-90660567D02*
X45259057Y-90803424D01*
X45259057Y-90803424D02*
X44973342Y-90946281D01*
X44973342Y-90946281D02*
X44830485Y-90946281D01*
X44830485Y-90946281D02*
X44544771Y-90803424D01*
X44544771Y-90803424D02*
X44401914Y-90660567D01*
X44401914Y-90660567D02*
X44259057Y-90374852D01*
X44259057Y-90374852D02*
X44259057Y-89803424D01*
X44259057Y-89803424D02*
X44401914Y-89517710D01*
X44401914Y-89517710D02*
X44544771Y-89374852D01*
X44544771Y-89374852D02*
X44830485Y-89231995D01*
X44830485Y-89231995D02*
X44973342Y-89231995D01*
X44973342Y-89231995D02*
X45259057Y-89374852D01*
X45259057Y-89374852D02*
X45401914Y-89517710D01*
X45401914Y-89517710D02*
X45544771Y-89803424D01*
X45544771Y-89803424D02*
X45544771Y-90374852D01*
X45544771Y-90374852D02*
X45687628Y-90660567D01*
X45687628Y-90660567D02*
X45830485Y-90803424D01*
X45830485Y-90803424D02*
X46116200Y-90946281D01*
X46116200Y-90946281D02*
X46687628Y-90946281D01*
X46687628Y-90946281D02*
X46973342Y-90803424D01*
X46973342Y-90803424D02*
X47116200Y-90660567D01*
X47116200Y-90660567D02*
X47259057Y-90374852D01*
X47259057Y-90374852D02*
X47259057Y-89803424D01*
X47259057Y-89803424D02*
X47116200Y-89517710D01*
X47116200Y-89517710D02*
X46973342Y-89374852D01*
X46973342Y-89374852D02*
X46687628Y-89231995D01*
X46687628Y-89231995D02*
X46116200Y-89231995D01*
X46116200Y-89231995D02*
X45830485Y-89374852D01*
X45830485Y-89374852D02*
X45687628Y-89517710D01*
X45687628Y-89517710D02*
X45544771Y-89803424D01*
X44259057Y-88231995D02*
X44259057Y-86374852D01*
X44259057Y-86374852D02*
X45401914Y-87374852D01*
X45401914Y-87374852D02*
X45401914Y-86946281D01*
X45401914Y-86946281D02*
X45544771Y-86660567D01*
X45544771Y-86660567D02*
X45687628Y-86517709D01*
X45687628Y-86517709D02*
X45973342Y-86374852D01*
X45973342Y-86374852D02*
X46687628Y-86374852D01*
X46687628Y-86374852D02*
X46973342Y-86517709D01*
X46973342Y-86517709D02*
X47116200Y-86660567D01*
X47116200Y-86660567D02*
X47259057Y-86946281D01*
X47259057Y-86946281D02*
X47259057Y-87803424D01*
X47259057Y-87803424D02*
X47116200Y-88089138D01*
X47116200Y-88089138D02*
X46973342Y-88231995D01*
X44259057Y-85374852D02*
X44259057Y-83517709D01*
X44259057Y-83517709D02*
X45401914Y-84517709D01*
X45401914Y-84517709D02*
X45401914Y-84089138D01*
X45401914Y-84089138D02*
X45544771Y-83803424D01*
X45544771Y-83803424D02*
X45687628Y-83660566D01*
X45687628Y-83660566D02*
X45973342Y-83517709D01*
X45973342Y-83517709D02*
X46687628Y-83517709D01*
X46687628Y-83517709D02*
X46973342Y-83660566D01*
X46973342Y-83660566D02*
X47116200Y-83803424D01*
X47116200Y-83803424D02*
X47259057Y-84089138D01*
X47259057Y-84089138D02*
X47259057Y-84946281D01*
X47259057Y-84946281D02*
X47116200Y-85231995D01*
X47116200Y-85231995D02*
X46973342Y-85374852D01*
%TO.C,J1*%
X85243800Y-97689200D02*
X85243800Y-105409200D01*
X85243800Y-105409200D02*
X89263800Y-105409200D01*
X85743800Y-98189200D02*
X86953800Y-98189200D01*
X85743800Y-104909200D02*
X85743800Y-98189200D01*
X86953800Y-98189200D02*
X86953800Y-97689200D01*
X86953800Y-104909200D02*
X85743800Y-104909200D01*
X86953800Y-105409200D02*
X86953800Y-104909200D01*
X87063800Y-105709200D02*
X89563800Y-105709200D01*
X87763800Y-97689200D02*
X87763800Y-98689200D01*
X87763800Y-98689200D02*
X89263800Y-98689200D01*
X87763800Y-104409200D02*
X89263800Y-104409200D01*
X87763800Y-105409200D02*
X87763800Y-104409200D01*
X89263800Y-97689200D02*
X85243800Y-97689200D01*
X89263800Y-105409200D02*
X89263800Y-97689200D01*
X89563800Y-105709200D02*
X89563800Y-103209200D01*
%TO.C,J10*%
X23780000Y-62080000D02*
X32320000Y-62080000D01*
X23780000Y-64150000D02*
X23780000Y-62080000D01*
X23780000Y-70320000D02*
X23780000Y-64750000D01*
X27400000Y-62080000D02*
X27400000Y-62670000D01*
X27400000Y-66230000D02*
X27400000Y-66551000D01*
X27400000Y-69349000D02*
X27400000Y-70320000D01*
X29599000Y-66550000D02*
X31500000Y-66550000D01*
X30280000Y-63050000D02*
X31500000Y-63050000D01*
X31500000Y-63050000D02*
X31500000Y-65850000D01*
X31500000Y-65850000D02*
X30280000Y-65850000D01*
X31500000Y-66550000D02*
X31500000Y-69350000D01*
X31500000Y-69350000D02*
X29599000Y-69350000D01*
X32320000Y-62080000D02*
X32320000Y-70320000D01*
X32320000Y-70320000D02*
X23780000Y-70320000D01*
X29978000Y-66958000D02*
G75*
G02*
X29978000Y-68942000I122469J-992000D01*
G01*
X30280000Y-63466000D02*
G75*
G02*
X30280000Y-65434000I-180400J-984000D01*
G01*
X23780000Y-64450000D02*
X23170000Y-64890000D01*
X23170000Y-64010000D01*
X23780000Y-64450000D01*
G36*
X23780000Y-64450000D02*
G01*
X23170000Y-64890000D01*
X23170000Y-64010000D01*
X23780000Y-64450000D01*
G37*
%TO.C,J13*%
X28211000Y-103699800D02*
X28211000Y-106459800D01*
X35941000Y-103699800D02*
X28211000Y-103699800D01*
X35941000Y-103699800D02*
X35941000Y-106459800D01*
X35941000Y-106459800D02*
X28211000Y-106459800D01*
X37211000Y-103699800D02*
X38591000Y-103699800D01*
X38591000Y-103699800D02*
X38591000Y-105079800D01*
%TO.C,U2*%
X34500000Y-75500000D02*
X51250000Y-75500000D01*
X51250000Y-56900000D01*
X34500000Y-56900000D01*
X34500000Y-75500000D01*
%TO.C,J3*%
X68330000Y-30590000D02*
X68330000Y-33090000D01*
X68330000Y-33090000D02*
X70830000Y-33090000D01*
X68630000Y-28770000D02*
X68630000Y-32790000D01*
X68630000Y-30480000D02*
X69130000Y-30480000D01*
X68630000Y-31290000D02*
X69630000Y-31290000D01*
X68630000Y-32790000D02*
X81350000Y-32790000D01*
X69130000Y-29270000D02*
X80850000Y-29270000D01*
X69130000Y-30480000D02*
X69130000Y-29270000D01*
X69630000Y-31290000D02*
X69630000Y-32790000D01*
X80350000Y-31290000D02*
X80350000Y-32790000D01*
X80850000Y-29270000D02*
X80850000Y-30480000D01*
X80850000Y-30480000D02*
X81350000Y-30480000D01*
X81350000Y-28770000D02*
X68630000Y-28770000D01*
X81350000Y-31290000D02*
X80350000Y-31290000D01*
X81350000Y-32790000D02*
X81350000Y-28770000D01*
%TO.C,R3*%
X86360000Y-31130000D02*
X86360000Y-31900000D01*
X86360000Y-39210000D02*
X86360000Y-38440000D01*
X87730000Y-31900000D02*
X84990000Y-31900000D01*
X84990000Y-38440000D01*
X87730000Y-38440000D01*
X87730000Y-31900000D01*
%TO.C,R4*%
X70383400Y-56920000D02*
X70383400Y-57690000D01*
X70383400Y-65000000D02*
X70383400Y-64230000D01*
X71753400Y-57690000D02*
X69013400Y-57690000D01*
X69013400Y-64230000D01*
X71753400Y-64230000D01*
X71753400Y-57690000D01*
%TO.C,J7*%
X34503200Y-46732600D02*
X34503200Y-50752600D01*
X34503200Y-48232600D02*
X35503200Y-48232600D01*
X34503200Y-50752600D02*
X47223200Y-50752600D01*
X35003200Y-49042600D02*
X34503200Y-49042600D01*
X35003200Y-50252600D02*
X35003200Y-49042600D01*
X35503200Y-48232600D02*
X35503200Y-46732600D01*
X46223200Y-48232600D02*
X46223200Y-46732600D01*
X46723200Y-49042600D02*
X46723200Y-50252600D01*
X46723200Y-50252600D02*
X35003200Y-50252600D01*
X47223200Y-46732600D02*
X34503200Y-46732600D01*
X47223200Y-48232600D02*
X46223200Y-48232600D01*
X47223200Y-49042600D02*
X46723200Y-49042600D01*
X47223200Y-50752600D02*
X47223200Y-46732600D01*
X47523200Y-46432600D02*
X45023200Y-46432600D01*
X47523200Y-48932600D02*
X47523200Y-46432600D01*
%TO.C,J5*%
X34503200Y-34469200D02*
X34503200Y-38489200D01*
X34503200Y-35969200D02*
X35503200Y-35969200D01*
X34503200Y-38489200D02*
X47223200Y-38489200D01*
X35003200Y-36779200D02*
X34503200Y-36779200D01*
X35003200Y-37989200D02*
X35003200Y-36779200D01*
X35503200Y-35969200D02*
X35503200Y-34469200D01*
X46223200Y-35969200D02*
X46223200Y-34469200D01*
X46723200Y-36779200D02*
X46723200Y-37989200D01*
X46723200Y-37989200D02*
X35003200Y-37989200D01*
X47223200Y-34469200D02*
X34503200Y-34469200D01*
X47223200Y-35969200D02*
X46223200Y-35969200D01*
X47223200Y-36779200D02*
X46723200Y-36779200D01*
X47223200Y-38489200D02*
X47223200Y-34469200D01*
X47523200Y-34169200D02*
X45023200Y-34169200D01*
X47523200Y-36669200D02*
X47523200Y-34169200D01*
%TO.C,J4*%
X53090000Y-30590000D02*
X53090000Y-33090000D01*
X53090000Y-33090000D02*
X55590000Y-33090000D01*
X53390000Y-28770000D02*
X53390000Y-32790000D01*
X53390000Y-30480000D02*
X53890000Y-30480000D01*
X53390000Y-31290000D02*
X54390000Y-31290000D01*
X53390000Y-32790000D02*
X66110000Y-32790000D01*
X53890000Y-29270000D02*
X65610000Y-29270000D01*
X53890000Y-30480000D02*
X53890000Y-29270000D01*
X54390000Y-31290000D02*
X54390000Y-32790000D01*
X65110000Y-31290000D02*
X65110000Y-32790000D01*
X65610000Y-29270000D02*
X65610000Y-30480000D01*
X65610000Y-30480000D02*
X66110000Y-30480000D01*
X66110000Y-28770000D02*
X53390000Y-28770000D01*
X66110000Y-31290000D02*
X65110000Y-31290000D01*
X66110000Y-32790000D02*
X66110000Y-28770000D01*
%TO.C,R1*%
X76327000Y-51840000D02*
X76327000Y-52610000D01*
X76327000Y-59920000D02*
X76327000Y-59150000D01*
X77697000Y-52610000D02*
X74957000Y-52610000D01*
X74957000Y-59150000D01*
X77697000Y-59150000D01*
X77697000Y-52610000D01*
%TO.C,J6*%
X84943800Y-79335200D02*
X84943800Y-81835200D01*
X85243800Y-79635200D02*
X85243800Y-87355200D01*
X85243800Y-87355200D02*
X89263800Y-87355200D01*
X86743800Y-79635200D02*
X86743800Y-80635200D01*
X86743800Y-80635200D02*
X85243800Y-80635200D01*
X86743800Y-86355200D02*
X85243800Y-86355200D01*
X86743800Y-87355200D02*
X86743800Y-86355200D01*
X87443800Y-79335200D02*
X84943800Y-79335200D01*
X87553800Y-79635200D02*
X87553800Y-80135200D01*
X87553800Y-80135200D02*
X88763800Y-80135200D01*
X87553800Y-86855200D02*
X87553800Y-87355200D01*
X88763800Y-80135200D02*
X88763800Y-86855200D01*
X88763800Y-86855200D02*
X87553800Y-86855200D01*
X89263800Y-79635200D02*
X85243800Y-79635200D01*
X89263800Y-87355200D02*
X89263800Y-79635200D01*
%TO.C,U3*%
X34652200Y-98203800D02*
X51402200Y-98203800D01*
X51402200Y-79603800D01*
X34652200Y-79603800D01*
X34652200Y-98203800D01*
%TO.C,R5*%
X67411600Y-60450600D02*
X67411600Y-61220600D01*
X67411600Y-68530600D02*
X67411600Y-67760600D01*
X68781600Y-61220600D02*
X66041600Y-61220600D01*
X66041600Y-67760600D01*
X68781600Y-67760600D01*
X68781600Y-61220600D01*
%TO.C,J8*%
X23932200Y-84783800D02*
X32472200Y-84783800D01*
X23932200Y-86853800D02*
X23932200Y-84783800D01*
X23932200Y-93023800D02*
X23932200Y-87453800D01*
X27552200Y-84783800D02*
X27552200Y-85373800D01*
X27552200Y-88933800D02*
X27552200Y-89254800D01*
X27552200Y-92052800D02*
X27552200Y-93023800D01*
X29751200Y-89253800D02*
X31652200Y-89253800D01*
X30432200Y-85753800D02*
X31652200Y-85753800D01*
X31652200Y-85753800D02*
X31652200Y-88553800D01*
X31652200Y-88553800D02*
X30432200Y-88553800D01*
X31652200Y-89253800D02*
X31652200Y-92053800D01*
X31652200Y-92053800D02*
X29751200Y-92053800D01*
X32472200Y-84783800D02*
X32472200Y-93023800D01*
X32472200Y-93023800D02*
X23932200Y-93023800D01*
X30130200Y-89661800D02*
G75*
G02*
X30130200Y-91645800I122469J-992000D01*
G01*
X30432200Y-86169800D02*
G75*
G02*
X30432200Y-88137800I-180400J-984000D01*
G01*
X23932200Y-87153800D02*
X23322200Y-87593800D01*
X23322200Y-86713800D01*
X23932200Y-87153800D01*
G36*
X23932200Y-87153800D02*
G01*
X23322200Y-87593800D01*
X23322200Y-86713800D01*
X23932200Y-87153800D01*
G37*
%TO.C,J12*%
X49870000Y-99680000D02*
X49870000Y-108220000D01*
X41630000Y-99680000D02*
X49870000Y-99680000D01*
X48900000Y-100500000D02*
X48900000Y-102401000D01*
X46100000Y-100500000D02*
X48900000Y-100500000D01*
X45400000Y-100500000D02*
X45400000Y-101720000D01*
X42600000Y-100500000D02*
X45400000Y-100500000D01*
X42600000Y-101720000D02*
X42600000Y-100500000D01*
X46100000Y-102401000D02*
X46100000Y-100500000D01*
X48899000Y-104600000D02*
X49870000Y-104600000D01*
X45780000Y-104600000D02*
X46101000Y-104600000D01*
X41630000Y-104600000D02*
X42220000Y-104600000D01*
X49870000Y-108220000D02*
X44300000Y-108220000D01*
X43700000Y-108220000D02*
X41630000Y-108220000D01*
X41630000Y-108220000D02*
X41630000Y-99680000D01*
X43016000Y-101720000D02*
G75*
G02*
X44984000Y-101720000I984000J-180400D01*
G01*
X46508000Y-102022000D02*
G75*
G02*
X48492000Y-102022000I992000J122469D01*
G01*
X44440000Y-108830000D02*
X43560000Y-108830000D01*
X44000000Y-108220000D01*
X44440000Y-108830000D01*
G36*
X44440000Y-108830000D02*
G01*
X43560000Y-108830000D01*
X44000000Y-108220000D01*
X44440000Y-108830000D01*
G37*
%TO.C,R2*%
X73279000Y-54380000D02*
X73279000Y-55150000D01*
X73279000Y-62460000D02*
X73279000Y-61690000D01*
X74649000Y-55150000D02*
X71909000Y-55150000D01*
X71909000Y-61690000D01*
X74649000Y-61690000D01*
X74649000Y-55150000D01*
%TO.C,J9*%
X23677200Y-50441800D02*
X32217200Y-50441800D01*
X23677200Y-52511800D02*
X23677200Y-50441800D01*
X23677200Y-58681800D02*
X23677200Y-53111800D01*
X27297200Y-50441800D02*
X27297200Y-51031800D01*
X27297200Y-54591800D02*
X27297200Y-54912800D01*
X27297200Y-57710800D02*
X27297200Y-58681800D01*
X29496200Y-54911800D02*
X31397200Y-54911800D01*
X30177200Y-51411800D02*
X31397200Y-51411800D01*
X31397200Y-51411800D02*
X31397200Y-54211800D01*
X31397200Y-54211800D02*
X30177200Y-54211800D01*
X31397200Y-54911800D02*
X31397200Y-57711800D01*
X31397200Y-57711800D02*
X29496200Y-57711800D01*
X32217200Y-50441800D02*
X32217200Y-58681800D01*
X32217200Y-58681800D02*
X23677200Y-58681800D01*
X29875200Y-55319800D02*
G75*
G02*
X29875200Y-57303800I122469J-992000D01*
G01*
X30177200Y-51827800D02*
G75*
G02*
X30177200Y-53795800I-180400J-984000D01*
G01*
X23677200Y-52811800D02*
X23067200Y-53251800D01*
X23067200Y-52371800D01*
X23677200Y-52811800D01*
G36*
X23677200Y-52811800D02*
G01*
X23067200Y-53251800D01*
X23067200Y-52371800D01*
X23677200Y-52811800D01*
G37*
%TO.C,J2*%
X34503200Y-40819200D02*
X34503200Y-44839200D01*
X34503200Y-42319200D02*
X35503200Y-42319200D01*
X34503200Y-44839200D02*
X47223200Y-44839200D01*
X35003200Y-43129200D02*
X34503200Y-43129200D01*
X35003200Y-44339200D02*
X35003200Y-43129200D01*
X35503200Y-42319200D02*
X35503200Y-40819200D01*
X46223200Y-42319200D02*
X46223200Y-40819200D01*
X46723200Y-43129200D02*
X46723200Y-44339200D01*
X46723200Y-44339200D02*
X35003200Y-44339200D01*
X47223200Y-40819200D02*
X34503200Y-40819200D01*
X47223200Y-42319200D02*
X46223200Y-42319200D01*
X47223200Y-43129200D02*
X46723200Y-43129200D01*
X47223200Y-44839200D02*
X47223200Y-40819200D01*
X47523200Y-40519200D02*
X45023200Y-40519200D01*
X47523200Y-43019200D02*
X47523200Y-40519200D01*
%TO.C,R6*%
X90340000Y-31130000D02*
X90340000Y-31900000D01*
X90340000Y-39210000D02*
X90340000Y-38440000D01*
X91710000Y-31900000D02*
X88970000Y-31900000D01*
X88970000Y-38440000D01*
X91710000Y-38440000D01*
X91710000Y-31900000D01*
%TO.C,U4*%
X54300000Y-42760000D02*
X82700000Y-42760000D01*
X54300000Y-105500000D02*
X54300000Y-42760000D01*
X82700000Y-42760000D02*
X82700000Y-105500000D01*
X82700000Y-105500000D02*
X54300000Y-105500000D01*
X57000000Y-99130000D02*
X66000000Y-99130000D01*
X66000000Y-105130000D01*
X57000000Y-105130000D01*
X57000000Y-99130000D01*
X70500000Y-99130000D02*
X79500000Y-99130000D01*
X79500000Y-105130000D01*
X70500000Y-105130000D01*
X70500000Y-99130000D01*
X53384000Y-44158000D02*
G75*
G02*
X53184000Y-44158000I-100000J0D01*
G01*
X53184000Y-44158000D02*
G75*
G02*
X53384000Y-44158000I100000J0D01*
G01*
%TD*%
M02*
