%TF.GenerationSoftware,KiCad,Pcbnew,9.0.4*%
%TF.CreationDate,2025-12-18T14:29:27-05:00*%
%TF.ProjectId,TurtleBot_PCB,54757274-6c65-4426-9f74-5f5043422e6b,rev?*%
%TF.SameCoordinates,Original*%
%TF.FileFunction,Plated,1,2,PTH,Drill*%
%TF.FilePolarity,Positive*%
%FSLAX46Y46*%
G04 Gerber Fmt 4.6, Leading zero omitted, Abs format (unit mm)*
G04 Created by KiCad (PCBNEW 9.0.4) date 2025-12-18 14:29:27*
%MOMM*%
%LPD*%
G01*
G04 APERTURE LIST*
%TA.AperFunction,ComponentDrill*%
%ADD10C,0.762000*%
%TD*%
%TA.AperFunction,ComponentDrill*%
%ADD11C,0.800000*%
%TD*%
%TA.AperFunction,ComponentDrill*%
%ADD12C,0.950000*%
%TD*%
%TA.AperFunction,ComponentDrill*%
%ADD13C,1.000000*%
%TD*%
%TA.AperFunction,ComponentDrill*%
%ADD14C,1.020000*%
%TD*%
%TA.AperFunction,ComponentDrill*%
%ADD15C,1.300000*%
%TD*%
G04 APERTURE END LIST*
D10*
%TO.C,U2*%
X36500000Y-58500000D03*
X36500000Y-74000000D03*
%TO.C,U3*%
X36652200Y-81203800D03*
X36652200Y-96703800D03*
%TO.C,U2*%
X39000000Y-58500000D03*
X39000000Y-74000000D03*
%TO.C,U3*%
X39152200Y-81203800D03*
X39152200Y-96703800D03*
%TO.C,U2*%
X41500000Y-58500000D03*
X41500000Y-74000000D03*
%TO.C,U3*%
X41652200Y-81203800D03*
X41652200Y-96703800D03*
%TO.C,U2*%
X44000000Y-58500000D03*
X44000000Y-74000000D03*
%TO.C,U3*%
X44152200Y-81203800D03*
X44152200Y-96703800D03*
%TO.C,U2*%
X46500000Y-58500000D03*
X46500000Y-74000000D03*
%TO.C,U3*%
X46652200Y-81203800D03*
X46652200Y-96703800D03*
%TO.C,U2*%
X49000000Y-58500000D03*
X49000000Y-74000000D03*
%TO.C,U3*%
X49152200Y-81203800D03*
X49152200Y-96703800D03*
D11*
%TO.C,R5*%
X67411600Y-59410600D03*
X67411600Y-69570600D03*
%TO.C,R4*%
X70383400Y-55880000D03*
X70383400Y-66040000D03*
%TO.C,R2*%
X73279000Y-53340000D03*
X73279000Y-63500000D03*
%TO.C,R1*%
X76327000Y-50800000D03*
X76327000Y-60960000D03*
%TO.C,R3*%
X86360000Y-30090000D03*
X86360000Y-40250000D03*
%TO.C,R6*%
X90340000Y-30090000D03*
X90340000Y-40250000D03*
D12*
%TO.C,J5*%
X37113200Y-36779200D03*
%TO.C,J2*%
X37113200Y-43129200D03*
%TO.C,J7*%
X37113200Y-49042600D03*
%TO.C,J5*%
X39613200Y-36779200D03*
%TO.C,J2*%
X39613200Y-43129200D03*
%TO.C,J7*%
X39613200Y-49042600D03*
%TO.C,J5*%
X42113200Y-36779200D03*
%TO.C,J2*%
X42113200Y-43129200D03*
%TO.C,J7*%
X42113200Y-49042600D03*
%TO.C,J5*%
X44613200Y-36779200D03*
%TO.C,J2*%
X44613200Y-43129200D03*
%TO.C,J7*%
X44613200Y-49042600D03*
%TO.C,J4*%
X56000000Y-30480000D03*
X58500000Y-30480000D03*
X61000000Y-30480000D03*
X63500000Y-30480000D03*
%TO.C,J3*%
X71240000Y-30480000D03*
X73740000Y-30480000D03*
X76240000Y-30480000D03*
X78740000Y-30480000D03*
D13*
%TO.C,J13*%
X29591000Y-105079800D03*
X32131000Y-105079800D03*
X34671000Y-105079800D03*
X37211000Y-105079800D03*
%TO.C,J1*%
X86953800Y-100299200D03*
X86953800Y-102799200D03*
%TO.C,J6*%
X87553800Y-82245200D03*
X87553800Y-84745200D03*
D14*
%TO.C,U4*%
X55570000Y-44160000D03*
X55570000Y-46700000D03*
X55570000Y-49240000D03*
X55570000Y-51780000D03*
X55570000Y-54320000D03*
X55570000Y-56860000D03*
X55570000Y-59400000D03*
X55570000Y-61940000D03*
X55570000Y-64480000D03*
X55570000Y-67020000D03*
X55570000Y-69560000D03*
X55570000Y-72100000D03*
X55570000Y-74640000D03*
X55570000Y-77180000D03*
X55570000Y-79720000D03*
X55570000Y-82260000D03*
X55570000Y-84800000D03*
X55570000Y-87340000D03*
X55570000Y-89880000D03*
X55570000Y-92420000D03*
X55570000Y-94960000D03*
X55570000Y-97500000D03*
X81000000Y-44160000D03*
X81000000Y-46700000D03*
X81000000Y-49240000D03*
X81000000Y-51780000D03*
X81000000Y-54320000D03*
X81000000Y-56860000D03*
X81000000Y-59400000D03*
X81000000Y-61940000D03*
X81000000Y-64480000D03*
X81000000Y-67020000D03*
X81000000Y-69560000D03*
X81000000Y-72100000D03*
X81000000Y-74640000D03*
X81000000Y-77180000D03*
X81000000Y-79720000D03*
X81000000Y-82260000D03*
X81000000Y-84800000D03*
X81000000Y-87340000D03*
X81000000Y-89880000D03*
X81000000Y-92420000D03*
X81000000Y-94960000D03*
X81000000Y-97500000D03*
D15*
%TO.C,J9*%
X28397200Y-52811800D03*
X28397200Y-56311800D03*
%TO.C,J10*%
X28500000Y-64450000D03*
X28500000Y-67950000D03*
%TO.C,J8*%
X28652200Y-87153800D03*
X28652200Y-90653800D03*
%TO.C,J12*%
X44000000Y-103500000D03*
X47500000Y-103500000D03*
M02*
