%TF.GenerationSoftware,KiCad,Pcbnew,9.0.4*%
%TF.CreationDate,2025-12-18T14:29:10-05:00*%
%TF.ProjectId,TurtleBot_PCB,54757274-6c65-4426-9f74-5f5043422e6b,rev?*%
%TF.SameCoordinates,Original*%
%TF.FileFunction,Copper,L1,Top*%
%TF.FilePolarity,Positive*%
%FSLAX46Y46*%
G04 Gerber Fmt 4.6, Leading zero omitted, Abs format (unit mm)*
G04 Created by KiCad (PCBNEW 9.0.4) date 2025-12-18 14:29:10*
%MOMM*%
%LPD*%
G01*
G04 APERTURE LIST*
G04 Aperture macros list*
%AMRoundRect*
0 Rectangle with rounded corners*
0 $1 Rounding radius*
0 $2 $3 $4 $5 $6 $7 $8 $9 X,Y pos of 4 corners*
0 Add a 4 corners polygon primitive as box body*
4,1,4,$2,$3,$4,$5,$6,$7,$8,$9,$2,$3,0*
0 Add four circle primitives for the rounded corners*
1,1,$1+$1,$2,$3*
1,1,$1+$1,$4,$5*
1,1,$1+$1,$6,$7*
1,1,$1+$1,$8,$9*
0 Add four rect primitives between the rounded corners*
20,1,$1+$1,$2,$3,$4,$5,0*
20,1,$1+$1,$4,$5,$6,$7,0*
20,1,$1+$1,$6,$7,$8,$9,0*
20,1,$1+$1,$8,$9,$2,$3,0*%
G04 Aperture macros list end*
%TA.AperFunction,ComponentPad*%
%ADD10RoundRect,0.250000X0.750000X-0.600000X0.750000X0.600000X-0.750000X0.600000X-0.750000X-0.600000X0*%
%TD*%
%TA.AperFunction,ComponentPad*%
%ADD11O,2.000000X1.700000*%
%TD*%
%TA.AperFunction,ComponentPad*%
%ADD12RoundRect,0.250000X-1.050000X1.050000X-1.050000X-1.050000X1.050000X-1.050000X1.050000X1.050000X0*%
%TD*%
%TA.AperFunction,ComponentPad*%
%ADD13C,2.600000*%
%TD*%
%TA.AperFunction,ComponentPad*%
%ADD14R,1.700000X1.700000*%
%TD*%
%TA.AperFunction,ComponentPad*%
%ADD15C,1.700000*%
%TD*%
%TA.AperFunction,ComponentPad*%
%ADD16RoundRect,0.250000X-0.600000X-0.725000X0.600000X-0.725000X0.600000X0.725000X-0.600000X0.725000X0*%
%TD*%
%TA.AperFunction,ComponentPad*%
%ADD17O,1.700000X1.950000*%
%TD*%
%TA.AperFunction,ComponentPad*%
%ADD18C,1.600000*%
%TD*%
%TA.AperFunction,ComponentPad*%
%ADD19RoundRect,0.250000X0.600000X0.725000X-0.600000X0.725000X-0.600000X-0.725000X0.600000X-0.725000X0*%
%TD*%
%TA.AperFunction,ComponentPad*%
%ADD20RoundRect,0.250000X-0.750000X0.600000X-0.750000X-0.600000X0.750000X-0.600000X0.750000X0.600000X0*%
%TD*%
%TA.AperFunction,ComponentPad*%
%ADD21RoundRect,0.250000X-1.050000X-1.050000X1.050000X-1.050000X1.050000X1.050000X-1.050000X1.050000X0*%
%TD*%
%TA.AperFunction,ComponentPad*%
%ADD22R,1.530000X1.530000*%
%TD*%
%TA.AperFunction,ComponentPad*%
%ADD23C,1.530000*%
%TD*%
%TA.AperFunction,Conductor*%
%ADD24C,0.500000*%
%TD*%
G04 APERTURE END LIST*
D10*
%TO.P,J1,1,Pin_1*%
%TO.N,Net-(J1-Pin_1)*%
X86953800Y-102799200D03*
D11*
%TO.P,J1,2,Pin_2*%
%TO.N,Net-(J1-Pin_2)*%
X86953800Y-100299200D03*
%TD*%
D12*
%TO.P,J10,1,Pin_1*%
%TO.N,/a2*%
X28500000Y-64450000D03*
D13*
%TO.P,J10,2,Pin_2*%
%TO.N,/a1*%
X28500000Y-67950000D03*
%TD*%
D14*
%TO.P,J13,1,Pin_1*%
%TO.N,+5V*%
X37211000Y-105079800D03*
D15*
%TO.P,J13,2,Pin_2*%
X34671000Y-105079800D03*
%TO.P,J13,3,Pin_3*%
%TO.N,GND*%
X32131000Y-105079800D03*
%TO.P,J13,4,Pin_4*%
X29591000Y-105079800D03*
%TD*%
%TO.P,U2,1,EEP*%
%TO.N,/EEP*%
X36500000Y-74000000D03*
%TO.P,U2,2,OUT1*%
%TO.N,/a1*%
X39000000Y-74000000D03*
%TO.P,U2,3,OUT2*%
%TO.N,/a2*%
X41500000Y-74000000D03*
%TO.P,U2,4,OUT3*%
%TO.N,/a1*%
X44000000Y-74000000D03*
%TO.P,U2,5,OUT4*%
%TO.N,/a2*%
X46500000Y-74000000D03*
%TO.P,U2,6,ULT*%
%TO.N,unconnected-(U2-ULT-Pad6)*%
X49000000Y-74000000D03*
%TO.P,U2,7,IN1*%
%TO.N,/Mot1A*%
X36500000Y-58500000D03*
%TO.P,U2,8,IN2*%
%TO.N,/Mot1B*%
X39000000Y-58500000D03*
%TO.P,U2,9,GND*%
%TO.N,GND*%
X41500000Y-58500000D03*
%TO.P,U2,10,VCC*%
%TO.N,+M_in*%
X44000000Y-58500000D03*
%TO.P,U2,11,IN3*%
%TO.N,/Mot1A*%
X46500000Y-58500000D03*
%TO.P,U2,12,IN4*%
%TO.N,/Mot1B*%
X49000000Y-58500000D03*
%TD*%
D16*
%TO.P,J3,1,Pin_1*%
%TO.N,GND*%
X71240000Y-30480000D03*
D17*
%TO.P,J3,2,Pin_2*%
%TO.N,Net-(J3-Pin_2)*%
X73740000Y-30480000D03*
%TO.P,J3,3,Pin_3*%
%TO.N,/ENC1B*%
X76240000Y-30480000D03*
%TO.P,J3,4,Pin_4*%
%TO.N,/ENC1A*%
X78740000Y-30480000D03*
%TD*%
D18*
%TO.P,R3,1*%
%TO.N,Net-(J3-Pin_2)*%
X86360000Y-30090000D03*
%TO.P,R3,2*%
%TO.N,VCC*%
X86360000Y-40250000D03*
%TD*%
%TO.P,R4,1*%
%TO.N,/ENC2A*%
X70383400Y-55880000D03*
%TO.P,R4,2*%
%TO.N,VCC*%
X70383400Y-66040000D03*
%TD*%
D19*
%TO.P,J7,1,Pin_1*%
%TO.N,/Curr*%
X44613200Y-49042600D03*
D17*
%TO.P,J7,2,Pin_2*%
%TO.N,/Volt*%
X42113200Y-49042600D03*
%TO.P,J7,3,Pin_3*%
%TO.N,GND*%
X39613200Y-49042600D03*
%TO.P,J7,4,Pin_4*%
%TO.N,VCC*%
X37113200Y-49042600D03*
%TD*%
D19*
%TO.P,J5,1,Pin_1*%
%TO.N,/SDA*%
X44613200Y-36779200D03*
D17*
%TO.P,J5,2,Pin_2*%
%TO.N,/SCL*%
X42113200Y-36779200D03*
%TO.P,J5,3,Pin_3*%
%TO.N,GND*%
X39613200Y-36779200D03*
%TO.P,J5,4,Pin_4*%
%TO.N,VCC*%
X37113200Y-36779200D03*
%TD*%
D16*
%TO.P,J4,1,Pin_1*%
%TO.N,GND*%
X56000000Y-30480000D03*
D17*
%TO.P,J4,2,Pin_2*%
%TO.N,Net-(J4-Pin_2)*%
X58500000Y-30480000D03*
%TO.P,J4,3,Pin_3*%
%TO.N,/ENC2B*%
X61000000Y-30480000D03*
%TO.P,J4,4,Pin_4*%
%TO.N,/ENC2A*%
X63500000Y-30480000D03*
%TD*%
D18*
%TO.P,R1,1*%
%TO.N,/ENC1A*%
X76327000Y-50800000D03*
%TO.P,R1,2*%
%TO.N,VCC*%
X76327000Y-60960000D03*
%TD*%
D20*
%TO.P,J6,1,Pin_1*%
%TO.N,/NeoPixel*%
X87553800Y-82245200D03*
D11*
%TO.P,J6,2,Pin_2*%
%TO.N,GND*%
X87553800Y-84745200D03*
%TD*%
D15*
%TO.P,U3,1,EEP*%
%TO.N,/EEP*%
X36652200Y-96703800D03*
%TO.P,U3,2,OUT1*%
%TO.N,/b1*%
X39152200Y-96703800D03*
%TO.P,U3,3,OUT2*%
%TO.N,/b2*%
X41652200Y-96703800D03*
%TO.P,U3,4,OUT3*%
%TO.N,/b1*%
X44152200Y-96703800D03*
%TO.P,U3,5,OUT4*%
%TO.N,/b2*%
X46652200Y-96703800D03*
%TO.P,U3,6,ULT*%
%TO.N,unconnected-(U3-ULT-Pad6)*%
X49152200Y-96703800D03*
%TO.P,U3,7,IN1*%
%TO.N,/Mot2A*%
X36652200Y-81203800D03*
%TO.P,U3,8,IN2*%
%TO.N,/Mot2B*%
X39152200Y-81203800D03*
%TO.P,U3,9,GND*%
%TO.N,GND*%
X41652200Y-81203800D03*
%TO.P,U3,10,VCC*%
%TO.N,+M_in*%
X44152200Y-81203800D03*
%TO.P,U3,11,IN3*%
%TO.N,/Mot2A*%
X46652200Y-81203800D03*
%TO.P,U3,12,IN4*%
%TO.N,/Mot2B*%
X49152200Y-81203800D03*
%TD*%
D18*
%TO.P,R5,1*%
%TO.N,/ENC2B*%
X67411600Y-59410600D03*
%TO.P,R5,2*%
%TO.N,VCC*%
X67411600Y-69570600D03*
%TD*%
D12*
%TO.P,J8,1,Pin_1*%
%TO.N,/b2*%
X28652200Y-87153800D03*
D13*
%TO.P,J8,2,Pin_2*%
%TO.N,/b1*%
X28652200Y-90653800D03*
%TD*%
D21*
%TO.P,J12,1,Pin_1*%
%TO.N,GND*%
X44000000Y-103500000D03*
D13*
%TO.P,J12,2,Pin_2*%
%TO.N,+5V*%
X47500000Y-103500000D03*
%TD*%
D18*
%TO.P,R2,1*%
%TO.N,/ENC1B*%
X73279000Y-53340000D03*
%TO.P,R2,2*%
%TO.N,VCC*%
X73279000Y-63500000D03*
%TD*%
D12*
%TO.P,J9,1,Pin_1*%
%TO.N,GND*%
X28397200Y-52811800D03*
D13*
%TO.P,J9,2,Pin_2*%
%TO.N,+M_in*%
X28397200Y-56311800D03*
%TD*%
D19*
%TO.P,J2,1,Pin_1*%
%TO.N,/SDA*%
X44613200Y-43129200D03*
D17*
%TO.P,J2,2,Pin_2*%
%TO.N,/SCL*%
X42113200Y-43129200D03*
%TO.P,J2,3,Pin_3*%
%TO.N,GND*%
X39613200Y-43129200D03*
%TO.P,J2,4,Pin_4*%
%TO.N,VCC*%
X37113200Y-43129200D03*
%TD*%
D18*
%TO.P,R6,1*%
%TO.N,Net-(J4-Pin_2)*%
X90340000Y-30090000D03*
%TO.P,R6,2*%
%TO.N,VCC*%
X90340000Y-40250000D03*
%TD*%
D22*
%TO.P,U4,J1_1,3V3*%
%TO.N,VCC*%
X55570000Y-44160000D03*
D23*
%TO.P,U4,J1_2,3V3*%
X55570000Y-46700000D03*
%TO.P,U4,J1_3,RST*%
%TO.N,unconnected-(U4-RST-PadJ1_3)*%
X55570000Y-49240000D03*
%TO.P,U4,J1_4,GPIO4*%
%TO.N,/ENC1A*%
X55570000Y-51780000D03*
%TO.P,U4,J1_5,GPIO5*%
%TO.N,/ENC1B*%
X55570000Y-54320000D03*
%TO.P,U4,J1_6,GPIO6*%
%TO.N,/ENC2A*%
X55570000Y-56860000D03*
%TO.P,U4,J1_7,GPIO7*%
%TO.N,/ENC2B*%
X55570000Y-59400000D03*
%TO.P,U4,J1_8,GPIO15*%
%TO.N,/Volt*%
X55570000Y-61940000D03*
%TO.P,U4,J1_9,GPIO16*%
%TO.N,/Curr*%
X55570000Y-64480000D03*
%TO.P,U4,J1_10,GPIO17*%
%TO.N,Net-(J1-Pin_2)*%
X55570000Y-67020000D03*
%TO.P,U4,J1_11,GPIO18*%
%TO.N,Net-(J1-Pin_1)*%
X55570000Y-69560000D03*
%TO.P,U4,J1_12,GPIO8*%
%TO.N,/Mot1A*%
X55570000Y-72100000D03*
%TO.P,U4,J1_13,GPIO3*%
%TO.N,unconnected-(U4-GPIO3-PadJ1_13)*%
X55570000Y-74640000D03*
%TO.P,U4,J1_14,GPIO46*%
%TO.N,unconnected-(U4-GPIO46-PadJ1_14)*%
X55570000Y-77180000D03*
%TO.P,U4,J1_15,GPIO9*%
%TO.N,/Mot1B*%
X55570000Y-79720000D03*
%TO.P,U4,J1_16,GPIO10*%
%TO.N,/Mot2A*%
X55570000Y-82260000D03*
%TO.P,U4,J1_17,GPIO11*%
%TO.N,/Mot2B*%
X55570000Y-84800000D03*
%TO.P,U4,J1_18,GPIO12*%
%TO.N,/EEP*%
X55570000Y-87340000D03*
%TO.P,U4,J1_19,GPIO13*%
%TO.N,/SDA*%
X55570000Y-89880000D03*
%TO.P,U4,J1_20,GPIO14*%
%TO.N,/SCL*%
X55570000Y-92420000D03*
%TO.P,U4,J1_21,5V0*%
%TO.N,+5V*%
X55570000Y-94960000D03*
%TO.P,U4,J1_22,GND*%
%TO.N,GND*%
X55570000Y-97500000D03*
%TO.P,U4,J3_1,GND*%
X81000000Y-44160000D03*
%TO.P,U4,J3_2,U0TXD/GPIO43*%
%TO.N,unconnected-(U4-U0TXD{slash}GPIO43-PadJ3_2)*%
X81000000Y-46700000D03*
%TO.P,U4,J3_3,U0RXD/GPIO44*%
%TO.N,unconnected-(U4-U0RXD{slash}GPIO44-PadJ3_3)*%
X81000000Y-49240000D03*
%TO.P,U4,J3_4,GPIO1*%
%TO.N,unconnected-(U4-GPIO1-PadJ3_4)*%
X81000000Y-51780000D03*
%TO.P,U4,J3_5,GPIO2*%
%TO.N,unconnected-(U4-GPIO2-PadJ3_5)*%
X81000000Y-54320000D03*
%TO.P,U4,J3_6,MTMS/GPIO42*%
%TO.N,unconnected-(U4-MTMS{slash}GPIO42-PadJ3_6)*%
X81000000Y-56860000D03*
%TO.P,U4,J3_7,MTDI/GPIO41*%
%TO.N,unconnected-(U4-MTDI{slash}GPIO41-PadJ3_7)*%
X81000000Y-59400000D03*
%TO.P,U4,J3_8,MTDO/GPIO40*%
%TO.N,unconnected-(U4-MTDO{slash}GPIO40-PadJ3_8)*%
X81000000Y-61940000D03*
%TO.P,U4,J3_9,MTCK/GPIO39*%
%TO.N,unconnected-(U4-MTCK{slash}GPIO39-PadJ3_9)*%
X81000000Y-64480000D03*
%TO.P,U4,J3_10,GPIO38*%
%TO.N,unconnected-(U4-GPIO38-PadJ3_10)*%
X81000000Y-67020000D03*
%TO.P,U4,J3_11,GPIO37*%
%TO.N,unconnected-(U4-GPIO37-PadJ3_11)*%
X81000000Y-69560000D03*
%TO.P,U4,J3_12,GPIO36*%
%TO.N,unconnected-(U4-GPIO36-PadJ3_12)*%
X81000000Y-72100000D03*
%TO.P,U4,J3_13,GPIO35*%
%TO.N,unconnected-(U4-GPIO35-PadJ3_13)*%
X81000000Y-74640000D03*
%TO.P,U4,J3_14,GPIO0*%
%TO.N,unconnected-(U4-GPIO0-PadJ3_14)*%
X81000000Y-77180000D03*
%TO.P,U4,J3_15,GPIO45*%
%TO.N,unconnected-(U4-GPIO45-PadJ3_15)*%
X81000000Y-79720000D03*
%TO.P,U4,J3_16,GPIO48*%
%TO.N,/NeoPixel*%
X81000000Y-82260000D03*
%TO.P,U4,J3_17,GPIO47*%
%TO.N,unconnected-(U4-GPIO47-PadJ3_17)*%
X81000000Y-84800000D03*
%TO.P,U4,J3_18,GPIO21*%
%TO.N,unconnected-(U4-GPIO21-PadJ3_18)*%
X81000000Y-87340000D03*
%TO.P,U4,J3_19,USB_D+/GPIO20*%
%TO.N,unconnected-(U4-USB_D+{slash}GPIO20-PadJ3_19)*%
X81000000Y-89880000D03*
%TO.P,U4,J3_20,USB_D-/GPIO19*%
%TO.N,unconnected-(U4-USB_D-{slash}GPIO19-PadJ3_20)*%
X81000000Y-92420000D03*
%TO.P,U4,J3_21,GND*%
%TO.N,GND*%
X81000000Y-94960000D03*
%TO.P,U4,J3_22,GND*%
X81000000Y-97500000D03*
%TD*%
D24*
%TO.N,/Mot2A*%
X36652200Y-79674759D02*
X36652200Y-81203800D01*
X53179663Y-82260000D02*
X48872263Y-77952600D01*
X48872263Y-77952600D02*
X38374359Y-77952600D01*
X55570000Y-82260000D02*
X53179663Y-82260000D01*
X38374359Y-77952600D02*
X36652200Y-79674759D01*
%TO.N,+M_in*%
X42500000Y-54500000D02*
X44000000Y-56000000D01*
X44000000Y-56000000D02*
X44000000Y-58500000D01*
X33500000Y-54500000D02*
X42500000Y-54500000D01*
X29750400Y-56000000D02*
X32000000Y-56000000D01*
X32000000Y-56000000D02*
X33500000Y-54500000D01*
X29438600Y-56311800D02*
X29750400Y-56000000D01*
%TO.N,/b1*%
X43181900Y-98841400D02*
X44152200Y-97871100D01*
X40087718Y-98841400D02*
X43181900Y-98841400D01*
X39152200Y-97905882D02*
X40087718Y-98841400D01*
X39152200Y-96703800D02*
X39152200Y-97905882D01*
X44152200Y-97871100D02*
X44152200Y-96703800D01*
%TO.N,/Mot1B*%
X53220000Y-79720000D02*
X55570000Y-79720000D01*
X51231800Y-77731800D02*
X53220000Y-79720000D01*
X51231800Y-63906400D02*
X51231800Y-77731800D01*
X49225200Y-61899800D02*
X51231800Y-63906400D01*
X47091600Y-61899800D02*
X49225200Y-61899800D01*
%TO.N,/Mot1A*%
X54100000Y-72100000D02*
X55570000Y-72100000D01*
X52732800Y-70732800D02*
X54100000Y-72100000D01*
X52732800Y-63284666D02*
X52732800Y-70732800D01*
X52730400Y-63282265D02*
X52732800Y-63284666D01*
X47675800Y-55778400D02*
X51536600Y-55778400D01*
X46500000Y-56954200D02*
X47675800Y-55778400D01*
X51536600Y-55778400D02*
X52730400Y-56972200D01*
X46500000Y-58500000D02*
X46500000Y-56954200D01*
X52730400Y-56972200D02*
X52730400Y-63282265D01*
%TO.N,Net-(J3-Pin_2)*%
X73740000Y-27260000D02*
X73740000Y-30480000D01*
X85000000Y-26000000D02*
X75000000Y-26000000D01*
X75000000Y-26000000D02*
X73740000Y-27260000D01*
X86360000Y-27360000D02*
X85000000Y-26000000D01*
X86360000Y-30090000D02*
X86360000Y-27360000D01*
%TO.N,Net-(J4-Pin_2)*%
X61500000Y-24500000D02*
X58500000Y-27500000D01*
X88000000Y-24500000D02*
X61500000Y-24500000D01*
X90340000Y-26840000D02*
X88000000Y-24500000D01*
X90340000Y-30090000D02*
X90340000Y-26840000D01*
X58500000Y-27500000D02*
X58500000Y-30480000D01*
%TO.N,+5V*%
X41500000Y-107000000D02*
X39579800Y-105079800D01*
X39579800Y-105079800D02*
X37211000Y-105079800D01*
X46500000Y-107000000D02*
X41500000Y-107000000D01*
X47500000Y-106000000D02*
X46500000Y-107000000D01*
X47500000Y-103500000D02*
X47500000Y-106000000D01*
X51500000Y-102500000D02*
X51500000Y-103500000D01*
X51500000Y-103500000D02*
X47500000Y-103500000D01*
X51500000Y-96000000D02*
X51500000Y-103000000D01*
X54000000Y-95000000D02*
X52500000Y-95000000D01*
X52500000Y-95000000D02*
X51500000Y-96000000D01*
X54040000Y-94960000D02*
X54000000Y-95000000D01*
X55570000Y-94960000D02*
X54040000Y-94960000D01*
%TO.N,/SDA*%
X61849000Y-42076934D02*
X56551266Y-36779200D01*
X58695466Y-89880000D02*
X61849000Y-86726466D01*
X55570000Y-89880000D02*
X58695466Y-89880000D01*
X56551266Y-36779200D02*
X44613200Y-36779200D01*
X61849000Y-86726466D02*
X61849000Y-42076934D01*
X44613200Y-36779200D02*
X44613200Y-43129200D01*
%TO.N,/SCL*%
X42113200Y-35229800D02*
X42113200Y-36779200D01*
X63350000Y-41455200D02*
X56007000Y-34112200D01*
X58278200Y-92420000D02*
X63350000Y-87348201D01*
X56007000Y-34112200D02*
X43230800Y-34112200D01*
X55570000Y-92420000D02*
X58278200Y-92420000D01*
X63350000Y-87348201D02*
X63350000Y-41455200D01*
X43230800Y-34112200D02*
X42113200Y-35229800D01*
X42113200Y-36779200D02*
X42113200Y-43129200D01*
%TO.N,VCC*%
X37113200Y-36779200D02*
X37113200Y-35554200D01*
%TO.N,/ENC1A*%
X76200000Y-50673000D02*
X76327000Y-50800000D01*
X78740000Y-30480000D02*
X78740000Y-38100000D01*
X78740000Y-38100000D02*
X76200000Y-40640000D01*
X76200000Y-40640000D02*
X76200000Y-50673000D01*
%TO.N,/ENC1B*%
X76240000Y-30480000D02*
X76240000Y-38477266D01*
X73279000Y-41438266D02*
X73279000Y-53340000D01*
X76240000Y-38477266D02*
X73279000Y-41438266D01*
%TO.N,/ENC2A*%
X68912600Y-45635334D02*
X70383400Y-47106134D01*
X63500000Y-30480000D02*
X63500000Y-35977266D01*
X68912600Y-41389866D02*
X68912600Y-45635334D01*
X63500000Y-35977266D02*
X68912600Y-41389866D01*
X70383400Y-47106134D02*
X70383400Y-55880000D01*
%TO.N,/ENC2B*%
X61000000Y-35600000D02*
X67411600Y-42011600D01*
X67411600Y-42011600D02*
X67411600Y-59410600D01*
X61000000Y-30480000D02*
X61000000Y-35600000D01*
%TO.N,/NeoPixel*%
X81014800Y-82245200D02*
X81000000Y-82260000D01*
X87553800Y-82245200D02*
X81014800Y-82245200D01*
%TO.N,/Curr*%
X60302000Y-42737266D02*
X60302000Y-61999000D01*
X52932266Y-40643000D02*
X58207735Y-40643000D01*
X57821000Y-64480000D02*
X55570000Y-64480000D01*
X60302000Y-61999000D02*
X57821000Y-64480000D01*
X44613200Y-49042600D02*
X49077600Y-49042600D01*
X49077600Y-49042600D02*
X50012600Y-48107600D01*
X50012600Y-48107600D02*
X50012600Y-43562666D01*
X58207735Y-40643000D02*
X60302000Y-42737266D01*
X50012600Y-43562666D02*
X52932266Y-40643000D01*
%TO.N,/Volt*%
X48546667Y-51696267D02*
X51513600Y-48729334D01*
X53554000Y-42144000D02*
X57586000Y-42144000D01*
X51513600Y-44184400D02*
X53554000Y-42144000D01*
X42113200Y-50850800D02*
X42958667Y-51696267D01*
X42113200Y-49042600D02*
X42113200Y-50850800D01*
X58801000Y-43359000D02*
X58801000Y-60502800D01*
X58801000Y-60502800D02*
X57363800Y-61940000D01*
X57586000Y-42144000D02*
X58801000Y-43359000D01*
X51513600Y-48729334D02*
X51513600Y-44184400D01*
X57363800Y-61940000D02*
X55570000Y-61940000D01*
X42958667Y-51696267D02*
X48546667Y-51696267D01*
%TO.N,/b1*%
X28652200Y-90653800D02*
X33573463Y-90653800D01*
X39152200Y-96232537D02*
X39152200Y-96703800D01*
X33573463Y-90653800D02*
X39152200Y-96232537D01*
%TO.N,/b2*%
X45820463Y-94602800D02*
X46652200Y-95434537D01*
X33981400Y-87153800D02*
X41430400Y-94602800D01*
X41652200Y-96232537D02*
X43281937Y-94602800D01*
X41430400Y-94602800D02*
X43916400Y-94602800D01*
X46652200Y-95434537D02*
X46652200Y-96703800D01*
X41652200Y-96703800D02*
X41652200Y-96232537D01*
X28652200Y-87153800D02*
X33981400Y-87153800D01*
X43281937Y-94602800D02*
X45820463Y-94602800D01*
%TO.N,/a2*%
X42578800Y-71899000D02*
X45601081Y-71899000D01*
X28500000Y-64450000D02*
X34224000Y-64450000D01*
X34224000Y-64450000D02*
X41673000Y-71899000D01*
X41500000Y-72977800D02*
X42578800Y-71899000D01*
X41500000Y-74000000D02*
X41500000Y-72977800D01*
X45601081Y-71899000D02*
X46500000Y-72797919D01*
X46500000Y-72797919D02*
X46500000Y-74000000D01*
X41673000Y-71899000D02*
X43865800Y-71899000D01*
%TO.N,/a1*%
X33421263Y-67950000D02*
X39000000Y-73528737D01*
X39000000Y-75500000D02*
X39598400Y-76098400D01*
X39000000Y-73528737D02*
X39000000Y-74000000D01*
X42370263Y-76101000D02*
X42372863Y-76098400D01*
X39000000Y-74000000D02*
X39000000Y-75500000D01*
X42372863Y-76098400D02*
X43154600Y-76098400D01*
X40627137Y-76098400D02*
X40629737Y-76101000D01*
X39598400Y-76098400D02*
X40627137Y-76098400D01*
X43154600Y-76098400D02*
X44000000Y-75253000D01*
X28500000Y-67950000D02*
X33421263Y-67950000D01*
X44000000Y-75253000D02*
X44000000Y-74000000D01*
X40629737Y-76101000D02*
X42370263Y-76101000D01*
%TO.N,+5V*%
X34671000Y-105079800D02*
X37211000Y-105079800D01*
%TO.N,/Mot2B*%
X41508200Y-84800000D02*
X46455800Y-84800000D01*
X39152200Y-81203800D02*
X39152200Y-82444000D01*
X46455800Y-84800000D02*
X46466400Y-84810600D01*
X39152200Y-82444000D02*
X41508200Y-84800000D01*
X46832600Y-84800000D02*
X46455800Y-84800000D01*
X49152200Y-82480400D02*
X49152200Y-81203800D01*
X49152200Y-82480400D02*
X46832600Y-84800000D01*
X55570000Y-84800000D02*
X46010000Y-84800000D01*
%TO.N,/EEP*%
X22250400Y-84836000D02*
X22707600Y-84378800D01*
X36652200Y-96703800D02*
X25837800Y-96703800D01*
X55570000Y-87340000D02*
X39817137Y-87340000D01*
X25012337Y-82074063D02*
X34551200Y-82074063D01*
X39817137Y-87340000D02*
X34551200Y-82074063D01*
X34551200Y-82074063D02*
X35039569Y-82562432D01*
X25837800Y-96703800D02*
X22250400Y-93116400D01*
X22707600Y-84378800D02*
X25012337Y-82074063D01*
X34551200Y-82074063D02*
X34551200Y-75948800D01*
X22250400Y-93116400D02*
X22250400Y-84836000D01*
X34551200Y-75948800D02*
X36500000Y-74000000D01*
%TO.N,/Mot1B*%
X47091600Y-61899800D02*
X47371000Y-61899800D01*
X49000000Y-60270800D02*
X49000000Y-58500000D01*
X47371000Y-61899800D02*
X49000000Y-60270800D01*
X40331800Y-61899800D02*
X47091600Y-61899800D01*
X39000000Y-60568000D02*
X40331800Y-61899800D01*
X39000000Y-58500000D02*
X39000000Y-60568000D01*
%TD*%
%TA.AperFunction,Conductor*%
%TO.N,VCC*%
G36*
X92462539Y-22880185D02*
G01*
X92508294Y-22932989D01*
X92519500Y-22984500D01*
X92519500Y-59475349D01*
X92499815Y-59542388D01*
X92447011Y-59588143D01*
X92377853Y-59598087D01*
X92314297Y-59569062D01*
X92276523Y-59510284D01*
X92271972Y-59486156D01*
X92267771Y-59438137D01*
X92202561Y-59068315D01*
X92105367Y-58705583D01*
X92000345Y-58417036D01*
X91976931Y-58352706D01*
X91818228Y-58012366D01*
X91818220Y-58012351D01*
X91769596Y-57928132D01*
X91630460Y-57687142D01*
X91630452Y-57687131D01*
X91630448Y-57687124D01*
X91415065Y-57379525D01*
X91226953Y-57155342D01*
X91173682Y-57091856D01*
X90908144Y-56826318D01*
X90809977Y-56743946D01*
X90620474Y-56584934D01*
X90312875Y-56369551D01*
X90312864Y-56369544D01*
X90312858Y-56369540D01*
X90127351Y-56262437D01*
X89987648Y-56181779D01*
X89987633Y-56181771D01*
X89647293Y-56023068D01*
X89294410Y-55894630D01*
X88931692Y-55797441D01*
X88931695Y-55797441D01*
X88931685Y-55797439D01*
X88777121Y-55770185D01*
X88561865Y-55732229D01*
X88187767Y-55699500D01*
X88187764Y-55699500D01*
X87812236Y-55699500D01*
X87812232Y-55699500D01*
X87438134Y-55732229D01*
X87068320Y-55797438D01*
X87068317Y-55797438D01*
X87068315Y-55797439D01*
X87068310Y-55797440D01*
X87068307Y-55797441D01*
X86705589Y-55894630D01*
X86352706Y-56023068D01*
X86012366Y-56181771D01*
X86012351Y-56181779D01*
X85687150Y-56369535D01*
X85687124Y-56369551D01*
X85379525Y-56584934D01*
X85091853Y-56826320D01*
X84826320Y-57091853D01*
X84584934Y-57379525D01*
X84369551Y-57687124D01*
X84369535Y-57687150D01*
X84181779Y-58012351D01*
X84181771Y-58012366D01*
X84023068Y-58352706D01*
X83894630Y-58705589D01*
X83797441Y-59068307D01*
X83797438Y-59068320D01*
X83732229Y-59438134D01*
X83699500Y-59812232D01*
X83699500Y-60187767D01*
X83732229Y-60561865D01*
X83797438Y-60931679D01*
X83797441Y-60931692D01*
X83894630Y-61294410D01*
X84023068Y-61647293D01*
X84181771Y-61987633D01*
X84181779Y-61987648D01*
X84312985Y-62214902D01*
X84369540Y-62312858D01*
X84369544Y-62312864D01*
X84369551Y-62312875D01*
X84584934Y-62620474D01*
X84719109Y-62780377D01*
X84826318Y-62908144D01*
X85091856Y-63173682D01*
X85159319Y-63230290D01*
X85379525Y-63415065D01*
X85687124Y-63630448D01*
X85687131Y-63630452D01*
X85687142Y-63630460D01*
X85914092Y-63761490D01*
X86012351Y-63818220D01*
X86012366Y-63818228D01*
X86352706Y-63976931D01*
X86616479Y-64072936D01*
X86705583Y-64105367D01*
X86705584Y-64105367D01*
X86705589Y-64105369D01*
X86815536Y-64134829D01*
X87068315Y-64202561D01*
X87438137Y-64267771D01*
X87812234Y-64300499D01*
X87812235Y-64300500D01*
X87812236Y-64300500D01*
X88187765Y-64300500D01*
X88187765Y-64300499D01*
X88561863Y-64267771D01*
X88931685Y-64202561D01*
X89294417Y-64105367D01*
X89647298Y-63976929D01*
X89987642Y-63818224D01*
X90312858Y-63630460D01*
X90620473Y-63415066D01*
X90908144Y-63173682D01*
X91173682Y-62908144D01*
X91415066Y-62620473D01*
X91630460Y-62312858D01*
X91818224Y-61987642D01*
X91976929Y-61647298D01*
X92105367Y-61294417D01*
X92113406Y-61264417D01*
X92129164Y-61205606D01*
X92202561Y-60931685D01*
X92267771Y-60561863D01*
X92271972Y-60513842D01*
X92297424Y-60448774D01*
X92354015Y-60407795D01*
X92423777Y-60403917D01*
X92484561Y-60438371D01*
X92517069Y-60500217D01*
X92519500Y-60524650D01*
X92519500Y-109635500D01*
X92499815Y-109702539D01*
X92447011Y-109748294D01*
X92395500Y-109759500D01*
X21444500Y-109759500D01*
X21377461Y-109739815D01*
X21331706Y-109687011D01*
X21320500Y-109635500D01*
X21320500Y-94254336D01*
X21340185Y-94187297D01*
X21392989Y-94141542D01*
X21462147Y-94131598D01*
X21525703Y-94160623D01*
X21532181Y-94166655D01*
X25023155Y-97657630D01*
X25023160Y-97657634D01*
X25162050Y-97758542D01*
X25182395Y-97773324D01*
X25357774Y-97862684D01*
X25457808Y-97895187D01*
X25501391Y-97909348D01*
X25544973Y-97923509D01*
X25739378Y-97954300D01*
X25739383Y-97954300D01*
X25739384Y-97954300D01*
X25936217Y-97954300D01*
X34745849Y-97954300D01*
X34790354Y-97962561D01*
X35802620Y-98351816D01*
X35820098Y-98360159D01*
X35831988Y-98367024D01*
X35831995Y-98367027D01*
X35831997Y-98367028D01*
X36056090Y-98459850D01*
X36056100Y-98459854D01*
X36170331Y-98490462D01*
X36192838Y-98498045D01*
X36194741Y-98498598D01*
X36265561Y-98516416D01*
X36268312Y-98516716D01*
X36290411Y-98522638D01*
X36499249Y-98550131D01*
X36530911Y-98554300D01*
X36530912Y-98554300D01*
X36773489Y-98554300D01*
X36821588Y-98547967D01*
X37013989Y-98522638D01*
X37248300Y-98459854D01*
X37472412Y-98367024D01*
X37682489Y-98245736D01*
X37755631Y-98189612D01*
X37820800Y-98164417D01*
X37889245Y-98178455D01*
X37939235Y-98227269D01*
X37949049Y-98249668D01*
X37993317Y-98385912D01*
X38073433Y-98543146D01*
X38082676Y-98561287D01*
X38198372Y-98720528D01*
X38553875Y-99076031D01*
X38589322Y-99115232D01*
X38612315Y-99134471D01*
X39133890Y-99656046D01*
X39273072Y-99795228D01*
X39432313Y-99910924D01*
X39607689Y-100000282D01*
X39607697Y-100000286D01*
X39691941Y-100027658D01*
X39734064Y-100041344D01*
X39734065Y-100041345D01*
X39734066Y-100041345D01*
X39794891Y-100061109D01*
X39867794Y-100072655D01*
X39989296Y-100091900D01*
X39989301Y-100091900D01*
X43280322Y-100091900D01*
X43474726Y-100061109D01*
X43535556Y-100041344D01*
X43661926Y-100000284D01*
X43837305Y-99910924D01*
X43996546Y-99795228D01*
X44640384Y-99151389D01*
X44651161Y-99143254D01*
X44672719Y-99119054D01*
X45106028Y-98685746D01*
X45200912Y-98555150D01*
X45221724Y-98526505D01*
X45311084Y-98351125D01*
X45346305Y-98242725D01*
X45385741Y-98185052D01*
X45450100Y-98157854D01*
X45518946Y-98169769D01*
X45539721Y-98182670D01*
X45621911Y-98245736D01*
X45831984Y-98367022D01*
X45831985Y-98367022D01*
X45831988Y-98367024D01*
X46056100Y-98459854D01*
X46290411Y-98522638D01*
X46446195Y-98543147D01*
X46530911Y-98554300D01*
X46530912Y-98554300D01*
X46773489Y-98554300D01*
X46821588Y-98547967D01*
X47013989Y-98522638D01*
X47248300Y-98459854D01*
X47472412Y-98367024D01*
X47682489Y-98245736D01*
X47826716Y-98135066D01*
X47891883Y-98109874D01*
X47960327Y-98123912D01*
X47977676Y-98135061D01*
X48121911Y-98245736D01*
X48331988Y-98367024D01*
X48556100Y-98459854D01*
X48790411Y-98522638D01*
X48946195Y-98543147D01*
X49030911Y-98554300D01*
X49030912Y-98554300D01*
X49273489Y-98554300D01*
X49321588Y-98547967D01*
X49513989Y-98522638D01*
X49748300Y-98459854D01*
X49972412Y-98367024D01*
X50063500Y-98314433D01*
X50131400Y-98297961D01*
X50197427Y-98320813D01*
X50240617Y-98375735D01*
X50249500Y-98421821D01*
X50249500Y-102125500D01*
X50246949Y-102134185D01*
X50248238Y-102143147D01*
X50237259Y-102167187D01*
X50229815Y-102192539D01*
X50222974Y-102198466D01*
X50219213Y-102206703D01*
X50196978Y-102220992D01*
X50177011Y-102238294D01*
X50166496Y-102240581D01*
X50160435Y-102244477D01*
X50125500Y-102249500D01*
X50070781Y-102249500D01*
X50014309Y-102235894D01*
X49957245Y-102206703D01*
X49558607Y-102002779D01*
X48876147Y-101653665D01*
X48857133Y-101641647D01*
X48780831Y-101583099D01*
X48519671Y-101432318D01*
X48519661Y-101432314D01*
X48241060Y-101316913D01*
X47949766Y-101238861D01*
X47650793Y-101199501D01*
X47650788Y-101199500D01*
X47650783Y-101199500D01*
X47349217Y-101199500D01*
X47349211Y-101199500D01*
X47349206Y-101199501D01*
X47050233Y-101238861D01*
X46758939Y-101316913D01*
X46480338Y-101432314D01*
X46480328Y-101432318D01*
X46219168Y-101583099D01*
X46154028Y-101633083D01*
X46088859Y-101658277D01*
X46020414Y-101644238D01*
X45990861Y-101622388D01*
X45854657Y-101486184D01*
X45854654Y-101486181D01*
X45854650Y-101486178D01*
X45854645Y-101486174D01*
X45669632Y-101357997D01*
X45669630Y-101357995D01*
X45669626Y-101357993D01*
X45464683Y-101264904D01*
X45464681Y-101264903D01*
X45464678Y-101264902D01*
X45246420Y-101209905D01*
X45246413Y-101209904D01*
X45202347Y-101206436D01*
X45114217Y-101199500D01*
X45114215Y-101199500D01*
X42885791Y-101199500D01*
X42885776Y-101199501D01*
X42753586Y-101209904D01*
X42753579Y-101209905D01*
X42535321Y-101264902D01*
X42535318Y-101264903D01*
X42330377Y-101357991D01*
X42330367Y-101357997D01*
X42145354Y-101486174D01*
X42145342Y-101486184D01*
X41986184Y-101645342D01*
X41986174Y-101645354D01*
X41857997Y-101830367D01*
X41857991Y-101830377D01*
X41764903Y-102035318D01*
X41764902Y-102035321D01*
X41709905Y-102253579D01*
X41709904Y-102253586D01*
X41699500Y-102385777D01*
X41699500Y-104614208D01*
X41699501Y-104614223D01*
X41709904Y-104746413D01*
X41709905Y-104746420D01*
X41764902Y-104964678D01*
X41764903Y-104964681D01*
X41857991Y-105169622D01*
X41857997Y-105169632D01*
X41986174Y-105354645D01*
X41986178Y-105354650D01*
X41986181Y-105354654D01*
X42145346Y-105513819D01*
X42145352Y-105513823D01*
X42159422Y-105523571D01*
X42203319Y-105577930D01*
X42210859Y-105647391D01*
X42179649Y-105709902D01*
X42119596Y-105745617D01*
X42088807Y-105749500D01*
X42069336Y-105749500D01*
X42002297Y-105729815D01*
X41981655Y-105713181D01*
X40394448Y-104125974D01*
X40394446Y-104125972D01*
X40235205Y-104010276D01*
X40059830Y-103920917D01*
X39872626Y-103860090D01*
X39678222Y-103829300D01*
X39678217Y-103829300D01*
X39276572Y-103829300D01*
X39209533Y-103809615D01*
X39205063Y-103806604D01*
X38648899Y-103414017D01*
X38648894Y-103414014D01*
X38648890Y-103414011D01*
X38632528Y-103403697D01*
X38632528Y-103403696D01*
X38626144Y-103399672D01*
X38614407Y-103390102D01*
X38594287Y-103379592D01*
X38590037Y-103376913D01*
X38590036Y-103376911D01*
X38560088Y-103358034D01*
X38522763Y-103341863D01*
X38514648Y-103337992D01*
X38434049Y-103295891D01*
X38390615Y-103283463D01*
X38390615Y-103283462D01*
X38382841Y-103281237D01*
X38373410Y-103277151D01*
X38366672Y-103275011D01*
X38278810Y-103251471D01*
X38277774Y-103251174D01*
X38238419Y-103239914D01*
X38214541Y-103237791D01*
X38119037Y-103229300D01*
X38119033Y-103229300D01*
X38087610Y-103229300D01*
X38075687Y-103227927D01*
X38060130Y-103229300D01*
X36360945Y-103229300D01*
X36350776Y-103228882D01*
X36349014Y-103228737D01*
X36342397Y-103228192D01*
X36340667Y-103228402D01*
X36325779Y-103229300D01*
X36302973Y-103229300D01*
X36302963Y-103229301D01*
X36183582Y-103239913D01*
X36183575Y-103239915D01*
X36137320Y-103253149D01*
X36137321Y-103253150D01*
X36133935Y-103254118D01*
X36131693Y-103254625D01*
X36128444Y-103255689D01*
X36126169Y-103256341D01*
X36126166Y-103256340D01*
X35987955Y-103295889D01*
X35987952Y-103295890D01*
X35966763Y-103306957D01*
X35957711Y-103311686D01*
X35950329Y-103314108D01*
X35915642Y-103333661D01*
X35913871Y-103334586D01*
X35913869Y-103334586D01*
X35807591Y-103390102D01*
X35798043Y-103397887D01*
X35789370Y-103404349D01*
X35785086Y-103407259D01*
X35773100Y-103414017D01*
X35720985Y-103450803D01*
X35720075Y-103451422D01*
X35687813Y-103461795D01*
X35655785Y-103472733D01*
X35654468Y-103472518D01*
X35653560Y-103472810D01*
X35649280Y-103471671D01*
X35605892Y-103464588D01*
X35520584Y-103431784D01*
X35503087Y-103423432D01*
X35491216Y-103416578D01*
X35491203Y-103416571D01*
X35267101Y-103323746D01*
X35267093Y-103323743D01*
X35156526Y-103294115D01*
X35156526Y-103294116D01*
X35152754Y-103293105D01*
X35130100Y-103285477D01*
X35128202Y-103284926D01*
X35057638Y-103267183D01*
X35054882Y-103266881D01*
X35047657Y-103264945D01*
X35039459Y-103262749D01*
X35032789Y-103260962D01*
X34912538Y-103245131D01*
X34792289Y-103229300D01*
X34792288Y-103229300D01*
X34549712Y-103229300D01*
X34549711Y-103229300D01*
X34309214Y-103260961D01*
X34074895Y-103323747D01*
X33850794Y-103416573D01*
X33850785Y-103416577D01*
X33640706Y-103537867D01*
X33476486Y-103663877D01*
X33411317Y-103689071D01*
X33342872Y-103675032D01*
X33325514Y-103663877D01*
X33161293Y-103537867D01*
X33161292Y-103537866D01*
X33161289Y-103537864D01*
X32963087Y-103423432D01*
X32951214Y-103416577D01*
X32951205Y-103416573D01*
X32727104Y-103323747D01*
X32576759Y-103283462D01*
X32492789Y-103260962D01*
X32492788Y-103260961D01*
X32492785Y-103260961D01*
X32252289Y-103229300D01*
X32252288Y-103229300D01*
X32009712Y-103229300D01*
X32009711Y-103229300D01*
X31769214Y-103260961D01*
X31534895Y-103323747D01*
X31310794Y-103416573D01*
X31310785Y-103416577D01*
X31100706Y-103537867D01*
X30936486Y-103663877D01*
X30871317Y-103689071D01*
X30802872Y-103675032D01*
X30785514Y-103663877D01*
X30621293Y-103537867D01*
X30621292Y-103537866D01*
X30621289Y-103537864D01*
X30423087Y-103423432D01*
X30411214Y-103416577D01*
X30411205Y-103416573D01*
X30187104Y-103323747D01*
X30036759Y-103283462D01*
X29952789Y-103260962D01*
X29952788Y-103260961D01*
X29952785Y-103260961D01*
X29712289Y-103229300D01*
X29712288Y-103229300D01*
X29469712Y-103229300D01*
X29469711Y-103229300D01*
X29229214Y-103260961D01*
X28994895Y-103323747D01*
X28770794Y-103416573D01*
X28770785Y-103416577D01*
X28560706Y-103537867D01*
X28368263Y-103685533D01*
X28368256Y-103685539D01*
X28196739Y-103857056D01*
X28196733Y-103857063D01*
X28049067Y-104049506D01*
X27927777Y-104259585D01*
X27927773Y-104259594D01*
X27834947Y-104483695D01*
X27772161Y-104718014D01*
X27740500Y-104958511D01*
X27740500Y-105201088D01*
X27772161Y-105441585D01*
X27834947Y-105675904D01*
X27865432Y-105749500D01*
X27927776Y-105900012D01*
X28049064Y-106110089D01*
X28049066Y-106110092D01*
X28049067Y-106110093D01*
X28196733Y-106302536D01*
X28196739Y-106302543D01*
X28368256Y-106474060D01*
X28368263Y-106474066D01*
X28376029Y-106480025D01*
X28560711Y-106621736D01*
X28770788Y-106743024D01*
X28994900Y-106835854D01*
X29229211Y-106898638D01*
X29409586Y-106922384D01*
X29469711Y-106930300D01*
X29469712Y-106930300D01*
X29712289Y-106930300D01*
X29760388Y-106923967D01*
X29952789Y-106898638D01*
X30187100Y-106835854D01*
X30411212Y-106743024D01*
X30621289Y-106621736D01*
X30785514Y-106495722D01*
X30850683Y-106470528D01*
X30919128Y-106484566D01*
X30936486Y-106495722D01*
X31100711Y-106621736D01*
X31310788Y-106743024D01*
X31534900Y-106835854D01*
X31769211Y-106898638D01*
X31949586Y-106922384D01*
X32009711Y-106930300D01*
X32009712Y-106930300D01*
X32252289Y-106930300D01*
X32300388Y-106923967D01*
X32492789Y-106898638D01*
X32727100Y-106835854D01*
X32951212Y-106743024D01*
X33161289Y-106621736D01*
X33325514Y-106495722D01*
X33390683Y-106470528D01*
X33459128Y-106484566D01*
X33476486Y-106495722D01*
X33640711Y-106621736D01*
X33850788Y-106743024D01*
X34074900Y-106835854D01*
X34309211Y-106898638D01*
X34489586Y-106922384D01*
X34549711Y-106930300D01*
X34549712Y-106930300D01*
X34792289Y-106930300D01*
X34840388Y-106923967D01*
X35032789Y-106898638D01*
X35267100Y-106835854D01*
X35491212Y-106743024D01*
X35503102Y-106736158D01*
X35520580Y-106727815D01*
X35605891Y-106695009D01*
X35675529Y-106689322D01*
X35721905Y-106709445D01*
X35769478Y-106743026D01*
X35773098Y-106745581D01*
X35795853Y-106759926D01*
X35807593Y-106769498D01*
X35827691Y-106779995D01*
X35831950Y-106782680D01*
X35861864Y-106801538D01*
X35899207Y-106817720D01*
X35907306Y-106821584D01*
X35987948Y-106863708D01*
X35987951Y-106863709D01*
X36039122Y-106878350D01*
X36048540Y-106882432D01*
X36055280Y-106884573D01*
X36142995Y-106908072D01*
X36183582Y-106919686D01*
X36302963Y-106930300D01*
X36334443Y-106930299D01*
X36346373Y-106931673D01*
X36361918Y-106930299D01*
X38061129Y-106930299D01*
X38071297Y-106930716D01*
X38074883Y-106931011D01*
X38079659Y-106931405D01*
X38079659Y-106931404D01*
X38079660Y-106931405D01*
X38081352Y-106931199D01*
X38096271Y-106930299D01*
X38119028Y-106930299D01*
X38119036Y-106930299D01*
X38238418Y-106919686D01*
X38288078Y-106905476D01*
X38290367Y-106904960D01*
X38293673Y-106903875D01*
X38434049Y-106863709D01*
X38464295Y-106847909D01*
X38471672Y-106845490D01*
X38506322Y-106825956D01*
X38614407Y-106769498D01*
X38623946Y-106761718D01*
X38641422Y-106749796D01*
X38648901Y-106745581D01*
X39049070Y-106463107D01*
X39115189Y-106440530D01*
X39183020Y-106457283D01*
X39208258Y-106476732D01*
X40685354Y-107953828D01*
X40844595Y-108069524D01*
X40927454Y-108111742D01*
X41019969Y-108158882D01*
X41019971Y-108158882D01*
X41019974Y-108158884D01*
X41120318Y-108191487D01*
X41207173Y-108219709D01*
X41401578Y-108250500D01*
X41401583Y-108250500D01*
X46598422Y-108250500D01*
X46792826Y-108219709D01*
X46980026Y-108158884D01*
X47155405Y-108069524D01*
X47314646Y-107953828D01*
X48453829Y-106814645D01*
X48569524Y-106655405D01*
X48658884Y-106480025D01*
X48719709Y-106292826D01*
X48748651Y-106110093D01*
X48750500Y-106098421D01*
X48750500Y-106070781D01*
X48764106Y-106014309D01*
X49168961Y-105222879D01*
X49217016Y-105172162D01*
X49222867Y-105168966D01*
X50014307Y-104764105D01*
X50070779Y-104750500D01*
X51598422Y-104750500D01*
X51792826Y-104719709D01*
X51798052Y-104718011D01*
X51980025Y-104658884D01*
X52155405Y-104569524D01*
X52314646Y-104453828D01*
X52453828Y-104314646D01*
X52569524Y-104155405D01*
X52658884Y-103980025D01*
X52719709Y-103792826D01*
X52736142Y-103689071D01*
X52750500Y-103598422D01*
X52750500Y-100177911D01*
X84953300Y-100177911D01*
X84953300Y-100420488D01*
X84984961Y-100660985D01*
X85047747Y-100895304D01*
X85140573Y-101119405D01*
X85140577Y-101119415D01*
X85233122Y-101279708D01*
X85249595Y-101347609D01*
X85227663Y-101412324D01*
X85111797Y-101579567D01*
X85111791Y-101579577D01*
X85018703Y-101784518D01*
X85018702Y-101784521D01*
X84963705Y-102002779D01*
X84963704Y-102002786D01*
X84953300Y-102134977D01*
X84953300Y-103463408D01*
X84953301Y-103463423D01*
X84963704Y-103595613D01*
X84963705Y-103595620D01*
X85018702Y-103813878D01*
X85018703Y-103813881D01*
X85111791Y-104018822D01*
X85111797Y-104018832D01*
X85239974Y-104203845D01*
X85239978Y-104203850D01*
X85239981Y-104203854D01*
X85399146Y-104363019D01*
X85399150Y-104363022D01*
X85399154Y-104363025D01*
X85530216Y-104453825D01*
X85584174Y-104491207D01*
X85789117Y-104584296D01*
X85789121Y-104584297D01*
X86007379Y-104639294D01*
X86007381Y-104639294D01*
X86007388Y-104639296D01*
X86139583Y-104649700D01*
X87768016Y-104649699D01*
X87900212Y-104639296D01*
X88118483Y-104584296D01*
X88323426Y-104491207D01*
X88508454Y-104363019D01*
X88667619Y-104203854D01*
X88795807Y-104018826D01*
X88888896Y-103813883D01*
X88943896Y-103595612D01*
X88954300Y-103463417D01*
X88954299Y-102134984D01*
X88943896Y-102002788D01*
X88888896Y-101784517D01*
X88795807Y-101579574D01*
X88795805Y-101579571D01*
X88795803Y-101579567D01*
X88679935Y-101412323D01*
X88657938Y-101346007D01*
X88674474Y-101279712D01*
X88767024Y-101119412D01*
X88859854Y-100895300D01*
X88922638Y-100660989D01*
X88954300Y-100420488D01*
X88954300Y-100177912D01*
X88922638Y-99937411D01*
X88859854Y-99703100D01*
X88767024Y-99478988D01*
X88645736Y-99268911D01*
X88584818Y-99189521D01*
X88498066Y-99076463D01*
X88498060Y-99076456D01*
X88326543Y-98904939D01*
X88326536Y-98904933D01*
X88134093Y-98757267D01*
X88134092Y-98757266D01*
X88134089Y-98757264D01*
X87924012Y-98635976D01*
X87924005Y-98635973D01*
X87699904Y-98543147D01*
X87499494Y-98489447D01*
X87465589Y-98480362D01*
X87465588Y-98480361D01*
X87465585Y-98480361D01*
X87225089Y-98448700D01*
X87225088Y-98448700D01*
X86682512Y-98448700D01*
X86682511Y-98448700D01*
X86442014Y-98480361D01*
X86207695Y-98543147D01*
X85983594Y-98635973D01*
X85983585Y-98635977D01*
X85773506Y-98757267D01*
X85581063Y-98904933D01*
X85581056Y-98904939D01*
X85409539Y-99076456D01*
X85409533Y-99076463D01*
X85261867Y-99268906D01*
X85140577Y-99478985D01*
X85140573Y-99478994D01*
X85047747Y-99703095D01*
X84984961Y-99937414D01*
X84953300Y-100177911D01*
X52750500Y-100177911D01*
X52750500Y-96569336D01*
X52770185Y-96502297D01*
X52786819Y-96481655D01*
X52981655Y-96286819D01*
X53042978Y-96253334D01*
X53069336Y-96250500D01*
X53901583Y-96250500D01*
X53949939Y-96250500D01*
X53955127Y-96251420D01*
X53958051Y-96250766D01*
X53992582Y-96258063D01*
X54072225Y-96287231D01*
X54128406Y-96328770D01*
X54153211Y-96394088D01*
X54138765Y-96462448D01*
X54127959Y-96479153D01*
X54098889Y-96517037D01*
X53983175Y-96717460D01*
X53983168Y-96717475D01*
X53894608Y-96931280D01*
X53834707Y-97154832D01*
X53804501Y-97384272D01*
X53804500Y-97384289D01*
X53804500Y-97615710D01*
X53804501Y-97615727D01*
X53834707Y-97845167D01*
X53894608Y-98068719D01*
X53983168Y-98282524D01*
X53983175Y-98282539D01*
X54098890Y-98482963D01*
X54239777Y-98666571D01*
X54239783Y-98666578D01*
X54403421Y-98830216D01*
X54403428Y-98830222D01*
X54587036Y-98971109D01*
X54787460Y-99086824D01*
X54787475Y-99086831D01*
X54856042Y-99115232D01*
X55001281Y-99175392D01*
X55224829Y-99235292D01*
X55454283Y-99265500D01*
X55454290Y-99265500D01*
X55685710Y-99265500D01*
X55685717Y-99265500D01*
X55915171Y-99235292D01*
X56138719Y-99175392D01*
X56352536Y-99086826D01*
X56552964Y-98971109D01*
X56736573Y-98830221D01*
X56900221Y-98666573D01*
X57041109Y-98482964D01*
X57156826Y-98282536D01*
X57245392Y-98068719D01*
X57305292Y-97845171D01*
X57335500Y-97615717D01*
X57335500Y-97384283D01*
X57305292Y-97154829D01*
X57245392Y-96931281D01*
X57156826Y-96717464D01*
X57041109Y-96517036D01*
X56900221Y-96333427D01*
X56884475Y-96317681D01*
X56850990Y-96256361D01*
X56855973Y-96186670D01*
X56884475Y-96142318D01*
X56900221Y-96126573D01*
X57041109Y-95942964D01*
X57156826Y-95742536D01*
X57245392Y-95528719D01*
X57305292Y-95305171D01*
X57335500Y-95075717D01*
X57335500Y-94844283D01*
X57305292Y-94614829D01*
X57245392Y-94391281D01*
X57194170Y-94267620D01*
X57156831Y-94177475D01*
X57156824Y-94177460D01*
X57041109Y-93977036D01*
X57012041Y-93939153D01*
X57002128Y-93913513D01*
X56989096Y-93889305D01*
X56989709Y-93881387D01*
X56986847Y-93873983D01*
X56992370Y-93847053D01*
X56994495Y-93819644D01*
X56999290Y-93813316D01*
X57000886Y-93805539D01*
X57020089Y-93785872D01*
X57036697Y-93763960D01*
X57046795Y-93758523D01*
X57049700Y-93755549D01*
X57067766Y-93747233D01*
X57256636Y-93678062D01*
X57299279Y-93670500D01*
X58376622Y-93670500D01*
X58484622Y-93653393D01*
X58571026Y-93639709D01*
X58640972Y-93616982D01*
X58640973Y-93616982D01*
X58758221Y-93578886D01*
X58758223Y-93578884D01*
X58758226Y-93578884D01*
X58933605Y-93489524D01*
X59092846Y-93373828D01*
X64303829Y-88162847D01*
X64419524Y-88003606D01*
X64508884Y-87828227D01*
X64569709Y-87641027D01*
X64585534Y-87541111D01*
X64588527Y-87522212D01*
X64600500Y-87446622D01*
X64600500Y-69468282D01*
X66111600Y-69468282D01*
X66111600Y-69672917D01*
X66143609Y-69875017D01*
X66206844Y-70069631D01*
X66299741Y-70251950D01*
X66299747Y-70251959D01*
X66332123Y-70296521D01*
X66332124Y-70296522D01*
X67011600Y-69617046D01*
X67011600Y-69623261D01*
X67038859Y-69724994D01*
X67091520Y-69816206D01*
X67165994Y-69890680D01*
X67257206Y-69943341D01*
X67358939Y-69970600D01*
X67365153Y-69970600D01*
X66685676Y-70650074D01*
X66730250Y-70682459D01*
X66912568Y-70775355D01*
X67107182Y-70838590D01*
X67309283Y-70870600D01*
X67513917Y-70870600D01*
X67716017Y-70838590D01*
X67910631Y-70775355D01*
X68092949Y-70682459D01*
X68137521Y-70650074D01*
X67458047Y-69970600D01*
X67464261Y-69970600D01*
X67565994Y-69943341D01*
X67657206Y-69890680D01*
X67731680Y-69816206D01*
X67784341Y-69724994D01*
X67811600Y-69623261D01*
X67811600Y-69617047D01*
X68491074Y-70296521D01*
X68523459Y-70251949D01*
X68616355Y-70069631D01*
X68679590Y-69875017D01*
X68711600Y-69672917D01*
X68711600Y-69468282D01*
X68679590Y-69266182D01*
X68616355Y-69071568D01*
X68523459Y-68889250D01*
X68491074Y-68844677D01*
X68491074Y-68844676D01*
X67811600Y-69524151D01*
X67811600Y-69517939D01*
X67784341Y-69416206D01*
X67731680Y-69324994D01*
X67657206Y-69250520D01*
X67565994Y-69197859D01*
X67464261Y-69170600D01*
X67458046Y-69170600D01*
X68137522Y-68491124D01*
X68137521Y-68491123D01*
X68092959Y-68458747D01*
X68092950Y-68458741D01*
X67910631Y-68365844D01*
X67716017Y-68302609D01*
X67513917Y-68270600D01*
X67309283Y-68270600D01*
X67107182Y-68302609D01*
X66912568Y-68365844D01*
X66730244Y-68458743D01*
X66685677Y-68491123D01*
X66685677Y-68491124D01*
X67365154Y-69170600D01*
X67358939Y-69170600D01*
X67257206Y-69197859D01*
X67165994Y-69250520D01*
X67091520Y-69324994D01*
X67038859Y-69416206D01*
X67011600Y-69517939D01*
X67011600Y-69524153D01*
X66332124Y-68844677D01*
X66332123Y-68844677D01*
X66299743Y-68889244D01*
X66206844Y-69071568D01*
X66143609Y-69266182D01*
X66111600Y-69468282D01*
X64600500Y-69468282D01*
X64600500Y-65937682D01*
X69083400Y-65937682D01*
X69083400Y-66142317D01*
X69115409Y-66344417D01*
X69178644Y-66539031D01*
X69271541Y-66721350D01*
X69271547Y-66721359D01*
X69303923Y-66765921D01*
X69303924Y-66765922D01*
X69983400Y-66086446D01*
X69983400Y-66092661D01*
X70010659Y-66194394D01*
X70063320Y-66285606D01*
X70137794Y-66360080D01*
X70229006Y-66412741D01*
X70330739Y-66440000D01*
X70336953Y-66440000D01*
X69657476Y-67119474D01*
X69702050Y-67151859D01*
X69884368Y-67244755D01*
X70078982Y-67307990D01*
X70281083Y-67340000D01*
X70485717Y-67340000D01*
X70687817Y-67307990D01*
X70882431Y-67244755D01*
X71064749Y-67151859D01*
X71109321Y-67119474D01*
X70429847Y-66440000D01*
X70436061Y-66440000D01*
X70537794Y-66412741D01*
X70629006Y-66360080D01*
X70703480Y-66285606D01*
X70756141Y-66194394D01*
X70783400Y-66092661D01*
X70783400Y-66086447D01*
X71462874Y-66765921D01*
X71495259Y-66721349D01*
X71588155Y-66539031D01*
X71651390Y-66344417D01*
X71683400Y-66142317D01*
X71683400Y-65937682D01*
X71651390Y-65735582D01*
X71588155Y-65540968D01*
X71495259Y-65358650D01*
X71462874Y-65314077D01*
X71462874Y-65314076D01*
X70783400Y-65993551D01*
X70783400Y-65987339D01*
X70756141Y-65885606D01*
X70703480Y-65794394D01*
X70629006Y-65719920D01*
X70537794Y-65667259D01*
X70436061Y-65640000D01*
X70429846Y-65640000D01*
X71109322Y-64960524D01*
X71109321Y-64960523D01*
X71064759Y-64928147D01*
X71064750Y-64928141D01*
X70882431Y-64835244D01*
X70687817Y-64772009D01*
X70485717Y-64740000D01*
X70281083Y-64740000D01*
X70078982Y-64772009D01*
X69884368Y-64835244D01*
X69702044Y-64928143D01*
X69657477Y-64960523D01*
X69657477Y-64960524D01*
X70336954Y-65640000D01*
X70330739Y-65640000D01*
X70229006Y-65667259D01*
X70137794Y-65719920D01*
X70063320Y-65794394D01*
X70010659Y-65885606D01*
X69983400Y-65987339D01*
X69983400Y-65993553D01*
X69303924Y-65314077D01*
X69303923Y-65314077D01*
X69271543Y-65358644D01*
X69178644Y-65540968D01*
X69115409Y-65735582D01*
X69083400Y-65937682D01*
X64600500Y-65937682D01*
X64600500Y-63397682D01*
X71979000Y-63397682D01*
X71979000Y-63602317D01*
X72011009Y-63804417D01*
X72074244Y-63999031D01*
X72167141Y-64181350D01*
X72167147Y-64181359D01*
X72199523Y-64225921D01*
X72199524Y-64225922D01*
X72879000Y-63546446D01*
X72879000Y-63552661D01*
X72906259Y-63654394D01*
X72958920Y-63745606D01*
X73033394Y-63820080D01*
X73124606Y-63872741D01*
X73226339Y-63900000D01*
X73232553Y-63900000D01*
X72553076Y-64579474D01*
X72597650Y-64611859D01*
X72779968Y-64704755D01*
X72974582Y-64767990D01*
X73176683Y-64800000D01*
X73381317Y-64800000D01*
X73583417Y-64767990D01*
X73778031Y-64704755D01*
X73960349Y-64611859D01*
X74004921Y-64579474D01*
X73325447Y-63900000D01*
X73331661Y-63900000D01*
X73433394Y-63872741D01*
X73524606Y-63820080D01*
X73599080Y-63745606D01*
X73651741Y-63654394D01*
X73679000Y-63552661D01*
X73679000Y-63546447D01*
X74358474Y-64225921D01*
X74390859Y-64181349D01*
X74483755Y-63999031D01*
X74546990Y-63804417D01*
X74579000Y-63602317D01*
X74579000Y-63397682D01*
X74546990Y-63195582D01*
X74483755Y-63000968D01*
X74390859Y-62818650D01*
X74358474Y-62774077D01*
X74358474Y-62774076D01*
X73679000Y-63453551D01*
X73679000Y-63447339D01*
X73651741Y-63345606D01*
X73599080Y-63254394D01*
X73524606Y-63179920D01*
X73433394Y-63127259D01*
X73331661Y-63100000D01*
X73325446Y-63100000D01*
X74004922Y-62420524D01*
X74004921Y-62420523D01*
X73960359Y-62388147D01*
X73960350Y-62388141D01*
X73778031Y-62295244D01*
X73583417Y-62232009D01*
X73381317Y-62200000D01*
X73176683Y-62200000D01*
X72974582Y-62232009D01*
X72779968Y-62295244D01*
X72597644Y-62388143D01*
X72553077Y-62420523D01*
X72553077Y-62420524D01*
X73232554Y-63100000D01*
X73226339Y-63100000D01*
X73124606Y-63127259D01*
X73033394Y-63179920D01*
X72958920Y-63254394D01*
X72906259Y-63345606D01*
X72879000Y-63447339D01*
X72879000Y-63453553D01*
X72199524Y-62774077D01*
X72199523Y-62774077D01*
X72167143Y-62818644D01*
X72074244Y-63000968D01*
X72011009Y-63195582D01*
X71979000Y-63397682D01*
X64600500Y-63397682D01*
X64600500Y-41356777D01*
X64587219Y-41272926D01*
X64596173Y-41203633D01*
X64641170Y-41150181D01*
X64707921Y-41129541D01*
X64775235Y-41148266D01*
X64797373Y-41165847D01*
X66124781Y-42493255D01*
X66158266Y-42554578D01*
X66161100Y-42580936D01*
X66161100Y-57608179D01*
X66153234Y-57651641D01*
X65796746Y-58604193D01*
X65794770Y-58608771D01*
X65794865Y-58608811D01*
X65702992Y-58830610D01*
X65702991Y-58830613D01*
X65675940Y-58931563D01*
X65675941Y-58931564D01*
X65675036Y-58934939D01*
X65664776Y-58966129D01*
X65664262Y-58967933D01*
X65647923Y-59033584D01*
X65647451Y-59037892D01*
X65645194Y-59046317D01*
X65645192Y-59046318D01*
X65641907Y-59058581D01*
X65611101Y-59292579D01*
X65611100Y-59292595D01*
X65611100Y-59528604D01*
X65611101Y-59528620D01*
X65641906Y-59762610D01*
X65702994Y-59990593D01*
X65793314Y-60208645D01*
X65793319Y-60208656D01*
X65833731Y-60278650D01*
X65911327Y-60413050D01*
X65911329Y-60413053D01*
X65911330Y-60413054D01*
X66055006Y-60600297D01*
X66055012Y-60600304D01*
X66221895Y-60767187D01*
X66221902Y-60767193D01*
X66271963Y-60805606D01*
X66409150Y-60910873D01*
X66540518Y-60986718D01*
X66613543Y-61028880D01*
X66613548Y-61028882D01*
X66613551Y-61028884D01*
X66831607Y-61119206D01*
X67059586Y-61180293D01*
X67293589Y-61211100D01*
X67293596Y-61211100D01*
X67529604Y-61211100D01*
X67529611Y-61211100D01*
X67763614Y-61180293D01*
X67991593Y-61119206D01*
X68209649Y-61028884D01*
X68414050Y-60910873D01*
X68483370Y-60857682D01*
X75027000Y-60857682D01*
X75027000Y-61062317D01*
X75059009Y-61264417D01*
X75122244Y-61459031D01*
X75215141Y-61641350D01*
X75215147Y-61641359D01*
X75247523Y-61685921D01*
X75247524Y-61685922D01*
X75927000Y-61006446D01*
X75927000Y-61012661D01*
X75954259Y-61114394D01*
X76006920Y-61205606D01*
X76081394Y-61280080D01*
X76172606Y-61332741D01*
X76274339Y-61360000D01*
X76280553Y-61360000D01*
X75601076Y-62039474D01*
X75645650Y-62071859D01*
X75827968Y-62164755D01*
X76022582Y-62227990D01*
X76224683Y-62260000D01*
X76429317Y-62260000D01*
X76631417Y-62227990D01*
X76826031Y-62164755D01*
X77008349Y-62071859D01*
X77052921Y-62039474D01*
X76373447Y-61360000D01*
X76379661Y-61360000D01*
X76481394Y-61332741D01*
X76572606Y-61280080D01*
X76647080Y-61205606D01*
X76699741Y-61114394D01*
X76727000Y-61012661D01*
X76727000Y-61006447D01*
X77406474Y-61685921D01*
X77438859Y-61641349D01*
X77531755Y-61459031D01*
X77594990Y-61264417D01*
X77627000Y-61062317D01*
X77627000Y-60857682D01*
X77594990Y-60655582D01*
X77531755Y-60460968D01*
X77438859Y-60278650D01*
X77406474Y-60234077D01*
X77406474Y-60234076D01*
X76727000Y-60913551D01*
X76727000Y-60907339D01*
X76699741Y-60805606D01*
X76647080Y-60714394D01*
X76572606Y-60639920D01*
X76481394Y-60587259D01*
X76379661Y-60560000D01*
X76373446Y-60560000D01*
X77052922Y-59880524D01*
X77052921Y-59880523D01*
X77008359Y-59848147D01*
X77008350Y-59848141D01*
X76826031Y-59755244D01*
X76631417Y-59692009D01*
X76429317Y-59660000D01*
X76224683Y-59660000D01*
X76022582Y-59692009D01*
X75827968Y-59755244D01*
X75645644Y-59848143D01*
X75601077Y-59880523D01*
X75601077Y-59880524D01*
X76280554Y-60560000D01*
X76274339Y-60560000D01*
X76172606Y-60587259D01*
X76081394Y-60639920D01*
X76006920Y-60714394D01*
X75954259Y-60805606D01*
X75927000Y-60907339D01*
X75927000Y-60913553D01*
X75247524Y-60234077D01*
X75247523Y-60234077D01*
X75215143Y-60278644D01*
X75122244Y-60460968D01*
X75059009Y-60655582D01*
X75027000Y-60857682D01*
X68483370Y-60857682D01*
X68601299Y-60767192D01*
X68601304Y-60767187D01*
X68603357Y-60765135D01*
X68768187Y-60600304D01*
X68768192Y-60600299D01*
X68911873Y-60413050D01*
X69029884Y-60208649D01*
X69120206Y-59990593D01*
X69181293Y-59762614D01*
X69212100Y-59528611D01*
X69212100Y-59292589D01*
X69181293Y-59058586D01*
X69120206Y-58830607D01*
X69031919Y-58617464D01*
X69028331Y-58608801D01*
X69028428Y-58608760D01*
X69026444Y-58604174D01*
X68942354Y-58379481D01*
X68690093Y-57705423D01*
X68669966Y-57651642D01*
X68662100Y-57608180D01*
X68662100Y-56959694D01*
X68681785Y-56892655D01*
X68734589Y-56846900D01*
X68803747Y-56836956D01*
X68867303Y-56865981D01*
X68884476Y-56884208D01*
X69026806Y-57069697D01*
X69026812Y-57069704D01*
X69193695Y-57236587D01*
X69193702Y-57236593D01*
X69303706Y-57321001D01*
X69380950Y-57380273D01*
X69508398Y-57453855D01*
X69585343Y-57498280D01*
X69585348Y-57498282D01*
X69585351Y-57498284D01*
X69803407Y-57588606D01*
X70031386Y-57649693D01*
X70265389Y-57680500D01*
X70265396Y-57680500D01*
X70501404Y-57680500D01*
X70501411Y-57680500D01*
X70735414Y-57649693D01*
X70963393Y-57588606D01*
X71181449Y-57498284D01*
X71385850Y-57380273D01*
X71573099Y-57236592D01*
X71739992Y-57069699D01*
X71883673Y-56882450D01*
X72001684Y-56678049D01*
X72092006Y-56459993D01*
X72153093Y-56232014D01*
X72183900Y-55998011D01*
X72183900Y-55761989D01*
X72153093Y-55527986D01*
X72092006Y-55300007D01*
X72001684Y-55081951D01*
X72000131Y-55078201D01*
X72000228Y-55078160D01*
X71998244Y-55073574D01*
X71929063Y-54888719D01*
X71915303Y-54851952D01*
X71910243Y-54782267D01*
X71943660Y-54720907D01*
X72004946Y-54687354D01*
X72074643Y-54692261D01*
X72106924Y-54710115D01*
X72157444Y-54748880D01*
X72276550Y-54840273D01*
X72407918Y-54916118D01*
X72480943Y-54958280D01*
X72480948Y-54958282D01*
X72480951Y-54958284D01*
X72699007Y-55048606D01*
X72926986Y-55109693D01*
X73160989Y-55140500D01*
X73160996Y-55140500D01*
X73397004Y-55140500D01*
X73397011Y-55140500D01*
X73631014Y-55109693D01*
X73858993Y-55048606D01*
X74077049Y-54958284D01*
X74281450Y-54840273D01*
X74468699Y-54696592D01*
X74635592Y-54529699D01*
X74779273Y-54342450D01*
X74897284Y-54138049D01*
X74987606Y-53919993D01*
X75048693Y-53692014D01*
X75079500Y-53458011D01*
X75079500Y-53221989D01*
X75048693Y-52987986D01*
X74987606Y-52760007D01*
X74897284Y-52541951D01*
X74895731Y-52538201D01*
X74895828Y-52538160D01*
X74893844Y-52533574D01*
X74824663Y-52348719D01*
X74714748Y-52055020D01*
X74709688Y-51985335D01*
X74743105Y-51923975D01*
X74804391Y-51890422D01*
X74874088Y-51895329D01*
X74929259Y-51936073D01*
X74970406Y-51989697D01*
X74970412Y-51989704D01*
X75137295Y-52156587D01*
X75137301Y-52156592D01*
X75324550Y-52300273D01*
X75455918Y-52376118D01*
X75528943Y-52418280D01*
X75528948Y-52418282D01*
X75528951Y-52418284D01*
X75747007Y-52508606D01*
X75974986Y-52569693D01*
X76208989Y-52600500D01*
X76208996Y-52600500D01*
X76445004Y-52600500D01*
X76445011Y-52600500D01*
X76679014Y-52569693D01*
X76906993Y-52508606D01*
X77125049Y-52418284D01*
X77329450Y-52300273D01*
X77516699Y-52156592D01*
X77683592Y-51989699D01*
X77827273Y-51802450D01*
X77945284Y-51598049D01*
X78035606Y-51379993D01*
X78096693Y-51152014D01*
X78127500Y-50918011D01*
X78127500Y-50681989D01*
X78096693Y-50447986D01*
X78035606Y-50220007D01*
X77945284Y-50001951D01*
X77902593Y-49928009D01*
X77897360Y-49917403D01*
X77897249Y-49917456D01*
X77462516Y-49003232D01*
X77450500Y-48949981D01*
X77450500Y-44044289D01*
X79234500Y-44044289D01*
X79234500Y-44275710D01*
X79234501Y-44275727D01*
X79260991Y-44476943D01*
X79264708Y-44505171D01*
X79303104Y-44648465D01*
X79324608Y-44728719D01*
X79413168Y-44942524D01*
X79413175Y-44942539D01*
X79528890Y-45142963D01*
X79669777Y-45326571D01*
X79669783Y-45326578D01*
X79685524Y-45342319D01*
X79719009Y-45403642D01*
X79714025Y-45473334D01*
X79685524Y-45517681D01*
X79669783Y-45533421D01*
X79669777Y-45533428D01*
X79528890Y-45717036D01*
X79413175Y-45917460D01*
X79413168Y-45917475D01*
X79324608Y-46131280D01*
X79264707Y-46354832D01*
X79234501Y-46584272D01*
X79234500Y-46584289D01*
X79234500Y-46815710D01*
X79234501Y-46815727D01*
X79258263Y-46996222D01*
X79264708Y-47045171D01*
X79288109Y-47132503D01*
X79324608Y-47268719D01*
X79413168Y-47482524D01*
X79413175Y-47482539D01*
X79528890Y-47682963D01*
X79669777Y-47866571D01*
X79669783Y-47866578D01*
X79685524Y-47882319D01*
X79719009Y-47943642D01*
X79714025Y-48013334D01*
X79685524Y-48057681D01*
X79669783Y-48073421D01*
X79669777Y-48073428D01*
X79528890Y-48257036D01*
X79413175Y-48457460D01*
X79413168Y-48457475D01*
X79324608Y-48671280D01*
X79264707Y-48894832D01*
X79234501Y-49124272D01*
X79234500Y-49124289D01*
X79234500Y-49355710D01*
X79234501Y-49355727D01*
X79264707Y-49585167D01*
X79324608Y-49808719D01*
X79413168Y-50022524D01*
X79413175Y-50022539D01*
X79528890Y-50222963D01*
X79669777Y-50406571D01*
X79669783Y-50406578D01*
X79685524Y-50422319D01*
X79719009Y-50483642D01*
X79714025Y-50553334D01*
X79685524Y-50597681D01*
X79669783Y-50613421D01*
X79669777Y-50613428D01*
X79528890Y-50797036D01*
X79413175Y-50997460D01*
X79413168Y-50997475D01*
X79324608Y-51211280D01*
X79264707Y-51434832D01*
X79234501Y-51664272D01*
X79234500Y-51664289D01*
X79234500Y-51895710D01*
X79234501Y-51895727D01*
X79264707Y-52125167D01*
X79324608Y-52348719D01*
X79413168Y-52562524D01*
X79413175Y-52562539D01*
X79528890Y-52762963D01*
X79669777Y-52946571D01*
X79669783Y-52946578D01*
X79685524Y-52962319D01*
X79719009Y-53023642D01*
X79714025Y-53093334D01*
X79685524Y-53137681D01*
X79669783Y-53153421D01*
X79669777Y-53153428D01*
X79528890Y-53337036D01*
X79413175Y-53537460D01*
X79413168Y-53537475D01*
X79324608Y-53751280D01*
X79264707Y-53974832D01*
X79234501Y-54204272D01*
X79234500Y-54204289D01*
X79234500Y-54435710D01*
X79234501Y-54435727D01*
X79264191Y-54661250D01*
X79264708Y-54665171D01*
X79317980Y-54863984D01*
X79324608Y-54888719D01*
X79413168Y-55102524D01*
X79413175Y-55102539D01*
X79528890Y-55302963D01*
X79669777Y-55486571D01*
X79669783Y-55486578D01*
X79685524Y-55502319D01*
X79719009Y-55563642D01*
X79714025Y-55633334D01*
X79685524Y-55677681D01*
X79669783Y-55693421D01*
X79669777Y-55693428D01*
X79528892Y-55877034D01*
X79528891Y-55877034D01*
X79413175Y-56077460D01*
X79413168Y-56077475D01*
X79324608Y-56291280D01*
X79264707Y-56514832D01*
X79234501Y-56744272D01*
X79234500Y-56744289D01*
X79234500Y-56975710D01*
X79234501Y-56975727D01*
X79264191Y-57201250D01*
X79264708Y-57205171D01*
X79268778Y-57220359D01*
X79324608Y-57428719D01*
X79413168Y-57642524D01*
X79413175Y-57642539D01*
X79528890Y-57842963D01*
X79669777Y-58026571D01*
X79669783Y-58026578D01*
X79685524Y-58042319D01*
X79719009Y-58103642D01*
X79714025Y-58173334D01*
X79685524Y-58217681D01*
X79669783Y-58233421D01*
X79669777Y-58233428D01*
X79528890Y-58417036D01*
X79413175Y-58617460D01*
X79413168Y-58617475D01*
X79324608Y-58831280D01*
X79264707Y-59054832D01*
X79234501Y-59284272D01*
X79234500Y-59284289D01*
X79234500Y-59515710D01*
X79234501Y-59515727D01*
X79261754Y-59722738D01*
X79264708Y-59745171D01*
X79292301Y-59848147D01*
X79324608Y-59968719D01*
X79413168Y-60182524D01*
X79413175Y-60182539D01*
X79528890Y-60382963D01*
X79669777Y-60566571D01*
X79669783Y-60566578D01*
X79685524Y-60582319D01*
X79719009Y-60643642D01*
X79714025Y-60713334D01*
X79685524Y-60757681D01*
X79669783Y-60773421D01*
X79669777Y-60773428D01*
X79528890Y-60957036D01*
X79413175Y-61157460D01*
X79413168Y-61157475D01*
X79324608Y-61371280D01*
X79264707Y-61594832D01*
X79234501Y-61824272D01*
X79234500Y-61824289D01*
X79234500Y-62055710D01*
X79234501Y-62055727D01*
X79260777Y-62255316D01*
X79264708Y-62285171D01*
X79292301Y-62388147D01*
X79324608Y-62508719D01*
X79413168Y-62722524D01*
X79413175Y-62722539D01*
X79528890Y-62922963D01*
X79669777Y-63106571D01*
X79669783Y-63106578D01*
X79685524Y-63122319D01*
X79719009Y-63183642D01*
X79714025Y-63253334D01*
X79685524Y-63297681D01*
X79669783Y-63313421D01*
X79669777Y-63313428D01*
X79528890Y-63497036D01*
X79413175Y-63697460D01*
X79413168Y-63697475D01*
X79324608Y-63911280D01*
X79264707Y-64134832D01*
X79242897Y-64300499D01*
X79234500Y-64364283D01*
X79234500Y-64595717D01*
X79264708Y-64825171D01*
X79292301Y-64928147D01*
X79324608Y-65048719D01*
X79413168Y-65262524D01*
X79413175Y-65262539D01*
X79528890Y-65462963D01*
X79669777Y-65646571D01*
X79669783Y-65646578D01*
X79685524Y-65662319D01*
X79719009Y-65723642D01*
X79714025Y-65793334D01*
X79685524Y-65837681D01*
X79669783Y-65853421D01*
X79669777Y-65853428D01*
X79528890Y-66037036D01*
X79413175Y-66237460D01*
X79413168Y-66237475D01*
X79324608Y-66451280D01*
X79264707Y-66674832D01*
X79234501Y-66904272D01*
X79234500Y-66904289D01*
X79234500Y-67135710D01*
X79234501Y-67135727D01*
X79264707Y-67365167D01*
X79324608Y-67588719D01*
X79413168Y-67802524D01*
X79413175Y-67802539D01*
X79528890Y-68002963D01*
X79669777Y-68186571D01*
X79669783Y-68186578D01*
X79685524Y-68202319D01*
X79719009Y-68263642D01*
X79714025Y-68333334D01*
X79685524Y-68377681D01*
X79669783Y-68393421D01*
X79669777Y-68393428D01*
X79528890Y-68577036D01*
X79413175Y-68777460D01*
X79413168Y-68777475D01*
X79324608Y-68991280D01*
X79264707Y-69214832D01*
X79234501Y-69444272D01*
X79234500Y-69444289D01*
X79234500Y-69675710D01*
X79234501Y-69675727D01*
X79264707Y-69905167D01*
X79324608Y-70128719D01*
X79413168Y-70342524D01*
X79413175Y-70342539D01*
X79528890Y-70542963D01*
X79669777Y-70726571D01*
X79669783Y-70726578D01*
X79685524Y-70742319D01*
X79719009Y-70803642D01*
X79714025Y-70873334D01*
X79685524Y-70917681D01*
X79669783Y-70933421D01*
X79669777Y-70933428D01*
X79528890Y-71117036D01*
X79413175Y-71317460D01*
X79413168Y-71317475D01*
X79324608Y-71531280D01*
X79264707Y-71754832D01*
X79234501Y-71984272D01*
X79234500Y-71984289D01*
X79234500Y-72215710D01*
X79234501Y-72215727D01*
X79262681Y-72429780D01*
X79264708Y-72445171D01*
X79283603Y-72515689D01*
X79324608Y-72668719D01*
X79413168Y-72882524D01*
X79413175Y-72882539D01*
X79528890Y-73082963D01*
X79669777Y-73266571D01*
X79669783Y-73266578D01*
X79685524Y-73282319D01*
X79719009Y-73343642D01*
X79714025Y-73413334D01*
X79685524Y-73457681D01*
X79669783Y-73473421D01*
X79669777Y-73473428D01*
X79528890Y-73657036D01*
X79413175Y-73857460D01*
X79413168Y-73857475D01*
X79324608Y-74071280D01*
X79264707Y-74294832D01*
X79234501Y-74524272D01*
X79234500Y-74524289D01*
X79234500Y-74755710D01*
X79234501Y-74755727D01*
X79264707Y-74985167D01*
X79324608Y-75208719D01*
X79413168Y-75422524D01*
X79413175Y-75422539D01*
X79528890Y-75622963D01*
X79669777Y-75806571D01*
X79669783Y-75806578D01*
X79685524Y-75822319D01*
X79719009Y-75883642D01*
X79714025Y-75953334D01*
X79685524Y-75997681D01*
X79669783Y-76013421D01*
X79669777Y-76013428D01*
X79528890Y-76197036D01*
X79413175Y-76397460D01*
X79413168Y-76397475D01*
X79324608Y-76611280D01*
X79264707Y-76834832D01*
X79234501Y-77064272D01*
X79234500Y-77064289D01*
X79234500Y-77295710D01*
X79234501Y-77295727D01*
X79264707Y-77525167D01*
X79324608Y-77748719D01*
X79413168Y-77962524D01*
X79413175Y-77962539D01*
X79528890Y-78162963D01*
X79669777Y-78346571D01*
X79669783Y-78346578D01*
X79685524Y-78362319D01*
X79719009Y-78423642D01*
X79714025Y-78493334D01*
X79685524Y-78537681D01*
X79669783Y-78553421D01*
X79669777Y-78553428D01*
X79528890Y-78737036D01*
X79413175Y-78937460D01*
X79413168Y-78937475D01*
X79324608Y-79151280D01*
X79264707Y-79374832D01*
X79234501Y-79604272D01*
X79234500Y-79604289D01*
X79234500Y-79835710D01*
X79234501Y-79835727D01*
X79264707Y-80065167D01*
X79324608Y-80288719D01*
X79413168Y-80502524D01*
X79413175Y-80502539D01*
X79528890Y-80702963D01*
X79669777Y-80886571D01*
X79669783Y-80886578D01*
X79685524Y-80902319D01*
X79719009Y-80963642D01*
X79714025Y-81033334D01*
X79685524Y-81077681D01*
X79669783Y-81093421D01*
X79669777Y-81093428D01*
X79528890Y-81277036D01*
X79413175Y-81477460D01*
X79413168Y-81477475D01*
X79324608Y-81691280D01*
X79264707Y-81914832D01*
X79250332Y-82024023D01*
X79234500Y-82144283D01*
X79234500Y-82375717D01*
X79264708Y-82605171D01*
X79309738Y-82773225D01*
X79324608Y-82828719D01*
X79413168Y-83042524D01*
X79413175Y-83042539D01*
X79528890Y-83242963D01*
X79669777Y-83426571D01*
X79669783Y-83426578D01*
X79685524Y-83442319D01*
X79719009Y-83503642D01*
X79714025Y-83573334D01*
X79685524Y-83617681D01*
X79669783Y-83633421D01*
X79669777Y-83633428D01*
X79528890Y-83817036D01*
X79413175Y-84017460D01*
X79413168Y-84017475D01*
X79324608Y-84231280D01*
X79264707Y-84454832D01*
X79234501Y-84684272D01*
X79234500Y-84684289D01*
X79234500Y-84915710D01*
X79234501Y-84915727D01*
X79264707Y-85145167D01*
X79324608Y-85368719D01*
X79413168Y-85582524D01*
X79413175Y-85582539D01*
X79528890Y-85782963D01*
X79669777Y-85966571D01*
X79669783Y-85966578D01*
X79685524Y-85982319D01*
X79719009Y-86043642D01*
X79714025Y-86113334D01*
X79685524Y-86157681D01*
X79669783Y-86173421D01*
X79669777Y-86173428D01*
X79528890Y-86357036D01*
X79413175Y-86557460D01*
X79413168Y-86557475D01*
X79324608Y-86771280D01*
X79264707Y-86994832D01*
X79234501Y-87224272D01*
X79234500Y-87224289D01*
X79234500Y-87455710D01*
X79234501Y-87455727D01*
X79264707Y-87685167D01*
X79324608Y-87908719D01*
X79413168Y-88122524D01*
X79413175Y-88122539D01*
X79528890Y-88322963D01*
X79669777Y-88506571D01*
X79669783Y-88506578D01*
X79685524Y-88522319D01*
X79719009Y-88583642D01*
X79714025Y-88653334D01*
X79685524Y-88697681D01*
X79669783Y-88713421D01*
X79669777Y-88713428D01*
X79528890Y-88897036D01*
X79413175Y-89097460D01*
X79413168Y-89097475D01*
X79324608Y-89311280D01*
X79264707Y-89534832D01*
X79234501Y-89764272D01*
X79234500Y-89764289D01*
X79234500Y-89995710D01*
X79234501Y-89995727D01*
X79264707Y-90225167D01*
X79324608Y-90448719D01*
X79413168Y-90662524D01*
X79413175Y-90662539D01*
X79528890Y-90862963D01*
X79669777Y-91046571D01*
X79669783Y-91046578D01*
X79685524Y-91062319D01*
X79719009Y-91123642D01*
X79714025Y-91193334D01*
X79685524Y-91237681D01*
X79669783Y-91253421D01*
X79669777Y-91253428D01*
X79528890Y-91437036D01*
X79413175Y-91637460D01*
X79413168Y-91637475D01*
X79324608Y-91851280D01*
X79264707Y-92074832D01*
X79234501Y-92304272D01*
X79234500Y-92304289D01*
X79234500Y-92535710D01*
X79234501Y-92535727D01*
X79264707Y-92765167D01*
X79324608Y-92988719D01*
X79413168Y-93202524D01*
X79413175Y-93202539D01*
X79528890Y-93402963D01*
X79669777Y-93586571D01*
X79669783Y-93586578D01*
X79685524Y-93602319D01*
X79719009Y-93663642D01*
X79714025Y-93733334D01*
X79685524Y-93777681D01*
X79669783Y-93793421D01*
X79669777Y-93793428D01*
X79528890Y-93977036D01*
X79413175Y-94177460D01*
X79413168Y-94177475D01*
X79324608Y-94391280D01*
X79264707Y-94614832D01*
X79234501Y-94844272D01*
X79234500Y-94844289D01*
X79234500Y-95075716D01*
X79263383Y-95295111D01*
X79264708Y-95305171D01*
X79294668Y-95416981D01*
X79324608Y-95528719D01*
X79413168Y-95742524D01*
X79413175Y-95742539D01*
X79528890Y-95942963D01*
X79669777Y-96126571D01*
X79669783Y-96126578D01*
X79685524Y-96142319D01*
X79719009Y-96203642D01*
X79714025Y-96273334D01*
X79685524Y-96317681D01*
X79669783Y-96333421D01*
X79669777Y-96333428D01*
X79528890Y-96517036D01*
X79413175Y-96717460D01*
X79413168Y-96717475D01*
X79324608Y-96931280D01*
X79264707Y-97154832D01*
X79234501Y-97384272D01*
X79234500Y-97384289D01*
X79234500Y-97615710D01*
X79234501Y-97615727D01*
X79264707Y-97845167D01*
X79324608Y-98068719D01*
X79413168Y-98282524D01*
X79413175Y-98282539D01*
X79528890Y-98482963D01*
X79669777Y-98666571D01*
X79669783Y-98666578D01*
X79833421Y-98830216D01*
X79833428Y-98830222D01*
X80017036Y-98971109D01*
X80217460Y-99086824D01*
X80217475Y-99086831D01*
X80286042Y-99115232D01*
X80431281Y-99175392D01*
X80654829Y-99235292D01*
X80884283Y-99265500D01*
X80884290Y-99265500D01*
X81115710Y-99265500D01*
X81115717Y-99265500D01*
X81345171Y-99235292D01*
X81568719Y-99175392D01*
X81782536Y-99086826D01*
X81982964Y-98971109D01*
X82166573Y-98830221D01*
X82330221Y-98666573D01*
X82471109Y-98482964D01*
X82586826Y-98282536D01*
X82675392Y-98068719D01*
X82735292Y-97845171D01*
X82765500Y-97615717D01*
X82765500Y-97384283D01*
X82735292Y-97154829D01*
X82675392Y-96931281D01*
X82586826Y-96717464D01*
X82471109Y-96517036D01*
X82330221Y-96333427D01*
X82314475Y-96317681D01*
X82280990Y-96256361D01*
X82285973Y-96186670D01*
X82314475Y-96142318D01*
X82330221Y-96126573D01*
X82471109Y-95942964D01*
X82586826Y-95742536D01*
X82675392Y-95528719D01*
X82735292Y-95305171D01*
X82765500Y-95075717D01*
X82765500Y-94844283D01*
X82735292Y-94614829D01*
X82675392Y-94391281D01*
X82624170Y-94267620D01*
X82586831Y-94177475D01*
X82586824Y-94177460D01*
X82471109Y-93977036D01*
X82392034Y-93873983D01*
X82330221Y-93793427D01*
X82314475Y-93777681D01*
X82280990Y-93716361D01*
X82285973Y-93646670D01*
X82314475Y-93602318D01*
X82330221Y-93586573D01*
X82471109Y-93402964D01*
X82586826Y-93202536D01*
X82675392Y-92988719D01*
X82735292Y-92765171D01*
X82765500Y-92535717D01*
X82765500Y-92304283D01*
X82735292Y-92074829D01*
X82675392Y-91851281D01*
X82601741Y-91673471D01*
X82586831Y-91637475D01*
X82586824Y-91637460D01*
X82471109Y-91437036D01*
X82330223Y-91253430D01*
X82330221Y-91253427D01*
X82314475Y-91237681D01*
X82280990Y-91176361D01*
X82285973Y-91106670D01*
X82314475Y-91062318D01*
X82330221Y-91046573D01*
X82471109Y-90862964D01*
X82586826Y-90662536D01*
X82675392Y-90448719D01*
X82735292Y-90225171D01*
X82765500Y-89995717D01*
X82765500Y-89764283D01*
X82735292Y-89534829D01*
X82675392Y-89311281D01*
X82606376Y-89144661D01*
X82586831Y-89097475D01*
X82586824Y-89097460D01*
X82471109Y-88897036D01*
X82414626Y-88823426D01*
X82330221Y-88713427D01*
X82314475Y-88697681D01*
X82280990Y-88636361D01*
X82285973Y-88566670D01*
X82314475Y-88522318D01*
X82330221Y-88506573D01*
X82471109Y-88322964D01*
X82586826Y-88122536D01*
X82675392Y-87908719D01*
X82735292Y-87685171D01*
X82765500Y-87455717D01*
X82765500Y-87224283D01*
X82735292Y-86994829D01*
X82675392Y-86771281D01*
X82586826Y-86557464D01*
X82471109Y-86357036D01*
X82330221Y-86173427D01*
X82314475Y-86157681D01*
X82280990Y-86096361D01*
X82285973Y-86026670D01*
X82314475Y-85982318D01*
X82330221Y-85966573D01*
X82471109Y-85782964D01*
X82586826Y-85582536D01*
X82675392Y-85368719D01*
X82735292Y-85145171D01*
X82765500Y-84915717D01*
X82765500Y-84684283D01*
X82735292Y-84454829D01*
X82675392Y-84231281D01*
X82586826Y-84017464D01*
X82533438Y-83924994D01*
X82471109Y-83817036D01*
X82435608Y-83770770D01*
X82425899Y-83745657D01*
X82412913Y-83722075D01*
X82413491Y-83713561D01*
X82410414Y-83705601D01*
X82415823Y-83679225D01*
X82417648Y-83652366D01*
X82422737Y-83645516D01*
X82424452Y-83637156D01*
X82443262Y-83617892D01*
X82459319Y-83596283D01*
X82470233Y-83590272D01*
X82473266Y-83587167D01*
X82490225Y-83579262D01*
X82621362Y-83529815D01*
X82690690Y-83503674D01*
X82734439Y-83495700D01*
X85392002Y-83495700D01*
X85454091Y-83512364D01*
X85740190Y-83677863D01*
X85788363Y-83728470D01*
X85801529Y-83797088D01*
X85785488Y-83847197D01*
X85740575Y-83924989D01*
X85740573Y-83924994D01*
X85647747Y-84149095D01*
X85584961Y-84383414D01*
X85553300Y-84623911D01*
X85553300Y-84866488D01*
X85584961Y-85106985D01*
X85647747Y-85341304D01*
X85740573Y-85565405D01*
X85740577Y-85565414D01*
X85750464Y-85582539D01*
X85861864Y-85775489D01*
X85861866Y-85775492D01*
X85861867Y-85775493D01*
X86009533Y-85967936D01*
X86009539Y-85967943D01*
X86181056Y-86139460D01*
X86181063Y-86139466D01*
X86225326Y-86173430D01*
X86373511Y-86287136D01*
X86583588Y-86408424D01*
X86807700Y-86501254D01*
X87042011Y-86564038D01*
X87222386Y-86587784D01*
X87282511Y-86595700D01*
X87282512Y-86595700D01*
X87825089Y-86595700D01*
X87873188Y-86589367D01*
X88065589Y-86564038D01*
X88299900Y-86501254D01*
X88524012Y-86408424D01*
X88734089Y-86287136D01*
X88926538Y-86139465D01*
X89098065Y-85967938D01*
X89245736Y-85775489D01*
X89367024Y-85565412D01*
X89459854Y-85341300D01*
X89522638Y-85106989D01*
X89554300Y-84866488D01*
X89554300Y-84623912D01*
X89522638Y-84383411D01*
X89459854Y-84149100D01*
X89367024Y-83924988D01*
X89367022Y-83924984D01*
X89274477Y-83764691D01*
X89258004Y-83696791D01*
X89279936Y-83632075D01*
X89289909Y-83617681D01*
X89359881Y-83516681D01*
X89395803Y-83464832D01*
X89395803Y-83464831D01*
X89395807Y-83464826D01*
X89488896Y-83259883D01*
X89543896Y-83041612D01*
X89554300Y-82909417D01*
X89554299Y-81580984D01*
X89543896Y-81448788D01*
X89488896Y-81230517D01*
X89395807Y-81025574D01*
X89341142Y-80946670D01*
X89267625Y-80840554D01*
X89267622Y-80840550D01*
X89267619Y-80840546D01*
X89108454Y-80681381D01*
X89108450Y-80681378D01*
X89108445Y-80681374D01*
X88923432Y-80553197D01*
X88923427Y-80553194D01*
X88923426Y-80553193D01*
X88923419Y-80553190D01*
X88718481Y-80460103D01*
X88718478Y-80460102D01*
X88500220Y-80405105D01*
X88500213Y-80405104D01*
X88456147Y-80401636D01*
X88368017Y-80394700D01*
X88368015Y-80394700D01*
X86739591Y-80394700D01*
X86739576Y-80394701D01*
X86607386Y-80405104D01*
X86607379Y-80405105D01*
X86389121Y-80460102D01*
X86389118Y-80460103D01*
X86184178Y-80553190D01*
X86184172Y-80553194D01*
X86166336Y-80565549D01*
X86157818Y-80570950D01*
X85454090Y-80978035D01*
X85392000Y-80994700D01*
X82724116Y-80994700D01*
X82719651Y-80993930D01*
X82717190Y-80994506D01*
X82682590Y-80987540D01*
X82505474Y-80924592D01*
X82448898Y-80883594D01*
X82423468Y-80818516D01*
X82437259Y-80750021D01*
X82448626Y-80732264D01*
X82471104Y-80702970D01*
X82471109Y-80702964D01*
X82586826Y-80502536D01*
X82675392Y-80288719D01*
X82735292Y-80065171D01*
X82765500Y-79835717D01*
X82765500Y-79604283D01*
X82735292Y-79374829D01*
X82675392Y-79151281D01*
X82586826Y-78937464D01*
X82471109Y-78737036D01*
X82330221Y-78553427D01*
X82314475Y-78537681D01*
X82280990Y-78476361D01*
X82285973Y-78406670D01*
X82314475Y-78362318D01*
X82330221Y-78346573D01*
X82471109Y-78162964D01*
X82586826Y-77962536D01*
X82675392Y-77748719D01*
X82735292Y-77525171D01*
X82765500Y-77295717D01*
X82765500Y-77064283D01*
X82735292Y-76834829D01*
X82675392Y-76611281D01*
X82602133Y-76434418D01*
X82586831Y-76397475D01*
X82586824Y-76397460D01*
X82471109Y-76197036D01*
X82371825Y-76067647D01*
X82330221Y-76013427D01*
X82314475Y-75997681D01*
X82280990Y-75936361D01*
X82285973Y-75866670D01*
X82314475Y-75822318D01*
X82330221Y-75806573D01*
X82471109Y-75622964D01*
X82586826Y-75422536D01*
X82675392Y-75208719D01*
X82735292Y-74985171D01*
X82765500Y-74755717D01*
X82765500Y-74524283D01*
X82735292Y-74294829D01*
X82675392Y-74071281D01*
X82586826Y-73857464D01*
X82471109Y-73657036D01*
X82330221Y-73473427D01*
X82314475Y-73457681D01*
X82280990Y-73396361D01*
X82285973Y-73326670D01*
X82314475Y-73282318D01*
X82330221Y-73266573D01*
X82471109Y-73082964D01*
X82586826Y-72882536D01*
X82675392Y-72668719D01*
X82735292Y-72445171D01*
X82765500Y-72215717D01*
X82765500Y-71984283D01*
X82735292Y-71754829D01*
X82675392Y-71531281D01*
X82586826Y-71317464D01*
X82471109Y-71117036D01*
X82330221Y-70933427D01*
X82314475Y-70917681D01*
X82280990Y-70856361D01*
X82285973Y-70786670D01*
X82314475Y-70742318D01*
X82330221Y-70726573D01*
X82471109Y-70542964D01*
X82586826Y-70342536D01*
X82675392Y-70128719D01*
X82735292Y-69905171D01*
X82765500Y-69675717D01*
X82765500Y-69444283D01*
X82735292Y-69214829D01*
X82675392Y-68991281D01*
X82586826Y-68777464D01*
X82471109Y-68577036D01*
X82330221Y-68393427D01*
X82314475Y-68377681D01*
X82280990Y-68316361D01*
X82285973Y-68246670D01*
X82314475Y-68202318D01*
X82330221Y-68186573D01*
X82471109Y-68002964D01*
X82586826Y-67802536D01*
X82675392Y-67588719D01*
X82735292Y-67365171D01*
X82765500Y-67135717D01*
X82765500Y-66904283D01*
X82735292Y-66674829D01*
X82675392Y-66451281D01*
X82606767Y-66285606D01*
X82586831Y-66237475D01*
X82586824Y-66237460D01*
X82471109Y-66037036D01*
X82377220Y-65914678D01*
X82330221Y-65853427D01*
X82314475Y-65837681D01*
X82280990Y-65776361D01*
X82285973Y-65706670D01*
X82314475Y-65662318D01*
X82330221Y-65646573D01*
X82471109Y-65462964D01*
X82586826Y-65262536D01*
X82675392Y-65048719D01*
X82735292Y-64825171D01*
X82765500Y-64595717D01*
X82765500Y-64364283D01*
X82735292Y-64134829D01*
X82675392Y-63911281D01*
X82617011Y-63770336D01*
X82586831Y-63697475D01*
X82586824Y-63697460D01*
X82471109Y-63497036D01*
X82408211Y-63415066D01*
X82330221Y-63313427D01*
X82314475Y-63297681D01*
X82280990Y-63236361D01*
X82285973Y-63166670D01*
X82314475Y-63122318D01*
X82330221Y-63106573D01*
X82471109Y-62922964D01*
X82586826Y-62722536D01*
X82675392Y-62508719D01*
X82735292Y-62285171D01*
X82765500Y-62055717D01*
X82765500Y-61824283D01*
X82735292Y-61594829D01*
X82675392Y-61371281D01*
X82586826Y-61157464D01*
X82512590Y-61028884D01*
X82471109Y-60957036D01*
X82451662Y-60931692D01*
X82330221Y-60773427D01*
X82314475Y-60757681D01*
X82280990Y-60696361D01*
X82285973Y-60626670D01*
X82314475Y-60582318D01*
X82330221Y-60566573D01*
X82471109Y-60382964D01*
X82586826Y-60182536D01*
X82675392Y-59968719D01*
X82735292Y-59745171D01*
X82765500Y-59515717D01*
X82765500Y-59284283D01*
X82735292Y-59054829D01*
X82675392Y-58831281D01*
X82586826Y-58617464D01*
X82583989Y-58612551D01*
X82471109Y-58417036D01*
X82330223Y-58233430D01*
X82330221Y-58233427D01*
X82314475Y-58217681D01*
X82280990Y-58156361D01*
X82285973Y-58086670D01*
X82314475Y-58042318D01*
X82330221Y-58026573D01*
X82471109Y-57842964D01*
X82586826Y-57642536D01*
X82675392Y-57428719D01*
X82735292Y-57205171D01*
X82765500Y-56975717D01*
X82765500Y-56744283D01*
X82735292Y-56514829D01*
X82675392Y-56291281D01*
X82586828Y-56077470D01*
X82586824Y-56077460D01*
X82471108Y-55877034D01*
X82359995Y-55732229D01*
X82330221Y-55693427D01*
X82314475Y-55677681D01*
X82280990Y-55616361D01*
X82285973Y-55546670D01*
X82314475Y-55502318D01*
X82330221Y-55486573D01*
X82471109Y-55302964D01*
X82586826Y-55102536D01*
X82675392Y-54888719D01*
X82735292Y-54665171D01*
X82765500Y-54435717D01*
X82765500Y-54204283D01*
X82735292Y-53974829D01*
X82675392Y-53751281D01*
X82586826Y-53537464D01*
X82471109Y-53337036D01*
X82330221Y-53153427D01*
X82314475Y-53137681D01*
X82280990Y-53076361D01*
X82285973Y-53006670D01*
X82314475Y-52962318D01*
X82330221Y-52946573D01*
X82471109Y-52762964D01*
X82586826Y-52562536D01*
X82675392Y-52348719D01*
X82735292Y-52125171D01*
X82765500Y-51895717D01*
X82765500Y-51664283D01*
X82735292Y-51434829D01*
X82675392Y-51211281D01*
X82586826Y-50997464D01*
X82563548Y-50957146D01*
X82471109Y-50797036D01*
X82431322Y-50745185D01*
X82330221Y-50613427D01*
X82314475Y-50597681D01*
X82280990Y-50536361D01*
X82285973Y-50466670D01*
X82314475Y-50422318D01*
X82330221Y-50406573D01*
X82471109Y-50222964D01*
X82586826Y-50022536D01*
X82675392Y-49808719D01*
X82735292Y-49585171D01*
X82765500Y-49355717D01*
X82765500Y-49124283D01*
X82735292Y-48894829D01*
X82675392Y-48671281D01*
X82586826Y-48457464D01*
X82553292Y-48399382D01*
X82471109Y-48257036D01*
X82330223Y-48073430D01*
X82330221Y-48073427D01*
X82314475Y-48057681D01*
X82280990Y-47996361D01*
X82285973Y-47926670D01*
X82314475Y-47882318D01*
X82330221Y-47866573D01*
X82471109Y-47682964D01*
X82586826Y-47482536D01*
X82675392Y-47268719D01*
X82735292Y-47045171D01*
X82765500Y-46815717D01*
X82765500Y-46584283D01*
X82735292Y-46354829D01*
X82675392Y-46131281D01*
X82586826Y-45917464D01*
X82471109Y-45717036D01*
X82330221Y-45533427D01*
X82314475Y-45517681D01*
X82280990Y-45456361D01*
X82285973Y-45386670D01*
X82314475Y-45342318D01*
X82330221Y-45326573D01*
X82471109Y-45142964D01*
X82586826Y-44942536D01*
X82675392Y-44728719D01*
X82735292Y-44505171D01*
X82765500Y-44275717D01*
X82765500Y-44044283D01*
X82735292Y-43814829D01*
X82675392Y-43591281D01*
X82611610Y-43437297D01*
X82586831Y-43377475D01*
X82586824Y-43377460D01*
X82471109Y-43177036D01*
X82330222Y-42993428D01*
X82330216Y-42993421D01*
X82166578Y-42829783D01*
X82166571Y-42829777D01*
X81982963Y-42688890D01*
X81782539Y-42573175D01*
X81782524Y-42573168D01*
X81568719Y-42484608D01*
X81345167Y-42424707D01*
X81115727Y-42394501D01*
X81115722Y-42394500D01*
X81115717Y-42394500D01*
X80884283Y-42394500D01*
X80884277Y-42394500D01*
X80884272Y-42394501D01*
X80654832Y-42424707D01*
X80431280Y-42484608D01*
X80217475Y-42573168D01*
X80217460Y-42573175D01*
X80017036Y-42688890D01*
X79833428Y-42829777D01*
X79833421Y-42829783D01*
X79669783Y-42993421D01*
X79669777Y-42993428D01*
X79528890Y-43177036D01*
X79413175Y-43377460D01*
X79413168Y-43377475D01*
X79324608Y-43591280D01*
X79264707Y-43814832D01*
X79234501Y-44044272D01*
X79234500Y-44044289D01*
X77450500Y-44044289D01*
X77450500Y-41209336D01*
X77470185Y-41142297D01*
X77486819Y-41121655D01*
X78460792Y-40147682D01*
X85060000Y-40147682D01*
X85060000Y-40352317D01*
X85092009Y-40554417D01*
X85155244Y-40749031D01*
X85248141Y-40931350D01*
X85248147Y-40931359D01*
X85280523Y-40975921D01*
X85280524Y-40975922D01*
X85960000Y-40296446D01*
X85960000Y-40302661D01*
X85987259Y-40404394D01*
X86039920Y-40495606D01*
X86114394Y-40570080D01*
X86205606Y-40622741D01*
X86307339Y-40650000D01*
X86313553Y-40650000D01*
X85634076Y-41329474D01*
X85678650Y-41361859D01*
X85860968Y-41454755D01*
X86055582Y-41517990D01*
X86257683Y-41550000D01*
X86462317Y-41550000D01*
X86664417Y-41517990D01*
X86859031Y-41454755D01*
X87041349Y-41361859D01*
X87085921Y-41329474D01*
X86406447Y-40650000D01*
X86412661Y-40650000D01*
X86514394Y-40622741D01*
X86605606Y-40570080D01*
X86680080Y-40495606D01*
X86732741Y-40404394D01*
X86760000Y-40302661D01*
X86760000Y-40296447D01*
X87439474Y-40975921D01*
X87471859Y-40931349D01*
X87564755Y-40749031D01*
X87627990Y-40554417D01*
X87660000Y-40352317D01*
X87660000Y-40147682D01*
X89040000Y-40147682D01*
X89040000Y-40352317D01*
X89072009Y-40554417D01*
X89135244Y-40749031D01*
X89228141Y-40931350D01*
X89228147Y-40931359D01*
X89260523Y-40975921D01*
X89260524Y-40975922D01*
X89940000Y-40296446D01*
X89940000Y-40302661D01*
X89967259Y-40404394D01*
X90019920Y-40495606D01*
X90094394Y-40570080D01*
X90185606Y-40622741D01*
X90287339Y-40650000D01*
X90293553Y-40650000D01*
X89614076Y-41329474D01*
X89658650Y-41361859D01*
X89840968Y-41454755D01*
X90035582Y-41517990D01*
X90237683Y-41550000D01*
X90442317Y-41550000D01*
X90644417Y-41517990D01*
X90839031Y-41454755D01*
X91021349Y-41361859D01*
X91065921Y-41329474D01*
X90386447Y-40650000D01*
X90392661Y-40650000D01*
X90494394Y-40622741D01*
X90585606Y-40570080D01*
X90660080Y-40495606D01*
X90712741Y-40404394D01*
X90740000Y-40302661D01*
X90740000Y-40296447D01*
X91419474Y-40975921D01*
X91451859Y-40931349D01*
X91544755Y-40749031D01*
X91607990Y-40554417D01*
X91640000Y-40352317D01*
X91640000Y-40147682D01*
X91607990Y-39945582D01*
X91544755Y-39750968D01*
X91451859Y-39568650D01*
X91419474Y-39524077D01*
X91419474Y-39524076D01*
X90740000Y-40203551D01*
X90740000Y-40197339D01*
X90712741Y-40095606D01*
X90660080Y-40004394D01*
X90585606Y-39929920D01*
X90494394Y-39877259D01*
X90392661Y-39850000D01*
X90386446Y-39850000D01*
X91065922Y-39170524D01*
X91065921Y-39170523D01*
X91021359Y-39138147D01*
X91021350Y-39138141D01*
X90839031Y-39045244D01*
X90644417Y-38982009D01*
X90442317Y-38950000D01*
X90237683Y-38950000D01*
X90035582Y-38982009D01*
X89840968Y-39045244D01*
X89658644Y-39138143D01*
X89614077Y-39170523D01*
X89614077Y-39170524D01*
X90293554Y-39850000D01*
X90287339Y-39850000D01*
X90185606Y-39877259D01*
X90094394Y-39929920D01*
X90019920Y-40004394D01*
X89967259Y-40095606D01*
X89940000Y-40197339D01*
X89940000Y-40203553D01*
X89260524Y-39524077D01*
X89260523Y-39524077D01*
X89228143Y-39568644D01*
X89135244Y-39750968D01*
X89072009Y-39945582D01*
X89040000Y-40147682D01*
X87660000Y-40147682D01*
X87627990Y-39945582D01*
X87564755Y-39750968D01*
X87471859Y-39568650D01*
X87439474Y-39524077D01*
X87439474Y-39524076D01*
X86760000Y-40203551D01*
X86760000Y-40197339D01*
X86732741Y-40095606D01*
X86680080Y-40004394D01*
X86605606Y-39929920D01*
X86514394Y-39877259D01*
X86412661Y-39850000D01*
X86406446Y-39850000D01*
X87085922Y-39170524D01*
X87085921Y-39170523D01*
X87041359Y-39138147D01*
X87041350Y-39138141D01*
X86859031Y-39045244D01*
X86664417Y-38982009D01*
X86462317Y-38950000D01*
X86257683Y-38950000D01*
X86055582Y-38982009D01*
X85860968Y-39045244D01*
X85678644Y-39138143D01*
X85634077Y-39170523D01*
X85634077Y-39170524D01*
X86313554Y-39850000D01*
X86307339Y-39850000D01*
X86205606Y-39877259D01*
X86114394Y-39929920D01*
X86039920Y-40004394D01*
X85987259Y-40095606D01*
X85960000Y-40197339D01*
X85960000Y-40203553D01*
X85280524Y-39524077D01*
X85280523Y-39524077D01*
X85248143Y-39568644D01*
X85155244Y-39750968D01*
X85092009Y-39945582D01*
X85060000Y-40147682D01*
X78460792Y-40147682D01*
X79478372Y-39130102D01*
X79563230Y-39045244D01*
X79693828Y-38914646D01*
X79809523Y-38755406D01*
X79809884Y-38754699D01*
X79898884Y-38580025D01*
X79959709Y-38392826D01*
X79971753Y-38316786D01*
X79972174Y-38314128D01*
X79990500Y-38198421D01*
X79990500Y-32511351D01*
X79998762Y-32466846D01*
X80213603Y-31908146D01*
X80388016Y-31454578D01*
X80396362Y-31437095D01*
X80403224Y-31425212D01*
X80496054Y-31201100D01*
X80558838Y-30966789D01*
X80563509Y-30931306D01*
X80564160Y-30928737D01*
X80564324Y-30925114D01*
X80590500Y-30726288D01*
X80590500Y-30233712D01*
X80587116Y-30208011D01*
X80558838Y-29993214D01*
X80558838Y-29993211D01*
X80496054Y-29758900D01*
X80403224Y-29534788D01*
X80281936Y-29324711D01*
X80221018Y-29245321D01*
X80134266Y-29132263D01*
X80134260Y-29132256D01*
X79962743Y-28960739D01*
X79962736Y-28960733D01*
X79770293Y-28813067D01*
X79770292Y-28813066D01*
X79770289Y-28813064D01*
X79560212Y-28691776D01*
X79560205Y-28691773D01*
X79336104Y-28598947D01*
X79101785Y-28536161D01*
X78861289Y-28504500D01*
X78861288Y-28504500D01*
X78618712Y-28504500D01*
X78618711Y-28504500D01*
X78378214Y-28536161D01*
X78143895Y-28598947D01*
X77919794Y-28691773D01*
X77919785Y-28691777D01*
X77709706Y-28813067D01*
X77565486Y-28923731D01*
X77500317Y-28948925D01*
X77431872Y-28934887D01*
X77414514Y-28923731D01*
X77270293Y-28813067D01*
X77270292Y-28813066D01*
X77270289Y-28813064D01*
X77060212Y-28691776D01*
X77060205Y-28691773D01*
X76836104Y-28598947D01*
X76601785Y-28536161D01*
X76361289Y-28504500D01*
X76361288Y-28504500D01*
X76118712Y-28504500D01*
X76118711Y-28504500D01*
X75878214Y-28536161D01*
X75643895Y-28598947D01*
X75419794Y-28691773D01*
X75419777Y-28691781D01*
X75263412Y-28782058D01*
X75245280Y-28786456D01*
X75228994Y-28795565D01*
X75212029Y-28794523D01*
X75195512Y-28798531D01*
X75177879Y-28792427D01*
X75159255Y-28791285D01*
X75145546Y-28781237D01*
X75129485Y-28775678D01*
X75117949Y-28761009D01*
X75102902Y-28749980D01*
X75087209Y-28721919D01*
X75086295Y-28720757D01*
X75085713Y-28719273D01*
X75007126Y-28514904D01*
X74998762Y-28493153D01*
X74998762Y-28493152D01*
X74990500Y-28448648D01*
X74990500Y-27829336D01*
X75010185Y-27762297D01*
X75026819Y-27741655D01*
X75481655Y-27286819D01*
X75542978Y-27253334D01*
X75569336Y-27250500D01*
X84430664Y-27250500D01*
X84497703Y-27270185D01*
X84518345Y-27286819D01*
X85073181Y-27841655D01*
X85106666Y-27902978D01*
X85109500Y-27929336D01*
X85109500Y-28287579D01*
X85101634Y-28331041D01*
X84745146Y-29283593D01*
X84743170Y-29288171D01*
X84743265Y-29288211D01*
X84651392Y-29510010D01*
X84651391Y-29510013D01*
X84624340Y-29610963D01*
X84624341Y-29610964D01*
X84623436Y-29614339D01*
X84613176Y-29645529D01*
X84612662Y-29647333D01*
X84596323Y-29712984D01*
X84595851Y-29717292D01*
X84593594Y-29725717D01*
X84593592Y-29725718D01*
X84590307Y-29737981D01*
X84559501Y-29971979D01*
X84559500Y-29971995D01*
X84559500Y-30208004D01*
X84559501Y-30208020D01*
X84590306Y-30442010D01*
X84651394Y-30669993D01*
X84741714Y-30888045D01*
X84741719Y-30888056D01*
X84812677Y-31010957D01*
X84859727Y-31092450D01*
X84859729Y-31092453D01*
X84859730Y-31092454D01*
X85003406Y-31279697D01*
X85003412Y-31279704D01*
X85170295Y-31446587D01*
X85170301Y-31446592D01*
X85357550Y-31590273D01*
X85488918Y-31666118D01*
X85561943Y-31708280D01*
X85561948Y-31708282D01*
X85561951Y-31708284D01*
X85780007Y-31798606D01*
X86007986Y-31859693D01*
X86241989Y-31890500D01*
X86241996Y-31890500D01*
X86478004Y-31890500D01*
X86478011Y-31890500D01*
X86712014Y-31859693D01*
X86939993Y-31798606D01*
X87158049Y-31708284D01*
X87362450Y-31590273D01*
X87549699Y-31446592D01*
X87716592Y-31279699D01*
X87860273Y-31092450D01*
X87978284Y-30888049D01*
X88068606Y-30669993D01*
X88129693Y-30442014D01*
X88160500Y-30208011D01*
X88160500Y-29971989D01*
X88129693Y-29737986D01*
X88068606Y-29510007D01*
X87978284Y-29291951D01*
X87976731Y-29288201D01*
X87976828Y-29288160D01*
X87974844Y-29283574D01*
X87925002Y-29150394D01*
X87662378Y-28448646D01*
X87618366Y-28331042D01*
X87610500Y-28287580D01*
X87610500Y-27261577D01*
X87579709Y-27067173D01*
X87547217Y-26967174D01*
X87518884Y-26879975D01*
X87518882Y-26879972D01*
X87518882Y-26879970D01*
X87448367Y-26741577D01*
X87429524Y-26704595D01*
X87313828Y-26545354D01*
X87174646Y-26406172D01*
X86730655Y-25962181D01*
X86697170Y-25900858D01*
X86702154Y-25831166D01*
X86744026Y-25775233D01*
X86809490Y-25750816D01*
X86818336Y-25750500D01*
X87430664Y-25750500D01*
X87497703Y-25770185D01*
X87518345Y-25786819D01*
X89053181Y-27321655D01*
X89086666Y-27382978D01*
X89089500Y-27409336D01*
X89089500Y-28287579D01*
X89081634Y-28331041D01*
X88725146Y-29283593D01*
X88723170Y-29288171D01*
X88723265Y-29288211D01*
X88631392Y-29510010D01*
X88631391Y-29510013D01*
X88604340Y-29610963D01*
X88604341Y-29610964D01*
X88603436Y-29614339D01*
X88593176Y-29645529D01*
X88592662Y-29647333D01*
X88576323Y-29712984D01*
X88575851Y-29717292D01*
X88573594Y-29725717D01*
X88573592Y-29725718D01*
X88570307Y-29737981D01*
X88539501Y-29971979D01*
X88539500Y-29971995D01*
X88539500Y-30208004D01*
X88539501Y-30208020D01*
X88570306Y-30442010D01*
X88631394Y-30669993D01*
X88721714Y-30888045D01*
X88721719Y-30888056D01*
X88792677Y-31010957D01*
X88839727Y-31092450D01*
X88839729Y-31092453D01*
X88839730Y-31092454D01*
X88983406Y-31279697D01*
X88983412Y-31279704D01*
X89150295Y-31446587D01*
X89150301Y-31446592D01*
X89337550Y-31590273D01*
X89468918Y-31666118D01*
X89541943Y-31708280D01*
X89541948Y-31708282D01*
X89541951Y-31708284D01*
X89760007Y-31798606D01*
X89987986Y-31859693D01*
X90221989Y-31890500D01*
X90221996Y-31890500D01*
X90458004Y-31890500D01*
X90458011Y-31890500D01*
X90692014Y-31859693D01*
X90919993Y-31798606D01*
X91138049Y-31708284D01*
X91342450Y-31590273D01*
X91529699Y-31446592D01*
X91696592Y-31279699D01*
X91840273Y-31092450D01*
X91958284Y-30888049D01*
X92048606Y-30669993D01*
X92109693Y-30442014D01*
X92140500Y-30208011D01*
X92140500Y-29971989D01*
X92109693Y-29737986D01*
X92048606Y-29510007D01*
X91958284Y-29291951D01*
X91956731Y-29288201D01*
X91956828Y-29288160D01*
X91954844Y-29283574D01*
X91905002Y-29150394D01*
X91642378Y-28448646D01*
X91598366Y-28331042D01*
X91590500Y-28287580D01*
X91590500Y-26741577D01*
X91559709Y-26547175D01*
X91559118Y-26545354D01*
X91537891Y-26480025D01*
X91498884Y-26359974D01*
X91409524Y-26184595D01*
X91394742Y-26164250D01*
X91293834Y-26025360D01*
X91293830Y-26025355D01*
X88814648Y-23546174D01*
X88814647Y-23546173D01*
X88814646Y-23546172D01*
X88655405Y-23430476D01*
X88480030Y-23341117D01*
X88292826Y-23280290D01*
X88098422Y-23249500D01*
X88098417Y-23249500D01*
X61401583Y-23249500D01*
X61401578Y-23249500D01*
X61207173Y-23280290D01*
X61019969Y-23341117D01*
X60844594Y-23430476D01*
X60753742Y-23496484D01*
X60685355Y-23546171D01*
X60685353Y-23546173D01*
X60685352Y-23546173D01*
X57546174Y-26685351D01*
X57546174Y-26685352D01*
X57546172Y-26685354D01*
X57532193Y-26704595D01*
X57430476Y-26844594D01*
X57341117Y-27019969D01*
X57280290Y-27207173D01*
X57249500Y-27401577D01*
X57249500Y-28448646D01*
X57248317Y-28455017D01*
X57249088Y-28458742D01*
X57241238Y-28493152D01*
X57229649Y-28523289D01*
X57187214Y-28578796D01*
X57121506Y-28602550D01*
X57062632Y-28591683D01*
X57034260Y-28578796D01*
X57014677Y-28569901D01*
X56796420Y-28514905D01*
X56796413Y-28514904D01*
X56752347Y-28511436D01*
X56664217Y-28504500D01*
X56664215Y-28504500D01*
X55335791Y-28504500D01*
X55335776Y-28504501D01*
X55203586Y-28514904D01*
X55203579Y-28514905D01*
X54985321Y-28569902D01*
X54985318Y-28569903D01*
X54780377Y-28662991D01*
X54780367Y-28662997D01*
X54595354Y-28791174D01*
X54595342Y-28791184D01*
X54436184Y-28950342D01*
X54436174Y-28950354D01*
X54307997Y-29135367D01*
X54307991Y-29135377D01*
X54214903Y-29340318D01*
X54214902Y-29340321D01*
X54159905Y-29558579D01*
X54159904Y-29558586D01*
X54149500Y-29690777D01*
X54149500Y-31269208D01*
X54149501Y-31269223D01*
X54159904Y-31401413D01*
X54159905Y-31401420D01*
X54214902Y-31619678D01*
X54214903Y-31619681D01*
X54307991Y-31824622D01*
X54307997Y-31824632D01*
X54436174Y-32009645D01*
X54436178Y-32009650D01*
X54436181Y-32009654D01*
X54595346Y-32168819D01*
X54595350Y-32168822D01*
X54595354Y-32168825D01*
X54654813Y-32210018D01*
X54780374Y-32297007D01*
X54985317Y-32390096D01*
X54985321Y-32390097D01*
X55203579Y-32445094D01*
X55203581Y-32445094D01*
X55203588Y-32445096D01*
X55335783Y-32455500D01*
X56664216Y-32455499D01*
X56796412Y-32445096D01*
X57014683Y-32390096D01*
X57219626Y-32297007D01*
X57386875Y-32181135D01*
X57453191Y-32159139D01*
X57519491Y-32175677D01*
X57679784Y-32268222D01*
X57679785Y-32268222D01*
X57679788Y-32268224D01*
X57903900Y-32361054D01*
X58138211Y-32423838D01*
X58318586Y-32447584D01*
X58378711Y-32455500D01*
X58378712Y-32455500D01*
X58621289Y-32455500D01*
X58669388Y-32449167D01*
X58861789Y-32423838D01*
X59096100Y-32361054D01*
X59320212Y-32268224D01*
X59476585Y-32177941D01*
X59494718Y-32173542D01*
X59511002Y-32164436D01*
X59527964Y-32165476D01*
X59544484Y-32161469D01*
X59562118Y-32167572D01*
X59580740Y-32168715D01*
X59594447Y-32178761D01*
X59610511Y-32184321D01*
X59622044Y-32198987D01*
X59637095Y-32210018D01*
X59652791Y-32238087D01*
X59653701Y-32239243D01*
X59654322Y-32240823D01*
X59700556Y-32361054D01*
X59736874Y-32455499D01*
X59741238Y-32466846D01*
X59749500Y-32511352D01*
X59749500Y-35698423D01*
X59762780Y-35782274D01*
X59753825Y-35851567D01*
X59708828Y-35905019D01*
X59642077Y-35925658D01*
X59574763Y-35906933D01*
X59552626Y-35889352D01*
X56821648Y-33158374D01*
X56821646Y-33158372D01*
X56662405Y-33042676D01*
X56487030Y-32953317D01*
X56299826Y-32892490D01*
X56105422Y-32861700D01*
X56105417Y-32861700D01*
X43329216Y-32861700D01*
X43132383Y-32861700D01*
X43132378Y-32861700D01*
X42937973Y-32892490D01*
X42750769Y-32953317D01*
X42575394Y-33042676D01*
X42489109Y-33105367D01*
X42416154Y-33158372D01*
X42416152Y-33158374D01*
X42416151Y-33158374D01*
X41159374Y-34415151D01*
X41159374Y-34415152D01*
X41159372Y-34415154D01*
X41109685Y-34483541D01*
X41043676Y-34574394D01*
X40954317Y-34749769D01*
X40942790Y-34785246D01*
X40936795Y-34803700D01*
X40936794Y-34803702D01*
X40893490Y-34936976D01*
X40878223Y-35033367D01*
X40876783Y-35037605D01*
X40876966Y-35040095D01*
X40864696Y-35073187D01*
X40853903Y-35093043D01*
X40804592Y-35142542D01*
X40736347Y-35157525D01*
X40670836Y-35133233D01*
X40669472Y-35132201D01*
X40643487Y-35112262D01*
X40433415Y-34990977D01*
X40433405Y-34990973D01*
X40209304Y-34898147D01*
X39974985Y-34835361D01*
X39734489Y-34803700D01*
X39734488Y-34803700D01*
X39491912Y-34803700D01*
X39491911Y-34803700D01*
X39251414Y-34835361D01*
X39017095Y-34898147D01*
X38792994Y-34990973D01*
X38792985Y-34990977D01*
X38650594Y-35073187D01*
X38582915Y-35112262D01*
X38582906Y-35112267D01*
X38390463Y-35259933D01*
X38390456Y-35259939D01*
X38218939Y-35431456D01*
X38116386Y-35565106D01*
X38059958Y-35606308D01*
X37990212Y-35610463D01*
X37945125Y-35589937D01*
X37820757Y-35499579D01*
X37631415Y-35403103D01*
X37429324Y-35337441D01*
X37363200Y-35326968D01*
X37363200Y-36375054D01*
X37296543Y-36336570D01*
X37175735Y-36304200D01*
X37050665Y-36304200D01*
X36929857Y-36336570D01*
X36863200Y-36375054D01*
X36863200Y-35326968D01*
X36863199Y-35326968D01*
X36797075Y-35337441D01*
X36594984Y-35403103D01*
X36405642Y-35499579D01*
X36233740Y-35624472D01*
X36233735Y-35624476D01*
X36083476Y-35774735D01*
X36083472Y-35774740D01*
X35958579Y-35946642D01*
X35862104Y-36135982D01*
X35796442Y-36338069D01*
X35796442Y-36338072D01*
X35766170Y-36529200D01*
X36709054Y-36529200D01*
X36670570Y-36595857D01*
X36638200Y-36716665D01*
X36638200Y-36841735D01*
X36670570Y-36962543D01*
X36709054Y-37029200D01*
X35766170Y-37029200D01*
X35796442Y-37220327D01*
X35796442Y-37220330D01*
X35862104Y-37422417D01*
X35958579Y-37611757D01*
X36083472Y-37783659D01*
X36083476Y-37783664D01*
X36233735Y-37933923D01*
X36233740Y-37933927D01*
X36405642Y-38058820D01*
X36594982Y-38155295D01*
X36797071Y-38220957D01*
X36863200Y-38231431D01*
X36863200Y-37183345D01*
X36929857Y-37221830D01*
X37050665Y-37254200D01*
X37175735Y-37254200D01*
X37296543Y-37221830D01*
X37363200Y-37183345D01*
X37363200Y-38231430D01*
X37429326Y-38220957D01*
X37429329Y-38220957D01*
X37631417Y-38155295D01*
X37820754Y-38058822D01*
X37945124Y-37968462D01*
X38010930Y-37944982D01*
X38078984Y-37960807D01*
X38116386Y-37993294D01*
X38218933Y-38126936D01*
X38218939Y-38126943D01*
X38390456Y-38298460D01*
X38390462Y-38298465D01*
X38582911Y-38446136D01*
X38792988Y-38567424D01*
X39017100Y-38660254D01*
X39251411Y-38723038D01*
X39431786Y-38746784D01*
X39491911Y-38754700D01*
X39491912Y-38754700D01*
X39734489Y-38754700D01*
X39782588Y-38748367D01*
X39974989Y-38723038D01*
X40209300Y-38660254D01*
X40433412Y-38567424D01*
X40589785Y-38477141D01*
X40607918Y-38472742D01*
X40624202Y-38463636D01*
X40641164Y-38464676D01*
X40657684Y-38460669D01*
X40675318Y-38466772D01*
X40693940Y-38467915D01*
X40707647Y-38477961D01*
X40723711Y-38483521D01*
X40735244Y-38498187D01*
X40750295Y-38509218D01*
X40765991Y-38537287D01*
X40766901Y-38538443D01*
X40767522Y-38540023D01*
X40813756Y-38660254D01*
X40850092Y-38754746D01*
X40854438Y-38766046D01*
X40862700Y-38810552D01*
X40862700Y-41097846D01*
X40854438Y-41142352D01*
X40767522Y-41368376D01*
X40725087Y-41423883D01*
X40659379Y-41447637D01*
X40591260Y-41432096D01*
X40589784Y-41431257D01*
X40433415Y-41340977D01*
X40433405Y-41340973D01*
X40209304Y-41248147D01*
X40038153Y-41202287D01*
X39974989Y-41185362D01*
X39974988Y-41185361D01*
X39974985Y-41185361D01*
X39734489Y-41153700D01*
X39734488Y-41153700D01*
X39491912Y-41153700D01*
X39491911Y-41153700D01*
X39251414Y-41185361D01*
X39017095Y-41248147D01*
X38792994Y-41340973D01*
X38792985Y-41340977D01*
X38582906Y-41462267D01*
X38390463Y-41609933D01*
X38390456Y-41609939D01*
X38218939Y-41781456D01*
X38116386Y-41915106D01*
X38059958Y-41956308D01*
X37990212Y-41960463D01*
X37945125Y-41939937D01*
X37820757Y-41849579D01*
X37631415Y-41753103D01*
X37429324Y-41687441D01*
X37363200Y-41676968D01*
X37363200Y-42725054D01*
X37296543Y-42686570D01*
X37175735Y-42654200D01*
X37050665Y-42654200D01*
X36929857Y-42686570D01*
X36863200Y-42725054D01*
X36863200Y-41676968D01*
X36863199Y-41676968D01*
X36797075Y-41687441D01*
X36594984Y-41753103D01*
X36405642Y-41849579D01*
X36233740Y-41974472D01*
X36233735Y-41974476D01*
X36083476Y-42124735D01*
X36083472Y-42124740D01*
X35958579Y-42296642D01*
X35862104Y-42485982D01*
X35796442Y-42688069D01*
X35796442Y-42688072D01*
X35766170Y-42879200D01*
X36709054Y-42879200D01*
X36670570Y-42945857D01*
X36638200Y-43066665D01*
X36638200Y-43191735D01*
X36670570Y-43312543D01*
X36709054Y-43379200D01*
X35766170Y-43379200D01*
X35796442Y-43570327D01*
X35796442Y-43570330D01*
X35862104Y-43772417D01*
X35958579Y-43961757D01*
X36083472Y-44133659D01*
X36083476Y-44133664D01*
X36233735Y-44283923D01*
X36233740Y-44283927D01*
X36405642Y-44408820D01*
X36594982Y-44505295D01*
X36797071Y-44570957D01*
X36863200Y-44581431D01*
X36863200Y-43533345D01*
X36929857Y-43571830D01*
X37050665Y-43604200D01*
X37175735Y-43604200D01*
X37296543Y-43571830D01*
X37363200Y-43533345D01*
X37363200Y-44581430D01*
X37429326Y-44570957D01*
X37429329Y-44570957D01*
X37631417Y-44505295D01*
X37820754Y-44408822D01*
X37945124Y-44318462D01*
X38010930Y-44294982D01*
X38078984Y-44310807D01*
X38116386Y-44343294D01*
X38218933Y-44476936D01*
X38218939Y-44476943D01*
X38390456Y-44648460D01*
X38390463Y-44648466D01*
X38438685Y-44685468D01*
X38582911Y-44796136D01*
X38792988Y-44917424D01*
X39017100Y-45010254D01*
X39251411Y-45073038D01*
X39431786Y-45096784D01*
X39491911Y-45104700D01*
X39491912Y-45104700D01*
X39734489Y-45104700D01*
X39782588Y-45098367D01*
X39974989Y-45073038D01*
X40209300Y-45010254D01*
X40433412Y-44917424D01*
X40643489Y-44796136D01*
X40787716Y-44685466D01*
X40852883Y-44660274D01*
X40921327Y-44674312D01*
X40938676Y-44685461D01*
X41082911Y-44796136D01*
X41292988Y-44917424D01*
X41517100Y-45010254D01*
X41751411Y-45073038D01*
X41931786Y-45096784D01*
X41991911Y-45104700D01*
X41991912Y-45104700D01*
X42234489Y-45104700D01*
X42282588Y-45098367D01*
X42474989Y-45073038D01*
X42709300Y-45010254D01*
X42933412Y-44917424D01*
X43093712Y-44824874D01*
X43161606Y-44808403D01*
X43226323Y-44830335D01*
X43393567Y-44946203D01*
X43393571Y-44946205D01*
X43393574Y-44946207D01*
X43598517Y-45039296D01*
X43598521Y-45039297D01*
X43816779Y-45094294D01*
X43816781Y-45094294D01*
X43816788Y-45094296D01*
X43948983Y-45104700D01*
X45277416Y-45104699D01*
X45409612Y-45094296D01*
X45627883Y-45039296D01*
X45832826Y-44946207D01*
X46017854Y-44818019D01*
X46177019Y-44658854D01*
X46305207Y-44473826D01*
X46398296Y-44268883D01*
X46453296Y-44050612D01*
X46463700Y-43918417D01*
X46463699Y-42339984D01*
X46453296Y-42207788D01*
X46398296Y-41989517D01*
X46305207Y-41784574D01*
X46292846Y-41766732D01*
X46287439Y-41758206D01*
X45880365Y-41054492D01*
X45863700Y-40992402D01*
X45863700Y-38915995D01*
X45880364Y-38853906D01*
X46169077Y-38354803D01*
X46207018Y-38314131D01*
X46596831Y-38050931D01*
X46663407Y-38029732D01*
X46666219Y-38029700D01*
X55981930Y-38029700D01*
X56048969Y-38049385D01*
X56069611Y-38066019D01*
X57184411Y-39180819D01*
X57217896Y-39242142D01*
X57212912Y-39311834D01*
X57171040Y-39367767D01*
X57105576Y-39392184D01*
X57096730Y-39392500D01*
X52833844Y-39392500D01*
X52639438Y-39423291D01*
X52578614Y-39443053D01*
X52578614Y-39443054D01*
X52535369Y-39457105D01*
X52452236Y-39484117D01*
X52282749Y-39570476D01*
X52282748Y-39570475D01*
X52276866Y-39573473D01*
X52276856Y-39573478D01*
X52157573Y-39660144D01*
X52117620Y-39689172D01*
X52117618Y-39689174D01*
X52117617Y-39689174D01*
X49058774Y-42748017D01*
X49058774Y-42748018D01*
X49058772Y-42748020D01*
X49057984Y-42749105D01*
X48943076Y-42907260D01*
X48853714Y-43082642D01*
X48803946Y-43235816D01*
X48792891Y-43269838D01*
X48792890Y-43269843D01*
X48762100Y-43464243D01*
X48762100Y-47538264D01*
X48753455Y-47567704D01*
X48746932Y-47597691D01*
X48743177Y-47602706D01*
X48742415Y-47605303D01*
X48725781Y-47625945D01*
X48595945Y-47755781D01*
X48534622Y-47789266D01*
X48508264Y-47792100D01*
X46666222Y-47792100D01*
X46599183Y-47772415D01*
X46596855Y-47770882D01*
X46369488Y-47617364D01*
X46369485Y-47617362D01*
X46175422Y-47486331D01*
X46108265Y-47440987D01*
X46089973Y-47425900D01*
X46017857Y-47353784D01*
X46017854Y-47353781D01*
X46017850Y-47353778D01*
X46017845Y-47353774D01*
X45832832Y-47225597D01*
X45832830Y-47225595D01*
X45832826Y-47225593D01*
X45691821Y-47161546D01*
X45627881Y-47132503D01*
X45627878Y-47132502D01*
X45409620Y-47077505D01*
X45409613Y-47077504D01*
X45365547Y-47074036D01*
X45277417Y-47067100D01*
X45277415Y-47067100D01*
X43948991Y-47067100D01*
X43948976Y-47067101D01*
X43816786Y-47077504D01*
X43816779Y-47077505D01*
X43598521Y-47132502D01*
X43598518Y-47132503D01*
X43393577Y-47225591D01*
X43393567Y-47225597D01*
X43226324Y-47341463D01*
X43160007Y-47363460D01*
X43093708Y-47346922D01*
X42933415Y-47254377D01*
X42933405Y-47254373D01*
X42709304Y-47161547D01*
X42474985Y-47098761D01*
X42234489Y-47067100D01*
X42234488Y-47067100D01*
X41991912Y-47067100D01*
X41991911Y-47067100D01*
X41751414Y-47098761D01*
X41517095Y-47161547D01*
X41292994Y-47254373D01*
X41292985Y-47254377D01*
X41082906Y-47375667D01*
X40938686Y-47486331D01*
X40873517Y-47511525D01*
X40805072Y-47497487D01*
X40787714Y-47486331D01*
X40643493Y-47375667D01*
X40643492Y-47375666D01*
X40643489Y-47375664D01*
X40433412Y-47254376D01*
X40433405Y-47254373D01*
X40209304Y-47161547D01*
X39974985Y-47098761D01*
X39734489Y-47067100D01*
X39734488Y-47067100D01*
X39491912Y-47067100D01*
X39491911Y-47067100D01*
X39251414Y-47098761D01*
X39017095Y-47161547D01*
X38792994Y-47254373D01*
X38792985Y-47254377D01*
X38582906Y-47375667D01*
X38390463Y-47523333D01*
X38390456Y-47523339D01*
X38218939Y-47694856D01*
X38116386Y-47828506D01*
X38059958Y-47869708D01*
X37990212Y-47873863D01*
X37945125Y-47853337D01*
X37820757Y-47762979D01*
X37631415Y-47666503D01*
X37429324Y-47600841D01*
X37363200Y-47590368D01*
X37363200Y-48638454D01*
X37296543Y-48599970D01*
X37175735Y-48567600D01*
X37050665Y-48567600D01*
X36929857Y-48599970D01*
X36863200Y-48638454D01*
X36863200Y-47590368D01*
X36863199Y-47590368D01*
X36797075Y-47600841D01*
X36594984Y-47666503D01*
X36405642Y-47762979D01*
X36233740Y-47887872D01*
X36233735Y-47887876D01*
X36083476Y-48038135D01*
X36083472Y-48038140D01*
X35958579Y-48210042D01*
X35862104Y-48399382D01*
X35796442Y-48601469D01*
X35796442Y-48601472D01*
X35766170Y-48792600D01*
X36709054Y-48792600D01*
X36670570Y-48859257D01*
X36638200Y-48980065D01*
X36638200Y-49105135D01*
X36670570Y-49225943D01*
X36709054Y-49292600D01*
X35766170Y-49292600D01*
X35796442Y-49483727D01*
X35796442Y-49483730D01*
X35862104Y-49685817D01*
X35958579Y-49875157D01*
X36083472Y-50047059D01*
X36083476Y-50047064D01*
X36233735Y-50197323D01*
X36233740Y-50197327D01*
X36405642Y-50322220D01*
X36594982Y-50418695D01*
X36797071Y-50484357D01*
X36863200Y-50494831D01*
X36863200Y-49446745D01*
X36929857Y-49485230D01*
X37050665Y-49517600D01*
X37175735Y-49517600D01*
X37296543Y-49485230D01*
X37363200Y-49446745D01*
X37363200Y-50494830D01*
X37429326Y-50484357D01*
X37429329Y-50484357D01*
X37631417Y-50418695D01*
X37820754Y-50322222D01*
X37945124Y-50231862D01*
X38010930Y-50208382D01*
X38078984Y-50224207D01*
X38116386Y-50256694D01*
X38218933Y-50390336D01*
X38218939Y-50390343D01*
X38390456Y-50561860D01*
X38390463Y-50561866D01*
X38437138Y-50597681D01*
X38582911Y-50709536D01*
X38792988Y-50830824D01*
X38988469Y-50911795D01*
X39003476Y-50918011D01*
X39017100Y-50923654D01*
X39251411Y-50986438D01*
X39431786Y-51010184D01*
X39491911Y-51018100D01*
X39491912Y-51018100D01*
X39734489Y-51018100D01*
X39782588Y-51011767D01*
X39974989Y-50986438D01*
X40209300Y-50923654D01*
X40433412Y-50830824D01*
X40592792Y-50738805D01*
X40660691Y-50722333D01*
X40726718Y-50745185D01*
X40769909Y-50800107D01*
X40770400Y-50801353D01*
X40882030Y-51089164D01*
X40888894Y-51114605D01*
X40893491Y-51143626D01*
X40954316Y-51330826D01*
X41043676Y-51506205D01*
X41159372Y-51665446D01*
X42144021Y-52650095D01*
X42303262Y-52765791D01*
X42478641Y-52855151D01*
X42478643Y-52855151D01*
X42478646Y-52855153D01*
X42478644Y-52855153D01*
X42602911Y-52895529D01*
X42602912Y-52895529D01*
X42634376Y-52905752D01*
X42665840Y-52915976D01*
X42860245Y-52946767D01*
X42860250Y-52946767D01*
X48645089Y-52946767D01*
X48839493Y-52915976D01*
X48902422Y-52895529D01*
X49026693Y-52855151D01*
X49202072Y-52765791D01*
X49361313Y-52650095D01*
X52467428Y-49543980D01*
X52583124Y-49384739D01*
X52672484Y-49209360D01*
X52733309Y-49022160D01*
X52754828Y-48886290D01*
X52764100Y-48827751D01*
X52764100Y-44753736D01*
X52783785Y-44686697D01*
X52800419Y-44666055D01*
X54035655Y-43430819D01*
X54062582Y-43416115D01*
X54088401Y-43399523D01*
X54094601Y-43398631D01*
X54096978Y-43397334D01*
X54123336Y-43394500D01*
X54181000Y-43394500D01*
X54248039Y-43414185D01*
X54293794Y-43466989D01*
X54305000Y-43518500D01*
X54305000Y-43910000D01*
X55125440Y-43910000D01*
X55094755Y-43963147D01*
X55060000Y-44092857D01*
X55060000Y-44227143D01*
X55094755Y-44356853D01*
X55125440Y-44410000D01*
X54305000Y-44410000D01*
X54305000Y-44972844D01*
X54311401Y-45032372D01*
X54311403Y-45032379D01*
X54361645Y-45167086D01*
X54361649Y-45167093D01*
X54447809Y-45282187D01*
X54447812Y-45282190D01*
X54562906Y-45368350D01*
X54562913Y-45368354D01*
X54697620Y-45418596D01*
X54697627Y-45418598D01*
X54757155Y-45424999D01*
X54757172Y-45425000D01*
X54791105Y-45425000D01*
X54858144Y-45444685D01*
X54903899Y-45497489D01*
X54913843Y-45566647D01*
X54884818Y-45630203D01*
X54869219Y-45644519D01*
X54869135Y-45645581D01*
X55432425Y-46208871D01*
X55373147Y-46224755D01*
X55256853Y-46291898D01*
X55161898Y-46386853D01*
X55094755Y-46503147D01*
X55078871Y-46562425D01*
X54515581Y-45999135D01*
X54515580Y-45999135D01*
X54488077Y-46036990D01*
X54397679Y-46214405D01*
X54336147Y-46403777D01*
X54305000Y-46600436D01*
X54305000Y-46799563D01*
X54336147Y-46996222D01*
X54397679Y-47185594D01*
X54488077Y-47363008D01*
X54515580Y-47400863D01*
X54515581Y-47400864D01*
X55078871Y-46837574D01*
X55094755Y-46896853D01*
X55161898Y-47013147D01*
X55256853Y-47108102D01*
X55373147Y-47175245D01*
X55432425Y-47191128D01*
X55103546Y-47520006D01*
X55047960Y-47552099D01*
X55001287Y-47564605D01*
X54787470Y-47653171D01*
X54787460Y-47653175D01*
X54587036Y-47768890D01*
X54403428Y-47909777D01*
X54403421Y-47909783D01*
X54239783Y-48073421D01*
X54239777Y-48073428D01*
X54098890Y-48257036D01*
X53983175Y-48457460D01*
X53983168Y-48457475D01*
X53894608Y-48671280D01*
X53834707Y-48894832D01*
X53804501Y-49124272D01*
X53804500Y-49124289D01*
X53804500Y-49355710D01*
X53804501Y-49355727D01*
X53834707Y-49585167D01*
X53894608Y-49808719D01*
X53983168Y-50022524D01*
X53983175Y-50022539D01*
X54098890Y-50222963D01*
X54239777Y-50406571D01*
X54239783Y-50406578D01*
X54255524Y-50422319D01*
X54289009Y-50483642D01*
X54284025Y-50553334D01*
X54255524Y-50597681D01*
X54239783Y-50613421D01*
X54239777Y-50613428D01*
X54098890Y-50797036D01*
X53983175Y-50997460D01*
X53983168Y-50997475D01*
X53894608Y-51211280D01*
X53834707Y-51434832D01*
X53804501Y-51664272D01*
X53804500Y-51664289D01*
X53804500Y-51895710D01*
X53804501Y-51895727D01*
X53834707Y-52125167D01*
X53894608Y-52348719D01*
X53983168Y-52562524D01*
X53983175Y-52562539D01*
X54098890Y-52762963D01*
X54239777Y-52946571D01*
X54239783Y-52946578D01*
X54255524Y-52962319D01*
X54289009Y-53023642D01*
X54284025Y-53093334D01*
X54255524Y-53137681D01*
X54239783Y-53153421D01*
X54239777Y-53153428D01*
X54098890Y-53337036D01*
X53983175Y-53537460D01*
X53983168Y-53537475D01*
X53894608Y-53751280D01*
X53834707Y-53974832D01*
X53804501Y-54204272D01*
X53804500Y-54204289D01*
X53804500Y-54435710D01*
X53804501Y-54435727D01*
X53834191Y-54661250D01*
X53834708Y-54665171D01*
X53887980Y-54863984D01*
X53894608Y-54888719D01*
X53983168Y-55102524D01*
X53983175Y-55102539D01*
X54098890Y-55302963D01*
X54239777Y-55486571D01*
X54239783Y-55486578D01*
X54255524Y-55502319D01*
X54289009Y-55563642D01*
X54284025Y-55633334D01*
X54255524Y-55677681D01*
X54239783Y-55693421D01*
X54239777Y-55693428D01*
X54098892Y-55877034D01*
X54098891Y-55877034D01*
X53983175Y-56077460D01*
X53983170Y-56077470D01*
X53938229Y-56185969D01*
X53894388Y-56240372D01*
X53828093Y-56262437D01*
X53760394Y-56245158D01*
X53723350Y-56211401D01*
X53701828Y-56181779D01*
X53684228Y-56157554D01*
X52351246Y-54824572D01*
X52192005Y-54708876D01*
X52192001Y-54708874D01*
X52016630Y-54619517D01*
X51829426Y-54558690D01*
X51635022Y-54527900D01*
X51635017Y-54527900D01*
X47774216Y-54527900D01*
X47577383Y-54527900D01*
X47577378Y-54527900D01*
X47382972Y-54558691D01*
X47322148Y-54578453D01*
X47322148Y-54578454D01*
X47278903Y-54592505D01*
X47195770Y-54619517D01*
X47056851Y-54690301D01*
X47056850Y-54690300D01*
X47020398Y-54708874D01*
X47020390Y-54708878D01*
X46901107Y-54795544D01*
X46861154Y-54824572D01*
X46861152Y-54824574D01*
X46861151Y-54824574D01*
X45546173Y-56139552D01*
X45512449Y-56185969D01*
X45478999Y-56232010D01*
X45474818Y-56237764D01*
X45419487Y-56280429D01*
X45349874Y-56286408D01*
X45288079Y-56253802D01*
X45253722Y-56192963D01*
X45250500Y-56164878D01*
X45250500Y-55901582D01*
X45246612Y-55877034D01*
X45219710Y-55707177D01*
X45219709Y-55707176D01*
X45219709Y-55707173D01*
X45186461Y-55604849D01*
X45175379Y-55570741D01*
X45158885Y-55519977D01*
X45158883Y-55519974D01*
X45149888Y-55502319D01*
X45069524Y-55344595D01*
X44953828Y-55185354D01*
X44814646Y-55046172D01*
X44814645Y-55046171D01*
X43314646Y-53546172D01*
X43155405Y-53430476D01*
X43127742Y-53416381D01*
X42980030Y-53341117D01*
X42792826Y-53280290D01*
X42598422Y-53249500D01*
X42598417Y-53249500D01*
X33598416Y-53249500D01*
X33401583Y-53249500D01*
X33401578Y-53249500D01*
X33207176Y-53280290D01*
X33207171Y-53280291D01*
X33177501Y-53289931D01*
X33177502Y-53289932D01*
X33019970Y-53341117D01*
X32872258Y-53416381D01*
X32844594Y-53430476D01*
X32806684Y-53458020D01*
X32685354Y-53546172D01*
X32685352Y-53546174D01*
X32685351Y-53546174D01*
X31518345Y-54713181D01*
X31457022Y-54746666D01*
X31430664Y-54749500D01*
X30839695Y-54749500D01*
X30835994Y-54748880D01*
X30833997Y-54749369D01*
X30799330Y-54742746D01*
X30597918Y-54673404D01*
X30540937Y-54632968D01*
X30514864Y-54568146D01*
X30527975Y-54499518D01*
X30536349Y-54485550D01*
X30539207Y-54481426D01*
X30632296Y-54276483D01*
X30687296Y-54058212D01*
X30697700Y-53926017D01*
X30697699Y-51697584D01*
X30687296Y-51565388D01*
X30685944Y-51560024D01*
X30632297Y-51347121D01*
X30632296Y-51347118D01*
X30570596Y-51211281D01*
X30539207Y-51142174D01*
X30507497Y-51096403D01*
X30411025Y-50957154D01*
X30411022Y-50957150D01*
X30411019Y-50957146D01*
X30251854Y-50797981D01*
X30251850Y-50797978D01*
X30251845Y-50797974D01*
X30066832Y-50669797D01*
X30066830Y-50669795D01*
X30066826Y-50669793D01*
X30035462Y-50655547D01*
X29861881Y-50576703D01*
X29861878Y-50576702D01*
X29643620Y-50521705D01*
X29643613Y-50521704D01*
X29599547Y-50518236D01*
X29511417Y-50511300D01*
X29511415Y-50511300D01*
X27282991Y-50511300D01*
X27282976Y-50511301D01*
X27150786Y-50521704D01*
X27150779Y-50521705D01*
X26932521Y-50576702D01*
X26932518Y-50576703D01*
X26727577Y-50669791D01*
X26727567Y-50669797D01*
X26542554Y-50797974D01*
X26542542Y-50797984D01*
X26383384Y-50957142D01*
X26383374Y-50957154D01*
X26255197Y-51142167D01*
X26255191Y-51142177D01*
X26162103Y-51347118D01*
X26162102Y-51347121D01*
X26107105Y-51565379D01*
X26107104Y-51565386D01*
X26096700Y-51697577D01*
X26096700Y-53926008D01*
X26096701Y-53926023D01*
X26107104Y-54058213D01*
X26107105Y-54058220D01*
X26162102Y-54276478D01*
X26162103Y-54276481D01*
X26255191Y-54481422D01*
X26255197Y-54481432D01*
X26383374Y-54666445D01*
X26383378Y-54666450D01*
X26383381Y-54666454D01*
X26383384Y-54666457D01*
X26519588Y-54802661D01*
X26553073Y-54863984D01*
X26548089Y-54933676D01*
X26530283Y-54965828D01*
X26480299Y-55030968D01*
X26329518Y-55292128D01*
X26329514Y-55292138D01*
X26214113Y-55570739D01*
X26136061Y-55862033D01*
X26096702Y-56160999D01*
X26096700Y-56161023D01*
X26096700Y-56462576D01*
X26096701Y-56462593D01*
X26136061Y-56761566D01*
X26214113Y-57052860D01*
X26329514Y-57331461D01*
X26329518Y-57331471D01*
X26480299Y-57592631D01*
X26663879Y-57831878D01*
X26663885Y-57831885D01*
X26877114Y-58045114D01*
X26877121Y-58045120D01*
X27116368Y-58228700D01*
X27377528Y-58379481D01*
X27377529Y-58379481D01*
X27377532Y-58379483D01*
X27563272Y-58456419D01*
X27656139Y-58494886D01*
X27656140Y-58494886D01*
X27656142Y-58494887D01*
X27947432Y-58572938D01*
X28246417Y-58612300D01*
X28246424Y-58612300D01*
X28547976Y-58612300D01*
X28547983Y-58612300D01*
X28846968Y-58572938D01*
X29138258Y-58494887D01*
X29416868Y-58379483D01*
X29678032Y-58228700D01*
X29917280Y-58045119D01*
X30021616Y-57940781D01*
X30036425Y-57928137D01*
X30790914Y-57380273D01*
X30937043Y-57274163D01*
X31002856Y-57250700D01*
X31009902Y-57250500D01*
X32098422Y-57250500D01*
X32292826Y-57219709D01*
X32337569Y-57205171D01*
X32480026Y-57158884D01*
X32655405Y-57069524D01*
X32814646Y-56953828D01*
X33981655Y-55786819D01*
X34042978Y-55753334D01*
X34069336Y-55750500D01*
X41930664Y-55750500D01*
X41997703Y-55770185D01*
X42018345Y-55786819D01*
X42713181Y-56481655D01*
X42727884Y-56508582D01*
X42744477Y-56534401D01*
X42745368Y-56540601D01*
X42746666Y-56542978D01*
X42749500Y-56569336D01*
X42749500Y-56593646D01*
X42741238Y-56638152D01*
X42654322Y-56864176D01*
X42611887Y-56919683D01*
X42546179Y-56943437D01*
X42478060Y-56927896D01*
X42476584Y-56927057D01*
X42320215Y-56836777D01*
X42320205Y-56836773D01*
X42096104Y-56743947D01*
X41978944Y-56712554D01*
X41861789Y-56681162D01*
X41861788Y-56681161D01*
X41861785Y-56681161D01*
X41621289Y-56649500D01*
X41621288Y-56649500D01*
X41378712Y-56649500D01*
X41378711Y-56649500D01*
X41138214Y-56681161D01*
X40903895Y-56743947D01*
X40679794Y-56836773D01*
X40679785Y-56836777D01*
X40469706Y-56958067D01*
X40325486Y-57068731D01*
X40260317Y-57093925D01*
X40191872Y-57079887D01*
X40174514Y-57068731D01*
X40030293Y-56958067D01*
X40030292Y-56958066D01*
X40030289Y-56958064D01*
X39820212Y-56836776D01*
X39794964Y-56826318D01*
X39596104Y-56743947D01*
X39478944Y-56712554D01*
X39361789Y-56681162D01*
X39361788Y-56681161D01*
X39361785Y-56681161D01*
X39121289Y-56649500D01*
X39121288Y-56649500D01*
X38878712Y-56649500D01*
X38878711Y-56649500D01*
X38638214Y-56681161D01*
X38403895Y-56743947D01*
X38179794Y-56836773D01*
X38179785Y-56836777D01*
X37969706Y-56958067D01*
X37825486Y-57068731D01*
X37760317Y-57093925D01*
X37691872Y-57079887D01*
X37674514Y-57068731D01*
X37530293Y-56958067D01*
X37530292Y-56958066D01*
X37530289Y-56958064D01*
X37320212Y-56836776D01*
X37294964Y-56826318D01*
X37096104Y-56743947D01*
X36978944Y-56712554D01*
X36861789Y-56681162D01*
X36861788Y-56681161D01*
X36861785Y-56681161D01*
X36621289Y-56649500D01*
X36621288Y-56649500D01*
X36378712Y-56649500D01*
X36378711Y-56649500D01*
X36138214Y-56681161D01*
X35903895Y-56743947D01*
X35679794Y-56836773D01*
X35679785Y-56836777D01*
X35469706Y-56958067D01*
X35277263Y-57105733D01*
X35277256Y-57105739D01*
X35105739Y-57277256D01*
X35105733Y-57277263D01*
X34958067Y-57469706D01*
X34836777Y-57679785D01*
X34836773Y-57679794D01*
X34743947Y-57903895D01*
X34681161Y-58138214D01*
X34649500Y-58378711D01*
X34649500Y-58621288D01*
X34677145Y-58831281D01*
X34681162Y-58861789D01*
X34687820Y-58886638D01*
X34743947Y-59096104D01*
X34821889Y-59284272D01*
X34836776Y-59320212D01*
X34958064Y-59530289D01*
X34958066Y-59530292D01*
X34958067Y-59530293D01*
X35105733Y-59722736D01*
X35105739Y-59722743D01*
X35277256Y-59894260D01*
X35277263Y-59894266D01*
X35325485Y-59931268D01*
X35469711Y-60041936D01*
X35679788Y-60163224D01*
X35903900Y-60256054D01*
X36138211Y-60318838D01*
X36318586Y-60342584D01*
X36378711Y-60350500D01*
X36378712Y-60350500D01*
X36621289Y-60350500D01*
X36669388Y-60344167D01*
X36861789Y-60318838D01*
X37096100Y-60256054D01*
X37320212Y-60163224D01*
X37476585Y-60072941D01*
X37494718Y-60068542D01*
X37511002Y-60059436D01*
X37527964Y-60060476D01*
X37544484Y-60056469D01*
X37562118Y-60062572D01*
X37580740Y-60063715D01*
X37594447Y-60073761D01*
X37610511Y-60079321D01*
X37622044Y-60093987D01*
X37637095Y-60105018D01*
X37652791Y-60133087D01*
X37653701Y-60134243D01*
X37654322Y-60135823D01*
X37741238Y-60361846D01*
X37749500Y-60406352D01*
X37749500Y-60666422D01*
X37780290Y-60860826D01*
X37841117Y-61048030D01*
X37896875Y-61157460D01*
X37930476Y-61223405D01*
X38046172Y-61382646D01*
X39517155Y-62853629D01*
X39676395Y-62969324D01*
X39851774Y-63058684D01*
X39975497Y-63098884D01*
X39999149Y-63106569D01*
X40038973Y-63119509D01*
X40233378Y-63150300D01*
X40233383Y-63150300D01*
X40233384Y-63150300D01*
X40430217Y-63150300D01*
X46993183Y-63150300D01*
X47272583Y-63150300D01*
X47469417Y-63150300D01*
X48655864Y-63150300D01*
X48722903Y-63169985D01*
X48743545Y-63186619D01*
X49944981Y-64388055D01*
X49978466Y-64449378D01*
X49981300Y-64475736D01*
X49981300Y-72217921D01*
X49961615Y-72284960D01*
X49908811Y-72330715D01*
X49839653Y-72340659D01*
X49809848Y-72332482D01*
X49596107Y-72243948D01*
X49490748Y-72215717D01*
X49361789Y-72181162D01*
X49361788Y-72181161D01*
X49361785Y-72181161D01*
X49121289Y-72149500D01*
X49121288Y-72149500D01*
X48878712Y-72149500D01*
X48878711Y-72149500D01*
X48638214Y-72181161D01*
X48403895Y-72243947D01*
X48179794Y-72336773D01*
X48179784Y-72336777D01*
X47969712Y-72458062D01*
X47896566Y-72514189D01*
X47868873Y-72524894D01*
X47842226Y-72537996D01*
X47836640Y-72537355D01*
X47831397Y-72539382D01*
X47802309Y-72533415D01*
X47772812Y-72530031D01*
X47768460Y-72526472D01*
X47762952Y-72525343D01*
X47741703Y-72504593D01*
X47718723Y-72485803D01*
X47715271Y-72478783D01*
X47712963Y-72476529D01*
X47703150Y-72454130D01*
X47678747Y-72379026D01*
X47678746Y-72379024D01*
X47658886Y-72317898D01*
X47614706Y-72231190D01*
X47569524Y-72142514D01*
X47453828Y-71983273D01*
X47314646Y-71844091D01*
X47098322Y-71627767D01*
X47062876Y-71588567D01*
X47039882Y-71569327D01*
X46415727Y-70945172D01*
X46256486Y-70829476D01*
X46205784Y-70803642D01*
X46081111Y-70740117D01*
X45893907Y-70679290D01*
X45699503Y-70648500D01*
X45699498Y-70648500D01*
X43964217Y-70648500D01*
X42242336Y-70648500D01*
X42175297Y-70628815D01*
X42154655Y-70612181D01*
X35038648Y-63496174D01*
X35038646Y-63496172D01*
X34879405Y-63380476D01*
X34704030Y-63291117D01*
X34516826Y-63230290D01*
X34322422Y-63199500D01*
X34322417Y-63199500D01*
X31183166Y-63199500D01*
X31116127Y-63179815D01*
X31108766Y-63174700D01*
X31103959Y-63171095D01*
X30697874Y-62866530D01*
X30659375Y-62818611D01*
X30642008Y-62780377D01*
X30642007Y-62780374D01*
X30513819Y-62595346D01*
X30354654Y-62436181D01*
X30354650Y-62436178D01*
X30354645Y-62436174D01*
X30169632Y-62307997D01*
X30169630Y-62307995D01*
X30169626Y-62307993D01*
X30053653Y-62255316D01*
X29964681Y-62214903D01*
X29964678Y-62214902D01*
X29746420Y-62159905D01*
X29746413Y-62159904D01*
X29702347Y-62156436D01*
X29614217Y-62149500D01*
X29614215Y-62149500D01*
X27385791Y-62149500D01*
X27385776Y-62149501D01*
X27253586Y-62159904D01*
X27253579Y-62159905D01*
X27035321Y-62214902D01*
X27035318Y-62214903D01*
X26830377Y-62307991D01*
X26830367Y-62307997D01*
X26645354Y-62436174D01*
X26645342Y-62436184D01*
X26486184Y-62595342D01*
X26486174Y-62595354D01*
X26357997Y-62780367D01*
X26357991Y-62780377D01*
X26264903Y-62985318D01*
X26264902Y-62985321D01*
X26209905Y-63203579D01*
X26209904Y-63203586D01*
X26199500Y-63335777D01*
X26199500Y-65564208D01*
X26199501Y-65564223D01*
X26209904Y-65696413D01*
X26209905Y-65696420D01*
X26264902Y-65914678D01*
X26264903Y-65914681D01*
X26357991Y-66119622D01*
X26357997Y-66119632D01*
X26486174Y-66304645D01*
X26486178Y-66304650D01*
X26486181Y-66304654D01*
X26486184Y-66304657D01*
X26622388Y-66440861D01*
X26655873Y-66502184D01*
X26650889Y-66571876D01*
X26633083Y-66604028D01*
X26583099Y-66669168D01*
X26432318Y-66930328D01*
X26432314Y-66930338D01*
X26316913Y-67208939D01*
X26238861Y-67500233D01*
X26199501Y-67799206D01*
X26199500Y-67799223D01*
X26199500Y-68100776D01*
X26199501Y-68100793D01*
X26238861Y-68399766D01*
X26316913Y-68691060D01*
X26432314Y-68969661D01*
X26432318Y-68969671D01*
X26583099Y-69230831D01*
X26766679Y-69470078D01*
X26766685Y-69470085D01*
X26979914Y-69683314D01*
X26979921Y-69683320D01*
X27219168Y-69866900D01*
X27480328Y-70017681D01*
X27480329Y-70017681D01*
X27480332Y-70017683D01*
X27605746Y-70069631D01*
X27758939Y-70133086D01*
X27758940Y-70133086D01*
X27758942Y-70133087D01*
X28050232Y-70211138D01*
X28349217Y-70250500D01*
X28349224Y-70250500D01*
X28650776Y-70250500D01*
X28650783Y-70250500D01*
X28949768Y-70211138D01*
X29241058Y-70133087D01*
X29519668Y-70017683D01*
X29780832Y-69866900D01*
X29857147Y-69808340D01*
X29876142Y-69796334D01*
X31014307Y-69214105D01*
X31070779Y-69200500D01*
X32851927Y-69200500D01*
X32918966Y-69220185D01*
X32939608Y-69236819D01*
X35802964Y-72100175D01*
X35836449Y-72161498D01*
X35831465Y-72231190D01*
X35789593Y-72287123D01*
X35762736Y-72302417D01*
X35679794Y-72336772D01*
X35679785Y-72336777D01*
X35522826Y-72427398D01*
X35469715Y-72458062D01*
X35469706Y-72458067D01*
X35277263Y-72605733D01*
X35277256Y-72605739D01*
X35105739Y-72777256D01*
X35105733Y-72777263D01*
X34958067Y-72969706D01*
X34836777Y-73179785D01*
X34836770Y-73179799D01*
X34743951Y-73403887D01*
X34743946Y-73403900D01*
X34743945Y-73403905D01*
X34740396Y-73417147D01*
X34733932Y-73435415D01*
X34293394Y-74426446D01*
X34267766Y-74463758D01*
X33597374Y-75134151D01*
X33597372Y-75134154D01*
X33547685Y-75202541D01*
X33481676Y-75293394D01*
X33392317Y-75468771D01*
X33343708Y-75618374D01*
X33343707Y-75618376D01*
X33331492Y-75655966D01*
X33331491Y-75655972D01*
X33300700Y-75850377D01*
X33300700Y-80699563D01*
X33281015Y-80766602D01*
X33228211Y-80812357D01*
X33176700Y-80823563D01*
X24913915Y-80823563D01*
X24719513Y-80854353D01*
X24719512Y-80854353D01*
X24664755Y-80872144D01*
X24664756Y-80872145D01*
X24532307Y-80915180D01*
X24424615Y-80970053D01*
X24356931Y-81004539D01*
X24317299Y-81033334D01*
X24197691Y-81120235D01*
X24197689Y-81120237D01*
X24197688Y-81120237D01*
X21532181Y-83785745D01*
X21470858Y-83819230D01*
X21401166Y-83814246D01*
X21345233Y-83772374D01*
X21320816Y-83706910D01*
X21320500Y-83698064D01*
X21320500Y-28812232D01*
X23699500Y-28812232D01*
X23699500Y-29187767D01*
X23732229Y-29561865D01*
X23797438Y-29931679D01*
X23797441Y-29931692D01*
X23894630Y-30294410D01*
X24023068Y-30647293D01*
X24181771Y-30987633D01*
X24181776Y-30987642D01*
X24369540Y-31312858D01*
X24369544Y-31312864D01*
X24369551Y-31312875D01*
X24584934Y-31620474D01*
X24734404Y-31798605D01*
X24826318Y-31908144D01*
X25091856Y-32173682D01*
X25135160Y-32210018D01*
X25379525Y-32415065D01*
X25687124Y-32630448D01*
X25687131Y-32630452D01*
X25687142Y-32630460D01*
X25991930Y-32806429D01*
X26012351Y-32818220D01*
X26012366Y-32818228D01*
X26352706Y-32976931D01*
X26616479Y-33072936D01*
X26705583Y-33105367D01*
X26705584Y-33105367D01*
X26705589Y-33105369D01*
X26819542Y-33135902D01*
X27068315Y-33202561D01*
X27438137Y-33267771D01*
X27812234Y-33300499D01*
X27812235Y-33300500D01*
X27812236Y-33300500D01*
X28187765Y-33300500D01*
X28187765Y-33300499D01*
X28561863Y-33267771D01*
X28931685Y-33202561D01*
X29294417Y-33105367D01*
X29647298Y-32976929D01*
X29987642Y-32818224D01*
X30312858Y-32630460D01*
X30620473Y-32415066D01*
X30908144Y-32173682D01*
X31173682Y-31908144D01*
X31415066Y-31620473D01*
X31630460Y-31312858D01*
X31818224Y-30987642D01*
X31976929Y-30647298D01*
X32105367Y-30294417D01*
X32202561Y-29931685D01*
X32267771Y-29561863D01*
X32300500Y-29187764D01*
X32300500Y-28812236D01*
X32267771Y-28438137D01*
X32202561Y-28068315D01*
X32120564Y-27762297D01*
X32105369Y-27705589D01*
X31976931Y-27352706D01*
X31818228Y-27012366D01*
X31818220Y-27012351D01*
X31741792Y-26879974D01*
X31630460Y-26687142D01*
X31630452Y-26687131D01*
X31630448Y-26687124D01*
X31415065Y-26379525D01*
X31173679Y-26091853D01*
X30908146Y-25826320D01*
X30904176Y-25822989D01*
X30817787Y-25750500D01*
X30620474Y-25584934D01*
X30312875Y-25369551D01*
X30312864Y-25369544D01*
X30312858Y-25369540D01*
X30216233Y-25313753D01*
X29987648Y-25181779D01*
X29987633Y-25181771D01*
X29647293Y-25023068D01*
X29294410Y-24894630D01*
X28931692Y-24797441D01*
X28931695Y-24797441D01*
X28931685Y-24797439D01*
X28879471Y-24788232D01*
X28561865Y-24732229D01*
X28187767Y-24699500D01*
X28187764Y-24699500D01*
X27812236Y-24699500D01*
X27812232Y-24699500D01*
X27438134Y-24732229D01*
X27068320Y-24797438D01*
X27068317Y-24797438D01*
X27068315Y-24797439D01*
X27068310Y-24797440D01*
X27068307Y-24797441D01*
X26705589Y-24894630D01*
X26352706Y-25023068D01*
X26012366Y-25181771D01*
X26012351Y-25181779D01*
X25687150Y-25369535D01*
X25687124Y-25369551D01*
X25379525Y-25584934D01*
X25091853Y-25826320D01*
X24826320Y-26091853D01*
X24584934Y-26379525D01*
X24369551Y-26687124D01*
X24369535Y-26687150D01*
X24181779Y-27012351D01*
X24181771Y-27012366D01*
X24023068Y-27352706D01*
X23894630Y-27705589D01*
X23797441Y-28068307D01*
X23797438Y-28068320D01*
X23732229Y-28438134D01*
X23699500Y-28812232D01*
X21320500Y-28812232D01*
X21320500Y-22984500D01*
X21340185Y-22917461D01*
X21392989Y-22871706D01*
X21444500Y-22860500D01*
X92395500Y-22860500D01*
X92462539Y-22880185D01*
G37*
%TD.AperFunction*%
%TA.AperFunction,Conductor*%
G36*
X57083703Y-43414185D02*
G01*
X57104345Y-43430819D01*
X57514181Y-43840655D01*
X57547666Y-43901978D01*
X57550500Y-43928336D01*
X57550500Y-48868581D01*
X57530815Y-48935620D01*
X57478011Y-48981375D01*
X57408853Y-48991319D01*
X57345297Y-48962294D01*
X57307523Y-48903516D01*
X57306351Y-48898747D01*
X57306342Y-48898750D01*
X57305292Y-48894832D01*
X57305292Y-48894829D01*
X57245392Y-48671281D01*
X57156826Y-48457464D01*
X57123292Y-48399382D01*
X57041109Y-48257036D01*
X56900222Y-48073428D01*
X56900216Y-48073421D01*
X56736578Y-47909783D01*
X56736571Y-47909777D01*
X56552963Y-47768890D01*
X56352539Y-47653175D01*
X56352529Y-47653171D01*
X56236965Y-47605303D01*
X56138719Y-47564608D01*
X56092037Y-47552099D01*
X56036452Y-47520006D01*
X55707574Y-47191128D01*
X55766853Y-47175245D01*
X55883147Y-47108102D01*
X55978102Y-47013147D01*
X56045245Y-46896853D01*
X56061128Y-46837574D01*
X56624417Y-47400863D01*
X56624418Y-47400863D01*
X56651924Y-47363005D01*
X56742320Y-47185594D01*
X56803852Y-46996222D01*
X56835000Y-46799563D01*
X56835000Y-46600436D01*
X56803852Y-46403777D01*
X56742320Y-46214405D01*
X56651924Y-46036994D01*
X56624417Y-45999135D01*
X56624417Y-45999134D01*
X56061128Y-46562424D01*
X56045245Y-46503147D01*
X55978102Y-46386853D01*
X55883147Y-46291898D01*
X55766853Y-46224755D01*
X55707574Y-46208871D01*
X56270864Y-45645581D01*
X56270606Y-45642312D01*
X56233343Y-45593988D01*
X56227364Y-45524375D01*
X56259970Y-45462580D01*
X56320808Y-45428223D01*
X56348894Y-45425000D01*
X56382828Y-45425000D01*
X56382844Y-45424999D01*
X56442372Y-45418598D01*
X56442379Y-45418596D01*
X56577086Y-45368354D01*
X56577093Y-45368350D01*
X56692187Y-45282190D01*
X56692190Y-45282187D01*
X56778350Y-45167093D01*
X56778354Y-45167086D01*
X56828596Y-45032379D01*
X56828598Y-45032372D01*
X56834999Y-44972844D01*
X56835000Y-44972827D01*
X56835000Y-44410000D01*
X56014560Y-44410000D01*
X56045245Y-44356853D01*
X56080000Y-44227143D01*
X56080000Y-44092857D01*
X56045245Y-43963147D01*
X56014560Y-43910000D01*
X56835000Y-43910000D01*
X56835000Y-43518500D01*
X56837550Y-43509814D01*
X56836262Y-43500853D01*
X56847240Y-43476812D01*
X56854685Y-43451461D01*
X56861525Y-43445533D01*
X56865287Y-43437297D01*
X56887521Y-43423007D01*
X56907489Y-43405706D01*
X56918003Y-43403418D01*
X56924065Y-43399523D01*
X56959000Y-43394500D01*
X57016664Y-43394500D01*
X57083703Y-43414185D01*
G37*
%TD.AperFunction*%
%TD*%
%TA.AperFunction,Conductor*%
%TO.N,/Mot2A*%
G36*
X36593232Y-79398070D02*
G01*
X36596476Y-79400361D01*
X36936707Y-79740592D01*
X36939201Y-79744287D01*
X37355157Y-80722646D01*
X37355241Y-80731601D01*
X37350892Y-80736951D01*
X36658001Y-81200155D01*
X36649219Y-81201904D01*
X36644988Y-81200149D01*
X35953848Y-80737189D01*
X35948881Y-80729737D01*
X35949794Y-80722440D01*
X36577640Y-79403604D01*
X36584289Y-79397608D01*
X36593232Y-79398070D01*
G37*
%TD.AperFunction*%
%TD*%
%TA.AperFunction,Conductor*%
%TO.N,/Mot2A*%
G36*
X55416886Y-81514764D02*
G01*
X55422949Y-81521354D01*
X55423435Y-81523081D01*
X55570540Y-82257703D01*
X55570540Y-82262297D01*
X55423435Y-82996918D01*
X55418451Y-83004358D01*
X55409666Y-83006093D01*
X55407939Y-83005607D01*
X54062375Y-82512811D01*
X54055785Y-82506748D01*
X54054699Y-82501825D01*
X54054699Y-82018174D01*
X54058126Y-82009901D01*
X54062372Y-82007189D01*
X55407941Y-81514392D01*
X55416886Y-81514764D01*
G37*
%TD.AperFunction*%
%TD*%
%TA.AperFunction,Conductor*%
%TO.N,+M_in*%
G36*
X44250237Y-56819760D02*
G01*
X44252884Y-56823834D01*
X44711478Y-58016419D01*
X44711859Y-58023646D01*
X44681161Y-58138212D01*
X44651632Y-58362516D01*
X44647155Y-58370271D01*
X44642328Y-58372462D01*
X44002295Y-58500540D01*
X43997703Y-58500540D01*
X43521431Y-58405232D01*
X43357669Y-58372461D01*
X43350230Y-58367478D01*
X43348368Y-58362523D01*
X43318838Y-58138211D01*
X43288139Y-58023642D01*
X43288519Y-58016423D01*
X43747116Y-56823834D01*
X43753283Y-56817342D01*
X43758036Y-56816333D01*
X44241964Y-56816333D01*
X44250237Y-56819760D01*
G37*
%TD.AperFunction*%
%TD*%
%TA.AperFunction,Conductor*%
%TO.N,+M_in*%
G36*
X29073887Y-55212138D02*
G01*
X30628294Y-55747283D01*
X30635001Y-55753217D01*
X30636185Y-55758346D01*
X30636185Y-56244036D01*
X30632758Y-56252309D01*
X30631360Y-56253503D01*
X29349737Y-57184142D01*
X29341029Y-57186230D01*
X29334903Y-57183250D01*
X28403187Y-56318286D01*
X28399456Y-56310147D01*
X28401143Y-56303649D01*
X29060075Y-55217133D01*
X29067294Y-55211837D01*
X29073887Y-55212138D01*
G37*
%TD.AperFunction*%
%TD*%
%TA.AperFunction,Conductor*%
%TO.N,/b1*%
G36*
X39794535Y-96831438D02*
G01*
X39801976Y-96836418D01*
X39803844Y-96841385D01*
X39833361Y-97065587D01*
X39883388Y-97252289D01*
X39883400Y-97258300D01*
X39670313Y-98066581D01*
X39667273Y-98071871D01*
X39325829Y-98413315D01*
X39317556Y-98416742D01*
X39309283Y-98413315D01*
X39307962Y-98411739D01*
X38502871Y-97258300D01*
X38452276Y-97185814D01*
X38450352Y-97177069D01*
X38455174Y-97169524D01*
X38455324Y-97169421D01*
X39147458Y-96705795D01*
X39156234Y-96704039D01*
X39794535Y-96831438D01*
G37*
%TD.AperFunction*%
%TD*%
%TA.AperFunction,Conductor*%
%TO.N,/b1*%
G36*
X44156925Y-96705784D02*
G01*
X44401521Y-96869627D01*
X44848869Y-97169283D01*
X44853836Y-97176735D01*
X44852079Y-97185515D01*
X44851837Y-97185863D01*
X43971897Y-98401883D01*
X43964270Y-98406576D01*
X43955559Y-98404503D01*
X43954145Y-98403297D01*
X43612608Y-98061760D01*
X43609518Y-98056273D01*
X43417212Y-97272042D01*
X43417273Y-97266237D01*
X43471038Y-97065589D01*
X43500554Y-96841383D01*
X43505031Y-96833630D01*
X43509860Y-96831439D01*
X44148144Y-96704043D01*
X44156925Y-96705784D01*
G37*
%TD.AperFunction*%
%TD*%
%TA.AperFunction,Conductor*%
%TO.N,/Mot1B*%
G36*
X55416886Y-78974764D02*
G01*
X55422949Y-78981354D01*
X55423435Y-78983081D01*
X55570540Y-79717703D01*
X55570540Y-79722297D01*
X55423435Y-80456918D01*
X55418451Y-80464358D01*
X55409666Y-80466093D01*
X55407939Y-80465607D01*
X54062375Y-79972811D01*
X54055785Y-79966748D01*
X54054699Y-79961825D01*
X54054699Y-79478174D01*
X54058126Y-79469901D01*
X54062372Y-79467189D01*
X55407941Y-78974392D01*
X55416886Y-78974764D01*
G37*
%TD.AperFunction*%
%TD*%
%TA.AperFunction,Conductor*%
%TO.N,/Mot1A*%
G36*
X55150604Y-71472325D02*
G01*
X55568008Y-72096670D01*
X55569757Y-72105453D01*
X55569754Y-72105468D01*
X55423504Y-72836559D01*
X55418521Y-72843999D01*
X55409736Y-72845737D01*
X55407727Y-72845143D01*
X53907751Y-72251300D01*
X53901320Y-72245069D01*
X53901180Y-72236115D01*
X53903783Y-72232151D01*
X54243316Y-71892618D01*
X54246565Y-71890326D01*
X55135861Y-71468257D01*
X55144804Y-71467807D01*
X55150604Y-71472325D01*
G37*
%TD.AperFunction*%
%TD*%
%TA.AperFunction,Conductor*%
%TO.N,/Mot1A*%
G36*
X46429198Y-56689426D02*
G01*
X46432533Y-56691760D01*
X46772692Y-57031919D01*
X46775148Y-57035525D01*
X47202850Y-58018802D01*
X47203007Y-58027756D01*
X47198623Y-58033196D01*
X46505801Y-58496355D01*
X46497019Y-58498104D01*
X46492788Y-58496349D01*
X45801575Y-58033341D01*
X45796608Y-58025889D01*
X45797479Y-58018682D01*
X46413653Y-56695094D01*
X46420251Y-56689041D01*
X46429198Y-56689426D01*
G37*
%TD.AperFunction*%
%TD*%
%TA.AperFunction,Conductor*%
%TO.N,Net-(J3-Pin_2)*%
G36*
X73990237Y-28674760D02*
G01*
X73992884Y-28678834D01*
X74451478Y-29871419D01*
X74451859Y-29878646D01*
X74421161Y-29993212D01*
X74389500Y-30233712D01*
X74389500Y-30245340D01*
X74386073Y-30253613D01*
X74381666Y-30256383D01*
X73743866Y-30479646D01*
X73736134Y-30479646D01*
X73098333Y-30256382D01*
X73091657Y-30250414D01*
X73090499Y-30245339D01*
X73090499Y-29712414D01*
X73091278Y-29708217D01*
X73487116Y-28678834D01*
X73493283Y-28672342D01*
X73498036Y-28671333D01*
X73981964Y-28671333D01*
X73990237Y-28674760D01*
G37*
%TD.AperFunction*%
%TD*%
%TA.AperFunction,Conductor*%
%TO.N,Net-(J3-Pin_2)*%
G36*
X86610159Y-28508799D02*
G01*
X86612844Y-28512971D01*
X87139809Y-29921053D01*
X87139499Y-29930003D01*
X87132952Y-29936112D01*
X87131148Y-29936626D01*
X86362297Y-30090540D01*
X86357703Y-30090540D01*
X85588851Y-29936626D01*
X85581412Y-29931642D01*
X85579676Y-29922857D01*
X85580190Y-29921053D01*
X86107156Y-28512971D01*
X86113265Y-28506424D01*
X86118114Y-28505372D01*
X86601886Y-28505372D01*
X86610159Y-28508799D01*
G37*
%TD.AperFunction*%
%TD*%
%TA.AperFunction,Conductor*%
%TO.N,Net-(J4-Pin_2)*%
G36*
X90590159Y-28508799D02*
G01*
X90592844Y-28512971D01*
X91119809Y-29921053D01*
X91119499Y-29930003D01*
X91112952Y-29936112D01*
X91111148Y-29936626D01*
X90342297Y-30090540D01*
X90337703Y-30090540D01*
X89568851Y-29936626D01*
X89561412Y-29931642D01*
X89559676Y-29922857D01*
X89560190Y-29921053D01*
X90087156Y-28512971D01*
X90093265Y-28506424D01*
X90098114Y-28505372D01*
X90581886Y-28505372D01*
X90590159Y-28508799D01*
G37*
%TD.AperFunction*%
%TD*%
%TA.AperFunction,Conductor*%
%TO.N,Net-(J4-Pin_2)*%
G36*
X58750237Y-28674760D02*
G01*
X58752884Y-28678834D01*
X59211478Y-29871419D01*
X59211859Y-29878646D01*
X59181161Y-29993212D01*
X59149500Y-30233712D01*
X59149500Y-30245340D01*
X59146073Y-30253613D01*
X59141666Y-30256383D01*
X58503866Y-30479646D01*
X58496134Y-30479646D01*
X57858333Y-30256382D01*
X57851657Y-30250414D01*
X57850499Y-30245339D01*
X57850499Y-29712414D01*
X57851278Y-29708217D01*
X58247116Y-28678834D01*
X58253283Y-28672342D01*
X58258036Y-28671333D01*
X58741964Y-28671333D01*
X58750237Y-28674760D01*
G37*
%TD.AperFunction*%
%TD*%
%TA.AperFunction,Conductor*%
%TO.N,+5V*%
G36*
X38069044Y-104235478D02*
G01*
X38906047Y-104826304D01*
X38910830Y-104833874D01*
X38911000Y-104835862D01*
X38911000Y-105323737D01*
X38907573Y-105332010D01*
X38906047Y-105333296D01*
X38069046Y-105924120D01*
X38060311Y-105926091D01*
X38054031Y-105922839D01*
X37463794Y-105333296D01*
X37218286Y-105088076D01*
X37214855Y-105079807D01*
X37218276Y-105071533D01*
X38054032Y-104236759D01*
X38062306Y-104233338D01*
X38069044Y-104235478D01*
G37*
%TD.AperFunction*%
%TD*%
%TA.AperFunction,Conductor*%
%TO.N,+5V*%
G36*
X47507436Y-103505126D02*
G01*
X48492737Y-104316766D01*
X48496944Y-104324672D01*
X48495714Y-104331125D01*
X47753260Y-105782506D01*
X47746442Y-105788311D01*
X47742844Y-105788878D01*
X47257156Y-105788878D01*
X47248883Y-105785451D01*
X47246740Y-105782506D01*
X46504285Y-104331125D01*
X46503568Y-104322199D01*
X46507260Y-104316768D01*
X47492562Y-103505126D01*
X47501125Y-103502512D01*
X47507436Y-103505126D01*
G37*
%TD.AperFunction*%
%TD*%
%TA.AperFunction,Conductor*%
%TO.N,+5V*%
G36*
X48331125Y-102504285D02*
G01*
X49782506Y-103246740D01*
X49788311Y-103253558D01*
X49788878Y-103257156D01*
X49788878Y-103742843D01*
X49785451Y-103751116D01*
X49782506Y-103753259D01*
X48331125Y-104495714D01*
X48322199Y-104496431D01*
X48316766Y-104492737D01*
X47505126Y-103507437D01*
X47502512Y-103498875D01*
X47505126Y-103492563D01*
X48316767Y-102507261D01*
X48324672Y-102503055D01*
X48331125Y-102504285D01*
G37*
%TD.AperFunction*%
%TD*%
%TA.AperFunction,Conductor*%
%TO.N,+5V*%
G36*
X55416886Y-94214764D02*
G01*
X55422949Y-94221354D01*
X55423435Y-94223081D01*
X55570540Y-94957703D01*
X55570540Y-94962297D01*
X55423435Y-95696918D01*
X55418451Y-95704358D01*
X55409666Y-95706093D01*
X55407939Y-95705607D01*
X54062375Y-95212811D01*
X54055785Y-95206748D01*
X54054699Y-95201825D01*
X54054699Y-94718174D01*
X54058126Y-94709901D01*
X54062372Y-94707189D01*
X55407941Y-94214392D01*
X55416886Y-94214764D01*
G37*
%TD.AperFunction*%
%TD*%
%TA.AperFunction,Conductor*%
%TO.N,/SDA*%
G36*
X55732051Y-89134389D02*
G01*
X57077626Y-89627189D01*
X57084215Y-89633251D01*
X57085301Y-89638174D01*
X57085301Y-90121825D01*
X57081874Y-90130098D01*
X57077625Y-90132811D01*
X55732060Y-90625607D01*
X55723113Y-90625235D01*
X55717050Y-90618645D01*
X55716564Y-90616918D01*
X55569459Y-89882292D01*
X55569459Y-89877707D01*
X55716564Y-89143080D01*
X55721548Y-89135641D01*
X55730333Y-89133906D01*
X55732051Y-89134389D01*
G37*
%TD.AperFunction*%
%TD*%
%TA.AperFunction,Conductor*%
%TO.N,/SDA*%
G36*
X45432755Y-35934725D02*
G01*
X45806823Y-36187294D01*
X46308047Y-36525721D01*
X46312986Y-36533190D01*
X46313200Y-36535417D01*
X46313200Y-37022982D01*
X46309773Y-37031255D01*
X46308047Y-37032679D01*
X45432755Y-37623674D01*
X45423981Y-37625463D01*
X45417750Y-37622061D01*
X44619926Y-36787284D01*
X44616687Y-36778935D01*
X44619926Y-36771116D01*
X44845191Y-36535417D01*
X45417751Y-35936337D01*
X45425943Y-35932725D01*
X45432755Y-35934725D01*
G37*
%TD.AperFunction*%
%TD*%
%TA.AperFunction,Conductor*%
%TO.N,/SDA*%
G36*
X44864724Y-41307627D02*
G01*
X44866579Y-41310042D01*
X45439644Y-42300706D01*
X45440820Y-42309583D01*
X45437742Y-42314884D01*
X44621426Y-43122066D01*
X44613134Y-43125446D01*
X44604974Y-43122066D01*
X43861446Y-42386858D01*
X43858863Y-42383015D01*
X43811117Y-42267744D01*
X43811117Y-42258792D01*
X43811786Y-42257434D01*
X44359821Y-41310042D01*
X44366930Y-41304596D01*
X44369949Y-41304200D01*
X44856451Y-41304200D01*
X44864724Y-41307627D01*
G37*
%TD.AperFunction*%
%TD*%
%TA.AperFunction,Conductor*%
%TO.N,/SDA*%
G36*
X44621425Y-36786333D02*
G01*
X45437742Y-37593515D01*
X45441216Y-37601769D01*
X45439644Y-37607693D01*
X44866579Y-38598358D01*
X44859470Y-38603804D01*
X44856451Y-38604200D01*
X44369949Y-38604200D01*
X44361676Y-38600773D01*
X44359821Y-38598358D01*
X44186492Y-38298723D01*
X43811797Y-37650985D01*
X43810622Y-37642110D01*
X43811110Y-37640671D01*
X43858866Y-37525377D01*
X43861443Y-37521544D01*
X44604976Y-36786331D01*
X44613265Y-36782953D01*
X44621425Y-36786333D01*
G37*
%TD.AperFunction*%
%TD*%
%TA.AperFunction,Conductor*%
%TO.N,/SCL*%
G36*
X42128141Y-34878761D02*
G01*
X42130826Y-34880768D01*
X42471510Y-35221452D01*
X42474194Y-35225623D01*
X42761957Y-35994385D01*
X42762700Y-35998487D01*
X42762700Y-36544415D01*
X42759273Y-36552688D01*
X42754859Y-36555460D01*
X42118807Y-36777700D01*
X42109867Y-36777194D01*
X42107387Y-36775583D01*
X41768253Y-36488373D01*
X41413714Y-36188116D01*
X41409616Y-36180156D01*
X41410995Y-36173605D01*
X42112273Y-34883452D01*
X42119235Y-34877821D01*
X42128141Y-34878761D01*
G37*
%TD.AperFunction*%
%TD*%
%TA.AperFunction,Conductor*%
%TO.N,/SCL*%
G36*
X55732051Y-91674389D02*
G01*
X57077626Y-92167189D01*
X57084215Y-92173251D01*
X57085301Y-92178174D01*
X57085301Y-92661825D01*
X57081874Y-92670098D01*
X57077625Y-92672811D01*
X55732060Y-93165607D01*
X55723113Y-93165235D01*
X55717050Y-93158645D01*
X55716564Y-93156918D01*
X55569459Y-92422292D01*
X55569459Y-92417707D01*
X55716564Y-91683080D01*
X55721548Y-91675641D01*
X55730333Y-91673906D01*
X55732051Y-91674389D01*
G37*
%TD.AperFunction*%
%TD*%
%TA.AperFunction,Conductor*%
%TO.N,/SCL*%
G36*
X42363437Y-41323960D02*
G01*
X42366084Y-41328034D01*
X42761920Y-42357413D01*
X42762700Y-42361612D01*
X42762700Y-42894539D01*
X42759273Y-42902812D01*
X42754866Y-42905582D01*
X42117065Y-43128846D01*
X42109333Y-43128846D01*
X41471534Y-42905583D01*
X41464858Y-42899615D01*
X41463700Y-42894540D01*
X41463700Y-42882912D01*
X41432038Y-42642412D01*
X41432038Y-42642411D01*
X41401339Y-42527842D01*
X41401719Y-42520623D01*
X41860316Y-41328034D01*
X41866483Y-41321542D01*
X41871236Y-41320533D01*
X42355164Y-41320533D01*
X42363437Y-41323960D01*
G37*
%TD.AperFunction*%
%TD*%
%TA.AperFunction,Conductor*%
%TO.N,/SCL*%
G36*
X42754867Y-37002817D02*
G01*
X42761542Y-37008784D01*
X42762700Y-37013859D01*
X42762700Y-37546784D01*
X42761920Y-37550983D01*
X42366084Y-38580366D01*
X42359917Y-38586858D01*
X42355164Y-38587867D01*
X41871236Y-38587867D01*
X41862963Y-38584440D01*
X41860316Y-38580366D01*
X41686409Y-38128118D01*
X41401719Y-37387776D01*
X41401339Y-37380557D01*
X41432038Y-37265989D01*
X41463700Y-37025488D01*
X41463700Y-37013858D01*
X41467127Y-37005585D01*
X41471528Y-37002818D01*
X42109335Y-36779553D01*
X42117065Y-36779553D01*
X42754867Y-37002817D01*
G37*
%TD.AperFunction*%
%TD*%
%TA.AperFunction,Conductor*%
%TO.N,/ENC1A*%
G36*
X79562284Y-30766842D02*
G01*
X79568960Y-30772810D01*
X79569461Y-30781751D01*
X79569338Y-30782084D01*
X78992884Y-32281166D01*
X78986717Y-32287658D01*
X78981964Y-32288667D01*
X78498036Y-32288667D01*
X78489763Y-32285240D01*
X78487116Y-32281166D01*
X78313209Y-31828918D01*
X78028519Y-31088576D01*
X78028139Y-31081357D01*
X78058838Y-30966789D01*
X78090500Y-30726288D01*
X78090500Y-30714658D01*
X78093927Y-30706385D01*
X78098328Y-30703618D01*
X78736135Y-30480353D01*
X78743865Y-30480353D01*
X79562284Y-30766842D01*
G37*
%TD.AperFunction*%
%TD*%
%TA.AperFunction,Conductor*%
%TO.N,/ENC1A*%
G36*
X76450882Y-49218799D02*
G01*
X76453173Y-49222046D01*
X76747079Y-49840116D01*
X76987837Y-50346420D01*
X76988295Y-50355363D01*
X76983781Y-50361165D01*
X76331039Y-50798294D01*
X76322258Y-50800050D01*
X76322248Y-50800048D01*
X76322232Y-50800045D01*
X75554805Y-50646416D01*
X75547366Y-50641432D01*
X75545630Y-50632647D01*
X75545851Y-50631734D01*
X75624712Y-50355363D01*
X75947577Y-49223861D01*
X75953142Y-49216846D01*
X75958828Y-49215372D01*
X76442609Y-49215372D01*
X76450882Y-49218799D01*
G37*
%TD.AperFunction*%
%TD*%
%TA.AperFunction,Conductor*%
%TO.N,/ENC1B*%
G36*
X76881668Y-30703617D02*
G01*
X76888342Y-30709583D01*
X76889500Y-30714658D01*
X76889500Y-30726287D01*
X76921161Y-30966787D01*
X76951859Y-31081352D01*
X76951478Y-31088579D01*
X76492884Y-32281166D01*
X76486717Y-32287658D01*
X76481964Y-32288667D01*
X75998036Y-32288667D01*
X75989763Y-32285240D01*
X75987116Y-32281166D01*
X75813209Y-31828918D01*
X75528519Y-31088576D01*
X75528139Y-31081357D01*
X75558838Y-30966789D01*
X75590500Y-30726288D01*
X75590500Y-30714658D01*
X75593927Y-30706385D01*
X75598328Y-30703618D01*
X76236135Y-30480353D01*
X76243865Y-30480353D01*
X76881668Y-30703617D01*
G37*
%TD.AperFunction*%
%TD*%
%TA.AperFunction,Conductor*%
%TO.N,/ENC1B*%
G36*
X73529159Y-51758799D02*
G01*
X73531844Y-51762971D01*
X74058809Y-53171053D01*
X74058499Y-53180003D01*
X74051952Y-53186112D01*
X74050148Y-53186626D01*
X73281297Y-53340540D01*
X73276703Y-53340540D01*
X72507851Y-53186626D01*
X72500412Y-53181642D01*
X72498676Y-53172857D01*
X72499190Y-53171053D01*
X73026156Y-51762971D01*
X73032265Y-51756424D01*
X73037114Y-51755372D01*
X73520886Y-51755372D01*
X73529159Y-51758799D01*
G37*
%TD.AperFunction*%
%TD*%
%TA.AperFunction,Conductor*%
%TO.N,/ENC2A*%
G36*
X64322284Y-30766842D02*
G01*
X64328960Y-30772810D01*
X64329461Y-30781751D01*
X64329338Y-30782084D01*
X63752884Y-32281166D01*
X63746717Y-32287658D01*
X63741964Y-32288667D01*
X63258036Y-32288667D01*
X63249763Y-32285240D01*
X63247116Y-32281166D01*
X63073209Y-31828918D01*
X62788519Y-31088576D01*
X62788139Y-31081357D01*
X62818838Y-30966789D01*
X62850500Y-30726288D01*
X62850500Y-30714658D01*
X62853927Y-30706385D01*
X62858328Y-30703618D01*
X63496135Y-30480353D01*
X63503865Y-30480353D01*
X64322284Y-30766842D01*
G37*
%TD.AperFunction*%
%TD*%
%TA.AperFunction,Conductor*%
%TO.N,/ENC2A*%
G36*
X70633559Y-54298799D02*
G01*
X70636244Y-54302971D01*
X71163209Y-55711053D01*
X71162899Y-55720003D01*
X71156352Y-55726112D01*
X71154548Y-55726626D01*
X70385697Y-55880540D01*
X70381103Y-55880540D01*
X69612251Y-55726626D01*
X69604812Y-55721642D01*
X69603076Y-55712857D01*
X69603590Y-55711053D01*
X70130556Y-54302971D01*
X70136665Y-54296424D01*
X70141514Y-54295372D01*
X70625286Y-54295372D01*
X70633559Y-54298799D01*
G37*
%TD.AperFunction*%
%TD*%
%TA.AperFunction,Conductor*%
%TO.N,/ENC2B*%
G36*
X67661759Y-57829399D02*
G01*
X67664444Y-57833571D01*
X68191409Y-59241653D01*
X68191099Y-59250603D01*
X68184552Y-59256712D01*
X68182748Y-59257226D01*
X67413897Y-59411140D01*
X67409303Y-59411140D01*
X66640451Y-59257226D01*
X66633012Y-59252242D01*
X66631276Y-59243457D01*
X66631790Y-59241653D01*
X67158756Y-57833571D01*
X67164865Y-57827024D01*
X67169714Y-57825972D01*
X67653486Y-57825972D01*
X67661759Y-57829399D01*
G37*
%TD.AperFunction*%
%TD*%
%TA.AperFunction,Conductor*%
%TO.N,/ENC2B*%
G36*
X61641668Y-30703617D02*
G01*
X61648342Y-30709583D01*
X61649500Y-30714658D01*
X61649500Y-30726287D01*
X61681161Y-30966787D01*
X61711859Y-31081352D01*
X61711478Y-31088579D01*
X61252884Y-32281166D01*
X61246717Y-32287658D01*
X61241964Y-32288667D01*
X60758036Y-32288667D01*
X60749763Y-32285240D01*
X60747116Y-32281166D01*
X60573209Y-31828918D01*
X60288519Y-31088576D01*
X60288139Y-31081357D01*
X60318838Y-30966789D01*
X60350500Y-30726288D01*
X60350500Y-30714658D01*
X60353927Y-30706385D01*
X60358328Y-30703618D01*
X60996135Y-30480353D01*
X61003865Y-30480353D01*
X61641668Y-30703617D01*
G37*
%TD.AperFunction*%
%TD*%
%TA.AperFunction,Conductor*%
%TO.N,/NeoPixel*%
G36*
X86714479Y-81420462D02*
G01*
X87546292Y-82236850D01*
X87549796Y-82245090D01*
X87546447Y-82253394D01*
X87546292Y-82253549D01*
X86790455Y-82995369D01*
X86786737Y-82997828D01*
X86667346Y-83047281D01*
X86658392Y-83047281D01*
X86657011Y-83046600D01*
X85709642Y-82498579D01*
X85704196Y-82491470D01*
X85703800Y-82488451D01*
X85703800Y-82001948D01*
X85707227Y-81993675D01*
X85709638Y-81991822D01*
X86700427Y-81418684D01*
X86709304Y-81417509D01*
X86714479Y-81420462D01*
G37*
%TD.AperFunction*%
%TD*%
%TA.AperFunction,Conductor*%
%TO.N,/NeoPixel*%
G36*
X81161974Y-81514223D02*
G01*
X82507519Y-81992434D01*
X82514167Y-81998433D01*
X82515301Y-82003458D01*
X82515301Y-82487107D01*
X82511874Y-82495380D01*
X82507729Y-82498055D01*
X81162138Y-83005439D01*
X81153188Y-83005151D01*
X81147062Y-82998619D01*
X81146538Y-82996788D01*
X81046669Y-82498055D01*
X80999459Y-82262292D01*
X80999459Y-82257707D01*
X81146590Y-81522951D01*
X81151574Y-81515512D01*
X81160359Y-81513777D01*
X81161974Y-81514223D01*
G37*
%TD.AperFunction*%
%TD*%
%TA.AperFunction,Conductor*%
%TO.N,/Curr*%
G36*
X55732051Y-63734389D02*
G01*
X57077626Y-64227189D01*
X57084215Y-64233251D01*
X57085301Y-64238174D01*
X57085301Y-64721825D01*
X57081874Y-64730098D01*
X57077625Y-64732811D01*
X55732060Y-65225607D01*
X55723113Y-65225235D01*
X55717050Y-65218645D01*
X55716564Y-65216918D01*
X55569459Y-64482292D01*
X55569459Y-64477707D01*
X55716564Y-63743080D01*
X55721548Y-63735641D01*
X55730333Y-63733906D01*
X55732051Y-63734389D01*
G37*
%TD.AperFunction*%
%TD*%
%TA.AperFunction,Conductor*%
%TO.N,/Curr*%
G36*
X45432755Y-48198125D02*
G01*
X45806823Y-48450694D01*
X46308047Y-48789121D01*
X46312986Y-48796590D01*
X46313200Y-48798817D01*
X46313200Y-49286382D01*
X46309773Y-49294655D01*
X46308047Y-49296079D01*
X45432755Y-49887074D01*
X45423981Y-49888863D01*
X45417750Y-49885461D01*
X44619926Y-49050684D01*
X44616687Y-49042335D01*
X44619926Y-49034516D01*
X44845191Y-48798817D01*
X45417751Y-48199737D01*
X45425943Y-48196125D01*
X45432755Y-48198125D01*
G37*
%TD.AperFunction*%
%TD*%
%TA.AperFunction,Conductor*%
%TO.N,/Volt*%
G36*
X42115122Y-49044603D02*
G01*
X42117599Y-49046209D01*
X42758553Y-49587943D01*
X42762659Y-49595900D01*
X42762700Y-49596878D01*
X42762700Y-49748833D01*
X42761414Y-49754165D01*
X42291145Y-50672714D01*
X42289004Y-50675655D01*
X41949444Y-51015215D01*
X41941171Y-51018642D01*
X41932898Y-51015215D01*
X41930265Y-51011176D01*
X41402162Y-49649596D01*
X41401770Y-49642348D01*
X41432038Y-49529389D01*
X41463700Y-49288888D01*
X41463700Y-49277268D01*
X41467127Y-49268995D01*
X41471528Y-49266228D01*
X42106181Y-49044102D01*
X42115122Y-49044603D01*
G37*
%TD.AperFunction*%
%TD*%
%TA.AperFunction,Conductor*%
%TO.N,/Volt*%
G36*
X55732051Y-61194389D02*
G01*
X57077626Y-61687189D01*
X57084215Y-61693251D01*
X57085301Y-61698174D01*
X57085301Y-62181825D01*
X57081874Y-62190098D01*
X57077625Y-62192811D01*
X55732060Y-62685607D01*
X55723113Y-62685235D01*
X55717050Y-62678645D01*
X55716564Y-62676918D01*
X55569459Y-61942292D01*
X55569459Y-61937707D01*
X55716564Y-61203080D01*
X55721548Y-61195641D01*
X55730333Y-61193906D01*
X55732051Y-61194389D01*
G37*
%TD.AperFunction*%
%TD*%
%TA.AperFunction,Conductor*%
%TO.N,/b1*%
G36*
X29483325Y-89658085D02*
G01*
X30934706Y-90400540D01*
X30940511Y-90407358D01*
X30941078Y-90410956D01*
X30941078Y-90896643D01*
X30937651Y-90904916D01*
X30934706Y-90907059D01*
X29483325Y-91649514D01*
X29474399Y-91650231D01*
X29468966Y-91646537D01*
X28657326Y-90661237D01*
X28654712Y-90652675D01*
X28657326Y-90646363D01*
X29468967Y-89661061D01*
X29476872Y-89656855D01*
X29483325Y-89658085D01*
G37*
%TD.AperFunction*%
%TD*%
%TA.AperFunction,Conductor*%
%TO.N,/b1*%
G36*
X38431156Y-95155567D02*
G01*
X39165634Y-95673511D01*
X39615121Y-95990483D01*
X39619907Y-95998052D01*
X39618114Y-96006534D01*
X39155602Y-96700462D01*
X39148162Y-96705446D01*
X39148137Y-96705450D01*
X38516671Y-96830415D01*
X38507890Y-96828660D01*
X38502923Y-96821209D01*
X38502700Y-96818938D01*
X38502700Y-96582512D01*
X38471038Y-96342012D01*
X38408254Y-96107701D01*
X38408250Y-96107690D01*
X38315427Y-95883596D01*
X38315424Y-95883588D01*
X38194136Y-95673511D01*
X38104449Y-95556628D01*
X38073118Y-95515796D01*
X38070891Y-95510778D01*
X38070654Y-95509478D01*
X38072540Y-95500728D01*
X38073885Y-95499114D01*
X38416143Y-95156856D01*
X38424415Y-95153430D01*
X38431156Y-95155567D01*
G37*
%TD.AperFunction*%
%TD*%
%TA.AperFunction,Conductor*%
%TO.N,/b2*%
G36*
X42388257Y-95156857D02*
G01*
X42730507Y-95499107D01*
X42730927Y-95500122D01*
X42731852Y-95500718D01*
X42732593Y-95504143D01*
X42733934Y-95507380D01*
X42733746Y-95509471D01*
X42733511Y-95510765D01*
X42731281Y-95515796D01*
X42610270Y-95673502D01*
X42610264Y-95673511D01*
X42488976Y-95883588D01*
X42488974Y-95883591D01*
X42488972Y-95883596D01*
X42396149Y-96107690D01*
X42396145Y-96107701D01*
X42333361Y-96342012D01*
X42301700Y-96582512D01*
X42301700Y-96818938D01*
X42298273Y-96827211D01*
X42290000Y-96830638D01*
X42287729Y-96830415D01*
X41656262Y-96705450D01*
X41648811Y-96700483D01*
X41648797Y-96700462D01*
X41570182Y-96582512D01*
X41186284Y-96006532D01*
X41184548Y-95997749D01*
X41189277Y-95990484D01*
X42373244Y-95155567D01*
X42381977Y-95153601D01*
X42388257Y-95156857D01*
G37*
%TD.AperFunction*%
%TD*%
%TA.AperFunction,Conductor*%
%TO.N,/b2*%
G36*
X46542280Y-94974947D02*
G01*
X46543818Y-94976846D01*
X47352663Y-96221890D01*
X47354297Y-96230695D01*
X47349363Y-96237985D01*
X46656943Y-96701803D01*
X46648163Y-96703560D01*
X46648142Y-96703556D01*
X46009864Y-96576160D01*
X46002422Y-96571180D01*
X46000554Y-96566213D01*
X45971038Y-96342012D01*
X45971038Y-96342011D01*
X45927394Y-96179131D01*
X45927482Y-96172767D01*
X46181551Y-95321118D01*
X46184487Y-95316194D01*
X46525735Y-94974946D01*
X46534007Y-94971520D01*
X46542280Y-94974947D01*
G37*
%TD.AperFunction*%
%TD*%
%TA.AperFunction,Conductor*%
%TO.N,/b2*%
G36*
X29959304Y-86159128D02*
G01*
X30947520Y-86900290D01*
X30952082Y-86907995D01*
X30952200Y-86909650D01*
X30952200Y-87397950D01*
X30948773Y-87406223D01*
X30947520Y-87407310D01*
X29959306Y-88148470D01*
X29950631Y-88150692D01*
X29945156Y-88148386D01*
X28981016Y-87407310D01*
X28663267Y-87163075D01*
X28658797Y-87155318D01*
X28661122Y-87146670D01*
X28663268Y-87144524D01*
X28976450Y-86903800D01*
X29945158Y-86159212D01*
X29953804Y-86156888D01*
X29959304Y-86159128D01*
G37*
%TD.AperFunction*%
%TD*%
%TA.AperFunction,Conductor*%
%TO.N,/a2*%
G36*
X29807104Y-63455328D02*
G01*
X30795320Y-64196490D01*
X30799882Y-64204195D01*
X30800000Y-64205850D01*
X30800000Y-64694150D01*
X30796573Y-64702423D01*
X30795320Y-64703510D01*
X29807106Y-65444670D01*
X29798431Y-65446892D01*
X29792956Y-65444586D01*
X28828816Y-64703510D01*
X28511067Y-64459275D01*
X28506597Y-64451518D01*
X28508922Y-64442870D01*
X28511068Y-64440724D01*
X28824250Y-64200000D01*
X29792958Y-63455412D01*
X29801604Y-63453088D01*
X29807104Y-63455328D01*
G37*
%TD.AperFunction*%
%TD*%
%TA.AperFunction,Conductor*%
%TO.N,/a2*%
G36*
X41799227Y-72341638D02*
G01*
X41800000Y-72342345D01*
X42141844Y-72684189D01*
X42145115Y-72690559D01*
X42256835Y-73368173D01*
X42256101Y-73374553D01*
X42243945Y-73403901D01*
X42243943Y-73403908D01*
X42181161Y-73638212D01*
X42151644Y-73862413D01*
X42147166Y-73870168D01*
X42142334Y-73872360D01*
X41504057Y-73999756D01*
X41495273Y-73998014D01*
X41495256Y-73998003D01*
X40804057Y-73535003D01*
X40799090Y-73527551D01*
X40800847Y-73518771D01*
X40801575Y-73517799D01*
X41782747Y-72343117D01*
X41790681Y-72338965D01*
X41799227Y-72341638D01*
G37*
%TD.AperFunction*%
%TD*%
%TA.AperFunction,Conductor*%
%TO.N,/a2*%
G36*
X46342915Y-72290484D02*
G01*
X46344236Y-72292060D01*
X47199922Y-73517984D01*
X47201847Y-73526730D01*
X47197025Y-73534275D01*
X47196839Y-73534402D01*
X46504743Y-73998003D01*
X46495963Y-73999760D01*
X46495942Y-73999756D01*
X45857664Y-73872360D01*
X45850222Y-73867380D01*
X45848354Y-73862413D01*
X45818838Y-73638212D01*
X45788966Y-73526730D01*
X45768809Y-73451505D01*
X45768798Y-73445502D01*
X45981886Y-72637216D01*
X45984923Y-72631930D01*
X46326370Y-72290483D01*
X46334642Y-72287057D01*
X46342915Y-72290484D01*
G37*
%TD.AperFunction*%
%TD*%
%TA.AperFunction,Conductor*%
%TO.N,/a1*%
G36*
X38278956Y-72451767D02*
G01*
X39013434Y-72969711D01*
X39462921Y-73286683D01*
X39467707Y-73294252D01*
X39465914Y-73302734D01*
X39003402Y-73996662D01*
X38995962Y-74001646D01*
X38995937Y-74001650D01*
X38364471Y-74126615D01*
X38355690Y-74124860D01*
X38350723Y-74117409D01*
X38350500Y-74115138D01*
X38350500Y-73878712D01*
X38318838Y-73638212D01*
X38256054Y-73403901D01*
X38256050Y-73403890D01*
X38163227Y-73179796D01*
X38163224Y-73179788D01*
X38041936Y-72969711D01*
X37952249Y-72852828D01*
X37920918Y-72811996D01*
X37918691Y-72806978D01*
X37918454Y-72805678D01*
X37920340Y-72796928D01*
X37921685Y-72795314D01*
X38263943Y-72453056D01*
X38272215Y-72449630D01*
X38278956Y-72451767D01*
G37*
%TD.AperFunction*%
%TD*%
%TA.AperFunction,Conductor*%
%TO.N,/a1*%
G36*
X39642335Y-74127638D02*
G01*
X39649776Y-74132618D01*
X39651644Y-74137585D01*
X39681161Y-74361787D01*
X39708731Y-74464680D01*
X39708258Y-74472141D01*
X39307538Y-75450920D01*
X39304983Y-75454760D01*
X38964628Y-75795115D01*
X38956355Y-75798542D01*
X38948082Y-75795115D01*
X38945867Y-75792028D01*
X38297798Y-74481431D01*
X38297203Y-74472496D01*
X38301773Y-74466526D01*
X38995258Y-74001995D01*
X39004034Y-74000239D01*
X39642335Y-74127638D01*
G37*
%TD.AperFunction*%
%TD*%
%TA.AperFunction,Conductor*%
%TO.N,/a1*%
G36*
X29331125Y-66954285D02*
G01*
X30782506Y-67696740D01*
X30788311Y-67703558D01*
X30788878Y-67707156D01*
X30788878Y-68192843D01*
X30785451Y-68201116D01*
X30782506Y-68203259D01*
X29331125Y-68945714D01*
X29322199Y-68946431D01*
X29316766Y-68942737D01*
X28505126Y-67957437D01*
X28502512Y-67948875D01*
X28505126Y-67942563D01*
X29316767Y-66957261D01*
X29324672Y-66953055D01*
X29331125Y-66954285D01*
G37*
%TD.AperFunction*%
%TD*%
%TA.AperFunction,Conductor*%
%TO.N,/a1*%
G36*
X44004725Y-74001984D02*
G01*
X44697086Y-74465762D01*
X44702053Y-74473214D01*
X44700334Y-74481936D01*
X43880151Y-75722353D01*
X43872730Y-75727364D01*
X43863939Y-75725659D01*
X43862119Y-75724173D01*
X43520822Y-75382876D01*
X43517858Y-75377862D01*
X43273802Y-74536375D01*
X43273739Y-74530099D01*
X43318838Y-74361789D01*
X43348354Y-74137583D01*
X43352831Y-74129830D01*
X43357660Y-74127639D01*
X43995944Y-74000243D01*
X44004725Y-74001984D01*
G37*
%TD.AperFunction*%
%TD*%
%TA.AperFunction,Conductor*%
%TO.N,+5V*%
G36*
X34849771Y-104251110D02*
G01*
X36347167Y-104826915D01*
X36353658Y-104833082D01*
X36354667Y-104837835D01*
X36354667Y-105321764D01*
X36351240Y-105330037D01*
X36347166Y-105332684D01*
X34849776Y-105908487D01*
X34840824Y-105908258D01*
X34834657Y-105901766D01*
X34834106Y-105899870D01*
X34670459Y-105082093D01*
X34670459Y-105077504D01*
X34719371Y-104833082D01*
X34834105Y-104259734D01*
X34839088Y-104252296D01*
X34847873Y-104250559D01*
X34849771Y-104251110D01*
G37*
%TD.AperFunction*%
%TD*%
%TA.AperFunction,Conductor*%
%TO.N,+5V*%
G36*
X36367968Y-104236760D02*
G01*
X37203712Y-105071522D01*
X37207144Y-105079793D01*
X37203722Y-105088068D01*
X37203712Y-105088078D01*
X36367968Y-105922839D01*
X36359693Y-105926261D01*
X36352953Y-105924120D01*
X36351138Y-105922839D01*
X35515953Y-105333296D01*
X35511170Y-105325725D01*
X35511000Y-105323737D01*
X35511000Y-104835862D01*
X35514427Y-104827589D01*
X35515947Y-104826307D01*
X36352955Y-104235478D01*
X36361688Y-104233508D01*
X36367968Y-104236760D01*
G37*
%TD.AperFunction*%
%TD*%
%TA.AperFunction,Conductor*%
%TO.N,/Mot2B*%
G36*
X39794535Y-81331438D02*
G01*
X39801976Y-81336418D01*
X39803844Y-81341385D01*
X39833361Y-81565587D01*
X39879642Y-81738310D01*
X39879598Y-81744529D01*
X39643384Y-82577873D01*
X39640400Y-82582955D01*
X39299066Y-82924289D01*
X39290793Y-82927716D01*
X39282520Y-82924289D01*
X39281075Y-82922531D01*
X38808667Y-82217842D01*
X38451967Y-81685756D01*
X38450207Y-81676977D01*
X38455171Y-81669524D01*
X38455170Y-81669524D01*
X39147458Y-81205795D01*
X39156234Y-81204039D01*
X39794535Y-81331438D01*
G37*
%TD.AperFunction*%
%TD*%
%TA.AperFunction,Conductor*%
%TO.N,/Mot2B*%
G36*
X49156925Y-81205784D02*
G01*
X49849398Y-81669637D01*
X49854365Y-81677089D01*
X49852722Y-81685696D01*
X49048991Y-82932827D01*
X49041628Y-82937925D01*
X49032818Y-82936324D01*
X49030883Y-82934762D01*
X48689661Y-82593540D01*
X48686734Y-82588650D01*
X48428134Y-81732490D01*
X48428033Y-81726084D01*
X48471038Y-81565589D01*
X48500554Y-81341383D01*
X48505031Y-81333630D01*
X48509860Y-81331439D01*
X49148144Y-81204043D01*
X49156925Y-81205784D01*
G37*
%TD.AperFunction*%
%TD*%
%TA.AperFunction,Conductor*%
%TO.N,/Mot2B*%
G36*
X55416886Y-84054764D02*
G01*
X55422949Y-84061354D01*
X55423435Y-84063081D01*
X55570540Y-84797703D01*
X55570540Y-84802297D01*
X55423435Y-85536918D01*
X55418451Y-85544358D01*
X55409666Y-85546093D01*
X55407939Y-85545607D01*
X54062375Y-85052811D01*
X54055785Y-85046748D01*
X54054699Y-85041825D01*
X54054699Y-84558174D01*
X54058126Y-84549901D01*
X54062372Y-84547189D01*
X55407941Y-84054392D01*
X55416886Y-84054764D01*
G37*
%TD.AperFunction*%
%TD*%
%TA.AperFunction,Conductor*%
%TO.N,/EEP*%
G36*
X36482375Y-95875341D02*
G01*
X36488542Y-95881833D01*
X36489095Y-95883736D01*
X36652740Y-96701504D01*
X36652740Y-96706096D01*
X36489095Y-97523863D01*
X36484111Y-97531303D01*
X36475326Y-97533040D01*
X36473423Y-97532487D01*
X34976034Y-96956684D01*
X34969542Y-96950517D01*
X34968533Y-96945764D01*
X34968533Y-96461835D01*
X34971960Y-96453562D01*
X34976031Y-96450916D01*
X36473424Y-95875112D01*
X36482375Y-95875341D01*
G37*
%TD.AperFunction*%
%TD*%
%TA.AperFunction,Conductor*%
%TO.N,/EEP*%
G36*
X55416886Y-86594764D02*
G01*
X55422949Y-86601354D01*
X55423435Y-86603081D01*
X55570540Y-87337703D01*
X55570540Y-87342297D01*
X55423435Y-88076918D01*
X55418451Y-88084358D01*
X55409666Y-88086093D01*
X55407939Y-88085607D01*
X54062375Y-87592811D01*
X54055785Y-87586748D01*
X54054699Y-87581825D01*
X54054699Y-87098174D01*
X54058126Y-87089901D01*
X54062372Y-87087189D01*
X55407941Y-86594392D01*
X55416886Y-86594764D01*
G37*
%TD.AperFunction*%
%TD*%
%TA.AperFunction,Conductor*%
%TO.N,/EEP*%
G36*
X35803059Y-73534504D02*
G01*
X35804795Y-73535459D01*
X36498758Y-73997994D01*
X36502005Y-74001241D01*
X36964540Y-74695204D01*
X36966277Y-74703989D01*
X36961293Y-74711429D01*
X36959557Y-74712384D01*
X35493587Y-75364044D01*
X35484635Y-75364273D01*
X35480561Y-75361626D01*
X35138373Y-75019438D01*
X35134946Y-75011165D01*
X35135954Y-75006414D01*
X35787616Y-73540440D01*
X35794107Y-73534275D01*
X35803059Y-73534504D01*
G37*
%TD.AperFunction*%
%TD*%
%TA.AperFunction,Conductor*%
%TO.N,/Mot1B*%
G36*
X49820064Y-58663104D02*
G01*
X49827503Y-58668088D01*
X49829240Y-58676873D01*
X49828687Y-58678776D01*
X49252884Y-60176166D01*
X49246717Y-60182658D01*
X49241964Y-60183667D01*
X48758036Y-60183667D01*
X48749763Y-60180240D01*
X48747116Y-60176166D01*
X48573209Y-59723918D01*
X48288519Y-58983576D01*
X48288139Y-58976357D01*
X48318838Y-58861789D01*
X48348368Y-58637477D01*
X48352843Y-58629727D01*
X48357661Y-58627539D01*
X48997706Y-58499459D01*
X49002294Y-58499459D01*
X49820064Y-58663104D01*
G37*
%TD.AperFunction*%
%TD*%
%TA.AperFunction,Conductor*%
%TO.N,/Mot1B*%
G36*
X39642331Y-58627538D02*
G01*
X39649768Y-58632520D01*
X39651632Y-58637482D01*
X39681161Y-58861787D01*
X39711859Y-58976352D01*
X39711478Y-58983579D01*
X39252884Y-60176166D01*
X39246717Y-60182658D01*
X39241964Y-60183667D01*
X38758036Y-60183667D01*
X38749763Y-60180240D01*
X38747116Y-60176166D01*
X38573209Y-59723918D01*
X38288519Y-58983576D01*
X38288139Y-58976357D01*
X38318838Y-58861789D01*
X38348368Y-58637477D01*
X38352843Y-58629727D01*
X38357661Y-58627539D01*
X38997706Y-58499459D01*
X39002294Y-58499459D01*
X39642331Y-58627538D01*
G37*
%TD.AperFunction*%
%TD*%
M02*
